<svg width="67" height="16" viewBox="0 0 67 16" fill="none" xmlns="http://www.w3.org/2000/svg">
<path d="M9.84578 8.07554C9.84578 8.1909 9.76886 8.61391 9.61502 9.34455C9.46117 10.0752 9.34579 10.4597 9.26888 10.4982C8.46121 10.9981 7.11511 11.2288 5.26903 11.2288C3.80755 11.2288 2.53836 10.6905 1.5384 9.61374C0.499981 8.537 0 7.26798 0 5.76824C0 4.19159 0.538441 2.84567 1.57686 1.69202C2.65374 0.576824 3.92293 0 5.46133 0C6.76897 0 8.11507 0.15382 9.49964 0.423004C9.46117 1.92275 9.46117 2.7303 9.46117 2.80721C9.46117 2.96103 9.34579 3.0764 9.11504 3.0764C8.99965 3.0764 8.92273 3.03794 8.88427 2.99949C8.88427 2.84567 8.84581 2.69185 8.80735 2.53803C8.76889 2.38421 8.65351 2.19193 8.49967 1.9612C8.34583 1.73047 8.15353 1.49974 7.92277 1.34592C7.65355 1.15365 7.34587 1.03828 6.92281 0.884464C6.49975 0.769099 6.03823 0.692189 5.49979 0.692189C4.42291 0.692189 3.49987 1.1921 2.73066 2.11502C1.96146 3.0764 1.57686 4.15313 1.57686 5.38369C1.57686 6.26816 1.7307 7.11417 2.03838 7.88326C2.34606 8.65236 2.84604 9.26764 3.49987 9.76756C4.15369 10.2675 4.96135 10.4982 5.88439 10.4982C6.99973 10.4982 7.84585 10.1906 8.42275 9.53683C8.57659 9.38301 8.73043 9.15228 8.84581 8.88309C8.96119 8.61391 9.03811 8.38318 9.11504 8.1909C9.19195 7.99863 9.23041 7.92172 9.26888 7.92172C9.34579 7.92172 9.42272 7.92172 9.49964 7.96017C9.57656 7.99863 9.65347 7.99863 9.7304 8.03708L9.84578 8.07554Z" fill="white"/>
<path d="M16.962 0.117188C17.3466 0.117188 17.7312 0.155642 18.1158 0.271007C18.5004 0.386372 18.885 0.540192 19.2696 0.770922C19.6542 1.00165 19.9619 1.30929 20.1926 1.7323C20.4234 2.1553 20.5772 2.61676 20.5772 3.15513C20.5772 3.61659 20.3849 4.1165 20.0388 4.61642C19.6926 5.11633 19.2311 5.53933 18.6158 5.80852C18.5004 5.84697 18.4619 5.92388 18.5004 5.96234C19.0388 7.11599 19.6926 8.11582 20.4234 8.88492C21.5003 10.0386 22.3464 10.6538 23.0387 10.6538C23.0771 10.7308 23.0771 10.8077 23.0771 10.8846C23.0771 10.9999 23.0771 11.0768 23.0387 11.1153C22.9233 11.1538 22.7694 11.1538 22.5771 11.1538C21.0387 11.1538 19.6542 10.3462 18.5388 8.76955C18.3465 8.53882 18.1542 8.23118 17.9235 7.88509C17.6927 7.53899 17.5389 7.30826 17.4235 7.15444C17.3081 7.00062 17.1927 6.8468 17.0389 6.65453C16.885 6.46225 16.7697 6.34689 16.6543 6.26998C16.5389 6.19307 16.4235 6.11616 16.3081 6.03925C16.1928 6.00079 16.0005 5.96234 15.6928 5.96234C15.6159 5.96234 15.5389 5.96234 15.5005 5.96234C15.462 5.96234 15.4236 6.00079 15.3851 6.03925C15.3466 6.0777 15.3082 6.15461 15.3082 6.23152V8.69264C15.3082 9.42328 15.3466 9.9232 15.4236 10.1539C15.462 10.3077 15.6928 10.4231 16.0005 10.5C16.3466 10.5769 16.5774 10.6154 16.7312 10.6154C16.7697 10.6154 16.8081 10.6923 16.8081 10.8461C16.8081 10.9615 16.8081 11.0384 16.7697 11.1153C15.6543 11.0768 14.9236 11.0384 14.6159 11.0384L12.616 11.1538C12.5775 11.1153 12.5775 11.0384 12.5775 10.8461C12.5775 10.6923 12.5775 10.6154 12.616 10.6154C12.7698 10.6154 13.0006 10.5769 13.2698 10.5C13.539 10.4231 13.7313 10.3462 13.7698 10.2693C13.8467 10.1539 13.8852 9.61556 13.8852 8.69264V2.42448C13.8852 1.77075 13.8467 1.30929 13.7698 1.00165C13.7313 0.924741 13.5775 0.847831 13.2698 0.770922C12.9621 0.694012 12.7698 0.655557 12.616 0.655557C12.5775 0.655557 12.5391 0.578647 12.5391 0.463282C12.5391 0.309462 12.5775 0.232552 12.616 0.194097H14.6159C14.962 0.194097 15.3466 0.194097 15.8082 0.155642C16.2697 0.117187 16.6543 0.117188 16.962 0.117188ZM16.6927 0.847831C16.1928 0.847831 15.8082 0.886286 15.5389 0.963196C15.5005 0.963196 15.462 1.00165 15.4236 1.07856C15.3851 1.15547 15.3851 1.34775 15.3466 1.57848C15.3466 1.84766 15.3082 2.23221 15.3082 2.77058V4.77024C15.3082 5.07788 15.8082 5.27015 16.7697 5.27015H17.1927C17.5773 5.27015 18.0004 5.07788 18.385 4.69333C18.8081 4.30878 19.0004 3.77041 19.0004 3.15513C19.0388 1.61693 18.2696 0.847831 16.6927 0.847831Z" fill="white"/>
<path d="M30.6915 0.112674L34.0375 8.91885C34.2298 9.45722 34.3837 9.84177 34.5375 10.111C34.6144 10.2648 34.7683 10.4186 35.0375 10.534C35.3067 10.6493 35.5375 10.6878 35.6528 10.6878C35.6913 10.6878 35.7298 10.8031 35.7298 10.9954C35.7298 11.0339 35.7298 11.1108 35.6913 11.1492C34.576 11.1108 33.9606 11.0723 33.8452 11.0723C33.8452 11.0723 33.1914 11.1108 31.9222 11.1492C31.8837 11.1108 31.8453 10.9954 31.8453 10.8801C31.8453 10.7262 31.8837 10.6878 31.9222 10.6878C32.0376 10.6878 32.2299 10.6493 32.4222 10.6109C32.6145 10.5724 32.7299 10.4955 32.7683 10.3801C32.8068 10.3032 32.8068 10.1879 32.8068 10.111C32.8068 9.95714 32.7683 9.80332 32.7299 9.61104C32.6914 9.41877 32.6529 9.26495 32.6145 9.14958L32.5376 8.95731L31.9222 7.07302C31.8837 7.03456 31.8453 6.99611 31.8068 6.99611C31.3838 6.95765 30.9607 6.95765 30.5376 6.95765C29.9607 6.95765 29.2685 6.99611 28.4223 7.03456L28.3454 7.07302L27.6147 8.91885C27.4224 9.45722 27.3455 9.84177 27.3455 10.0725C27.3455 10.2263 27.3839 10.3417 27.4608 10.4186C27.5762 10.4955 27.7301 10.5724 27.9608 10.6109C28.1916 10.6493 28.3454 10.6878 28.4608 10.6878C28.4993 10.6878 28.4993 10.7647 28.5377 10.8801C28.5377 10.9954 28.5377 11.1108 28.4993 11.1492C27.3839 11.1108 26.807 11.0723 26.7686 11.0723C26.5378 11.0723 26.3455 11.0723 26.1917 11.0723C26.0378 11.0723 25.8455 11.1108 25.6148 11.1108C25.4225 11.1108 25.2302 11.1492 25.0379 11.1492C24.9994 11.1108 24.9609 11.0339 24.9609 10.8801C24.9609 10.7262 24.9994 10.6493 25.0379 10.6493C25.1532 10.6493 25.3455 10.6109 25.5378 10.5724C25.7301 10.534 25.884 10.4571 25.9609 10.3417C26.1917 10.034 26.4609 9.53413 26.7301 8.76503L29.6146 1.30478C29.6531 1.26632 29.6531 1.15096 29.6915 1.03559C29.73 0.920227 29.7684 0.804863 29.7684 0.766408C29.8069 0.689498 29.8069 0.612588 29.8838 0.535678C29.9992 0.458768 30.0377 0.420313 30.0377 0.381858C30.0761 0.343403 30.1146 0.304948 30.153 0.228039C30.1915 0.189584 30.2684 0.151129 30.3069 0.112674C30.3838 0.0742188 30.4223 0.0742188 30.4992 0.0742188L30.6915 0.112674ZM28.7685 6.1501C29.3454 6.18855 29.73 6.18855 29.9607 6.18855C30.4607 6.18855 30.9607 6.18855 31.4607 6.1501L31.4991 6.07319L30.153 2.38152L28.73 6.11164L28.7685 6.1501Z" fill="white"/>
<path d="M39.6508 8.7284V2.42179C39.6508 1.76806 39.6123 1.3066 39.5354 0.99896C39.497 0.92205 39.3431 0.84514 39.0354 0.76823C38.7277 0.691321 38.5354 0.652866 38.3816 0.652866C38.3431 0.652866 38.3047 0.575956 38.3047 0.460591C38.3047 0.306771 38.3431 0.229861 38.3816 0.191406C38.9585 0.229861 39.6123 0.229861 40.3815 0.229861C40.9584 0.229861 41.42 0.229861 41.7661 0.229861C42.1122 0.229861 42.4584 0.229861 42.7276 0.229861C43.0353 0.229861 43.3045 0.268316 43.6122 0.306771C43.9199 0.345226 44.2275 0.460591 44.5352 0.575956C44.8429 0.691321 45.1506 0.883595 45.3813 1.07587C45.6121 1.26814 45.8429 1.53733 45.9967 1.88342C46.1505 2.22952 46.2275 2.57561 46.2275 2.96016C46.2275 3.34471 46.1121 3.72926 45.8429 4.07536C45.5736 4.42145 45.3429 4.65218 45.1506 4.806C44.9198 4.92136 44.766 5.03673 44.5737 5.07518C44.4968 5.11364 44.4583 5.15209 44.4968 5.19055C44.9198 5.26746 45.4583 5.5751 46.0352 6.15192C46.6505 6.69029 46.9197 7.34403 46.9197 8.11312C46.9197 9.0745 46.5351 9.8436 45.7659 10.382C44.9967 10.9588 43.9583 11.228 42.6891 11.228H40.42L38.3816 11.1511C38.3431 11.1126 38.3431 11.0357 38.3431 10.8819C38.3431 10.7281 38.3431 10.6512 38.3816 10.6512C38.5354 10.6512 38.7277 10.6127 39.0354 10.5358C39.3046 10.4589 39.497 10.382 39.5354 10.2666C39.6123 10.1512 39.6508 9.65132 39.6508 8.7284ZM43.1507 4.84445C43.6122 4.806 43.9968 4.65218 44.3045 4.383C44.6121 4.11381 44.766 3.72926 44.766 3.30626C44.766 2.53716 44.5737 1.96033 44.1891 1.49887C43.8045 1.07587 43.2276 0.84514 42.4968 0.84514C41.9969 0.84514 41.5738 0.883595 41.3046 0.960505C41.2277 0.960505 41.1892 1.03742 41.1892 1.11432L41.1123 2.80634V4.806C41.1123 4.88291 41.4969 4.92136 42.2276 4.92136C42.5738 4.88291 42.8814 4.88291 43.1507 4.84445ZM45.3429 8.19003C45.3429 7.49785 45.1121 6.88257 44.6121 6.38265C44.1506 5.88274 43.3814 5.61355 42.343 5.61355C42.1122 5.61355 41.6892 5.65201 41.1507 5.69046C41.1123 5.80583 41.0738 5.9981 41.0738 6.22883V8.65149C41.0738 9.4975 41.1507 9.99742 41.343 10.1512C41.4969 10.3051 41.8046 10.382 42.2276 10.382C42.4968 10.382 42.7661 10.3435 43.0353 10.3051C43.3045 10.2666 43.6506 10.1897 43.9968 10.0359C44.3814 9.92051 44.6891 9.68978 44.9198 9.38214C45.2275 9.0745 45.3429 8.65149 45.3429 8.19003Z" fill="white"/>
<path d="M53.3455 0.734636C55.5377 0.657726 56.8454 0.580816 57.2684 0.503906C57.3069 0.580816 57.3453 0.696181 57.3453 0.850001C57.3453 1.11919 57.3069 1.42682 57.23 1.77292C56.9223 1.84983 56.3069 1.92674 55.3454 1.96519L53.8839 2.0421C53.8455 2.0421 53.807 2.08056 53.7686 2.15747C53.6532 2.77275 53.4993 3.65721 53.2686 4.81086C53.6532 4.65704 54.1532 4.58013 54.8454 4.58013C55.73 4.58013 56.4992 4.88777 57.153 5.50305C57.8069 6.11833 58.1145 6.84897 58.1145 7.65653C58.1145 8.69481 57.7684 9.50236 57.0377 10.1946C56.3069 10.8483 55.4223 11.1944 54.3455 11.1944C53.3455 11.1944 52.6148 11.0406 52.1148 10.6945C51.9994 10.6176 51.9609 10.4637 51.9609 10.1946C51.9609 9.65618 52.1532 9.42545 52.5763 9.42545C52.6917 9.42545 52.7686 9.46391 52.884 9.54082C52.9994 9.61773 53.1147 9.73309 53.2301 9.84846C53.3455 9.96382 53.4609 10.0792 53.5378 10.1561C53.8455 10.3868 54.307 10.5022 54.8839 10.5022C55.3454 10.5022 55.7685 10.3099 56.1531 9.92537C56.5377 9.54082 56.73 8.92554 56.73 8.11799C56.73 7.81035 56.6915 7.54116 56.6146 7.31043C56.5377 7.04125 56.4223 6.81052 56.23 6.54133C56.0762 6.27215 55.8069 6.07987 55.4608 5.96451C55.1147 5.81069 54.7301 5.73378 54.2685 5.73378C53.6916 5.73378 53.1917 5.81069 52.8071 5.92605C52.7301 5.8876 52.6148 5.81069 52.4994 5.69532L53.3455 0.734636Z" fill="white"/>
<path d="M63.7315 0.417969C64.4623 0.417969 65.0776 0.687153 65.5007 1.26398C65.9238 1.8408 66.1545 2.45608 66.1545 3.14827C66.1545 3.57127 66.0776 3.99428 65.9622 4.41728C65.8084 4.84029 65.6161 5.30175 65.3084 5.76321C65.0007 6.22467 64.7315 6.60921 64.5007 6.95531C64.27 7.3014 63.9238 7.68595 63.5008 8.14741C63.0777 8.60887 62.77 8.91651 62.6162 9.07033C62.4624 9.22415 62.1931 9.49334 61.847 9.83943C61.8085 9.87788 61.8085 9.91634 61.8855 9.95479H65.1161C65.4238 9.95479 65.6545 9.87788 65.8084 9.68561C65.9622 9.49334 66.0776 9.1857 66.2314 8.68578C66.2699 8.57042 66.3468 8.49351 66.4622 8.49351C66.616 8.49351 66.693 8.53196 66.7699 8.57042C66.5007 9.91634 66.3468 10.6854 66.3084 10.9162C66.2699 11.1084 66.193 11.1854 65.9622 11.1854H60.5009C60.4624 11.1854 60.424 11.1084 60.3855 10.9931C60.3471 10.8777 60.3086 10.7623 60.3086 10.6854C61.5393 9.45488 62.5777 8.18587 63.4239 6.8784C64.3084 5.57093 64.7315 4.45574 64.7315 3.53282C64.7315 2.91754 64.5777 2.45608 64.27 2.14844C63.9623 1.80235 63.5777 1.64853 63.0777 1.64853C62.1547 1.64853 61.4239 2.10999 60.847 3.03291C60.7701 3.03291 60.6932 2.99445 60.6547 2.91754C60.5778 2.84063 60.5394 2.80218 60.5394 2.76372C60.5778 2.64836 60.6547 2.45608 60.8086 2.22535C60.9624 1.99462 61.1547 1.76389 61.4239 1.45625C61.6932 1.18707 62.0008 0.956338 62.4239 0.764063C62.8085 0.494879 63.2316 0.417969 63.7315 0.417969Z" fill="white"/>
<path d="M3.53858 14.1166C3.50012 14.2704 3.53858 14.3473 3.53858 14.3858V14.578H3.65396V14.3858C3.65396 14.3089 3.69242 14.3089 3.69242 14.3089C3.69242 14.3089 3.73088 14.3089 4.0001 14.3089H4.07702C4.07702 14.4242 4.07702 14.5396 4.07702 14.6549V15.3471C4.07702 15.501 4.07702 15.6163 4.07702 15.7317C4.07702 15.7701 4.07702 15.8086 4.03856 15.8086C4.03856 15.8086 4.0001 15.8086 3.96164 15.8086H3.84626V15.9624H3.88472C4.03856 15.9624 4.15394 15.9624 4.23086 15.9624C4.30778 15.9624 4.46162 15.9624 4.577 15.9624H4.61546V15.7701H4.50008C4.42316 15.7701 4.3847 15.7317 4.3847 15.7317C4.3847 15.7317 4.3847 15.6548 4.3847 15.3087V14.6165C4.3847 14.5011 4.3847 14.3858 4.3847 14.2704H4.46162C4.577 14.2704 4.65392 14.2704 4.7693 14.2704C4.80776 14.2704 4.80776 14.2704 4.80776 14.2704C4.80776 14.2704 4.80776 14.2704 4.80776 14.3473V14.5396H4.92314V14.5011C4.92314 14.3858 4.92314 14.2319 4.9616 14.1166V14.0781H4.26932C4.23086 14.1166 3.96164 14.1166 3.53858 14.1166Z" fill="white"/>
<path d="M6.84774 14.1121C6.73236 14.1121 6.61698 14.1121 6.5016 14.1121H6.46314V14.2274H6.57852C6.65544 14.2274 6.65544 14.2274 6.65544 14.2274C6.65544 14.2274 6.65544 14.2659 6.6939 14.2659C6.6939 14.3428 6.6939 14.4966 6.6939 14.612V14.8427C6.57852 14.8427 6.46314 14.8427 6.27084 14.8427C6.07854 14.8427 5.88624 14.8427 5.77086 14.8427V14.612C5.77086 14.4582 5.77086 14.3428 5.77086 14.3043C5.77086 14.2659 5.77086 14.2659 5.80932 14.2659C5.80932 14.2659 5.84778 14.2659 5.9247 14.2659H6.00162V14.1121H5.96316C5.77086 14.1121 5.5401 14.1121 5.27088 14.1121H5.23242V14.2274H5.38626C5.42472 14.2274 5.46318 14.2274 5.50164 14.2659C5.50164 14.2659 5.5401 14.3428 5.5401 14.612V15.3426C5.5401 15.6503 5.5401 15.7272 5.5401 15.7272C5.5401 15.7272 5.50164 15.7656 5.42472 15.7656H5.30934V15.9194H5.3478C5.50164 15.9194 5.65548 15.9194 5.7324 15.9194C5.80932 15.9194 5.9247 15.9194 6.04008 15.9194H6.07854V15.7656H5.96316C5.9247 15.7656 5.88624 15.7656 5.88624 15.7656H5.84778C5.84778 15.7656 5.84778 15.7272 5.84778 15.5734C5.84778 15.4964 5.84778 15.4195 5.84778 15.3811V15.0734C5.96316 15.0734 6.15546 15.0734 6.38622 15.0734C6.54006 15.0734 6.65544 15.0734 6.77082 15.0734V15.3811C6.77082 15.5349 6.77082 15.6503 6.77082 15.7656C6.77082 15.8041 6.77082 15.8041 6.73236 15.8425C6.73236 15.8425 6.6939 15.8425 6.61698 15.8425H6.5016V15.9964H6.54006C6.77082 15.9964 7.00158 15.9964 7.23234 15.9964H7.2708V15.7656H7.15542C7.0785 15.7656 7.04004 15.7656 7.04004 15.7272C7.04004 15.7272 7.04004 15.6503 7.04004 15.3042V14.612C7.04004 14.3813 7.04004 14.3043 7.04004 14.2659C7.04004 14.2274 7.04004 14.2274 7.0785 14.189C7.0785 14.189 7.11696 14.189 7.19388 14.189H7.30926V14.0352H7.2708C7.0785 14.1121 6.96312 14.1121 6.84774 14.1121Z" fill="white"/>
<path d="M8.80764 15.4553C8.76918 15.5707 8.76918 15.6476 8.76918 15.7245C8.73072 15.7245 8.69226 15.7629 8.6538 15.7629C8.57688 15.7629 8.53842 15.7629 8.42304 15.7629C8.30766 15.7629 8.19228 15.7629 8.0769 15.7629C8.0769 15.7245 8.0769 15.6476 8.0769 15.5322V15.0707C8.15382 15.0707 8.19228 15.0707 8.2692 15.0707C8.49996 15.0707 8.53842 15.0707 8.57688 15.1092C8.57688 15.1092 8.61534 15.1477 8.61534 15.2246V15.3399H8.76918V15.3015C8.76918 15.1861 8.76918 15.1092 8.76918 15.0323C8.76918 14.9554 8.76918 14.8785 8.76918 14.7247V14.6862H8.61534V14.8016C8.61534 14.8785 8.61534 14.9169 8.57688 14.9169C8.57688 14.9169 8.53842 14.9169 8.2692 14.9169C8.23074 14.9169 8.15382 14.9169 8.0769 14.9169V14.4939C8.0769 14.417 8.0769 14.3401 8.0769 14.3016C8.19228 14.3016 8.2692 14.3016 8.38458 14.3016C8.49996 14.3016 8.61534 14.3016 8.69226 14.3401C8.69226 14.3786 8.69226 14.4555 8.69226 14.5324V14.5708H8.8461V14.5324C8.8461 14.3786 8.8461 14.2632 8.88456 14.1478V14.1094H8.8461C8.76918 14.1094 8.73072 14.1094 8.6538 14.1094H7.96152C7.92306 14.1094 7.8846 14.1094 7.80768 14.1094H7.6923H7.53846V14.2247H7.65384C7.73076 14.2247 7.73076 14.2247 7.73076 14.2247C7.73076 14.2247 7.73076 14.2632 7.73076 14.3401C7.73076 14.417 7.73076 14.4939 7.73076 14.6093V15.3015C7.73076 15.4938 7.73076 15.6091 7.73076 15.6476C7.73076 15.7245 7.6923 15.7245 7.6923 15.7245C7.6923 15.7245 7.65384 15.7245 7.57692 15.7245H7.5V15.8783H7.53846C7.6923 15.8783 7.80768 15.8783 7.8846 15.8783C7.96152 15.8783 8.11536 15.8783 8.34612 15.8783H8.53842C8.61534 15.8783 8.73072 15.8783 8.80764 15.8783H8.8461V15.8014C8.8461 15.7245 8.8461 15.6091 8.88456 15.4553V15.4168L8.80764 15.4553Z" fill="white"/>
<path d="M12.3081 14.1121C12.2311 14.1121 12.1542 14.1121 12.0388 14.1121H12.0004V14.2274H12.1158C12.1927 14.2274 12.1927 14.2274 12.1927 14.2274V14.2659C12.1542 14.4966 12.1158 14.612 12.0773 14.6889L11.9235 15.4195L11.6542 14.6889C11.5773 14.4582 11.5004 14.2659 11.4619 14.1121V14.0736H11.3466C11.2312 14.4197 11.1543 14.6504 11.0773 14.7658L10.8466 15.3811L10.6927 14.6889L10.6158 14.2659V14.2274V14.189C10.6158 14.189 10.6543 14.189 10.6927 14.189H10.8081V14.0352H10.7697C10.6158 14.0352 10.5389 14.0352 10.462 14.0352C10.3851 14.0352 10.2697 14.0352 10.1928 14.0352H10.1543V14.2274H10.2312C10.2697 14.2274 10.3081 14.2274 10.3081 14.2274C10.3081 14.2274 10.3081 14.2659 10.3466 14.3813L10.5389 15.3042C10.5774 15.4195 10.5774 15.4964 10.6158 15.5734L10.6927 15.881H10.8466V15.8425C10.9235 15.6503 11.0004 15.3426 11.1543 15.035L11.3466 14.5351L11.5004 15.035C11.6158 15.4195 11.6927 15.6118 11.7312 15.7272C11.7312 15.7656 11.7696 15.8041 11.7696 15.8425V15.881H11.9235V15.8425C12.0004 15.4964 12.1158 15.1119 12.2311 14.6889C12.3465 14.2659 12.385 14.189 12.385 14.189H12.4234H12.5004V14.0352H12.4619C12.4619 14.1121 12.385 14.1121 12.3081 14.1121Z" fill="white"/>
<path d="M13.8463 14.0781C13.577 14.0781 13.3463 14.155 13.154 14.3473C13.0001 14.5011 12.8848 14.7319 12.8848 15.0395C12.8848 15.2318 12.9232 15.3856 13.0001 15.5394C13.0771 15.6932 13.1924 15.8086 13.3078 15.8855C13.4232 15.9624 13.577 16.0009 13.7693 16.0009C14.0386 16.0009 14.2693 15.924 14.4616 15.7317C14.6539 15.5394 14.7308 15.3087 14.7308 15.0395C14.7308 14.7703 14.6539 14.578 14.5001 14.4242C14.3462 14.155 14.1155 14.0781 13.8463 14.0781ZM14.3462 15.4625C14.3078 15.5779 14.2309 15.6548 14.1539 15.6932C14.077 15.7317 13.9616 15.7701 13.8463 15.7701C13.7309 15.7701 13.6155 15.7317 13.5001 15.6548C13.3847 15.5779 13.3078 15.501 13.2694 15.3471C13.1924 15.2318 13.1924 15.0395 13.1924 14.8857C13.1924 14.7319 13.2309 14.6165 13.2694 14.5396C13.3078 14.4242 13.3847 14.3473 13.4617 14.3089C13.5386 14.2704 13.654 14.2319 13.7693 14.2319C13.8847 14.2319 14.0001 14.2704 14.1155 14.3089C14.1924 14.3858 14.2693 14.4627 14.3462 14.578C14.3847 14.6934 14.4232 14.8472 14.4232 15.001C14.4232 15.1933 14.4232 15.3471 14.3462 15.4625Z" fill="white"/>
<path d="M16.5775 15.7701C16.5775 15.7701 16.5775 15.7701 16.5005 15.6932L16.2698 15.3856C16.1544 15.2318 16.0775 15.1164 16.0006 15.001C16.1544 14.9626 16.2313 14.8857 16.3082 14.8088C16.3852 14.7319 16.4236 14.6165 16.4236 14.5011C16.4236 14.4242 16.3852 14.3473 16.3467 14.2704C16.3082 14.1935 16.2313 14.155 16.1929 14.1166C16.1159 14.0781 16.0006 14.0781 15.8852 14.0781C15.8467 14.0781 15.7698 14.0781 15.6544 14.0781C15.5775 14.0781 15.5006 14.0781 15.4237 14.0781C15.3467 14.0781 15.2314 14.0781 15.0775 14.0781H15.0391V14.2319H15.116C15.1929 14.2319 15.2314 14.2704 15.2314 14.2704C15.2314 14.2704 15.2314 14.3473 15.2314 14.6934V15.2702C15.2314 15.6548 15.2314 15.7317 15.2314 15.7317C15.2314 15.7317 15.1929 15.7701 15.1544 15.7701H15.0391V15.924H15.0775C15.2698 15.924 15.3852 15.924 15.4237 15.924C15.5006 15.924 15.616 15.924 15.7313 15.924H15.7698V15.7701H15.6544C15.616 15.7701 15.5775 15.7701 15.539 15.7317C15.539 15.7317 15.539 15.6548 15.539 15.2702V14.6934C15.539 14.5396 15.539 14.4242 15.539 14.3089C15.616 14.2704 15.6929 14.2704 15.7698 14.2704C15.8852 14.2704 15.9621 14.3089 16.039 14.3473C16.0775 14.3858 16.1159 14.4627 16.1159 14.578C16.1159 14.6934 16.0775 14.7703 16.0006 14.8472C15.9236 14.9241 15.8467 14.9626 15.7313 14.9626C15.6929 14.9626 15.6929 14.9626 15.616 14.9626H15.5775L15.616 15.001C15.6929 15.1164 15.7698 15.1933 15.8467 15.3087L16.2698 15.8855C16.3082 15.8855 16.3467 15.8855 16.4236 15.8855C16.4621 15.8855 16.539 15.8855 16.5775 15.8855H16.6159V15.7701H16.5775Z" fill="white"/>
<path d="M18.1911 15.6932C18.1526 15.6932 18.0757 15.7317 18.0372 15.7317C17.9603 15.7317 17.8449 15.7317 17.6911 15.7317C17.6142 15.7317 17.5757 15.7317 17.4988 15.7317V15.6932V15.3471V14.578C17.4988 14.3473 17.4988 14.2704 17.4988 14.2704C17.4988 14.2704 17.4988 14.2319 17.5372 14.2319H17.7295V14.0781H17.6911C17.5372 14.0781 17.4603 14.0781 17.3449 14.0781C17.268 14.0781 17.1526 14.0781 16.9603 14.0781H16.9219V14.2319H17.0757C17.1142 14.2319 17.1526 14.2319 17.1526 14.2704C17.1526 14.2704 17.1526 14.3473 17.1526 14.6549V15.3471C17.1526 15.6548 17.1526 15.6932 17.1526 15.7317C17.1526 15.7317 17.1142 15.7701 17.0757 15.8086V15.924H17.1142C17.268 15.924 17.3834 15.924 17.4603 15.924H18.0372C18.1526 15.924 18.268 15.924 18.3449 15.924H18.3834V15.8855C18.3834 15.7701 18.4218 15.6163 18.4218 15.4625V15.424H18.3064L18.1911 15.6932Z" fill="white"/>
<path d="M20.1894 14.2704C20.1125 14.1935 19.9971 14.155 19.8817 14.1166C19.7663 14.0781 19.6894 14.0781 19.574 14.0781H18.9971C18.9587 14.0781 18.8818 14.0781 18.7279 14.0781H18.6895V14.2319H18.8048C18.8818 14.2319 18.8818 14.2319 18.8818 14.2319C18.8818 14.2319 18.8818 14.2319 18.8818 14.3089C18.8818 14.4242 18.8818 14.5396 18.8818 14.6934V15.0395C18.8818 15.3471 18.8818 15.5779 18.8818 15.6932L18.7664 15.7701V15.8855H18.8048C18.8818 15.8855 18.9971 15.8855 19.0356 15.8855C19.0741 15.8855 19.151 15.8855 19.3048 15.8855H19.4587C19.7663 15.8855 19.9971 15.8086 20.1894 15.6163C20.3817 15.424 20.4586 15.1933 20.4586 14.9241C20.4586 14.7703 20.4202 14.6549 20.3817 14.5396C20.3817 14.4627 20.3048 14.3473 20.1894 14.2704ZM19.9586 15.5779C19.8433 15.6932 19.6894 15.7317 19.4587 15.7317C19.3817 15.7317 19.3048 15.7317 19.1894 15.6932C19.1894 15.5779 19.1894 15.424 19.1894 15.3087V14.5011C19.1894 14.4242 19.1894 14.3473 19.1894 14.2704C19.3048 14.2704 19.3817 14.2319 19.4587 14.2319C19.6894 14.2319 19.8433 14.3089 19.9586 14.4242C20.074 14.5396 20.1509 14.7319 20.1509 14.9626C20.1894 15.2318 20.1125 15.4625 19.9586 15.5779Z" fill="white"/>
<path d="M21.3092 14C21.2323 14.0385 21.1553 14.0385 21.0784 14.0769H21.04V14.1154C21.04 14.1923 21.0015 14.3076 21.0015 14.3845C20.963 14.4615 20.9246 14.5768 20.8477 14.6537V14.6922L20.9246 14.7691L21.04 14.6922C21.1169 14.6153 21.1553 14.4999 21.1938 14.423C21.2323 14.3461 21.2707 14.2307 21.3476 14.1154L21.3092 14Z" fill="white"/>
<path d="M22.8464 14.9241C22.7695 14.8857 22.6926 14.8857 22.5003 14.8472C22.3464 14.8472 22.2311 14.8088 22.1926 14.8088C22.1541 14.8088 22.1157 14.7703 22.0772 14.7319C22.0388 14.6934 22.0388 14.655 22.0388 14.578C22.0388 14.4627 22.0772 14.3858 22.1541 14.3473C22.2311 14.2704 22.308 14.2704 22.4234 14.2704C22.5003 14.2704 22.5772 14.2704 22.6157 14.3089C22.6926 14.3473 22.731 14.3473 22.731 14.3858C22.731 14.3858 22.731 14.4242 22.731 14.5011V14.6165H22.8849V14.578C22.8849 14.4242 22.8849 14.3089 22.9233 14.2319V14.1935H22.8849C22.808 14.155 22.731 14.1166 22.6541 14.1166C22.5772 14.1166 22.5003 14.0781 22.4234 14.0781C22.2311 14.0781 22.0772 14.1166 21.9618 14.2319C21.8465 14.3473 21.7695 14.4627 21.7695 14.6549C21.7695 14.7703 21.808 14.8472 21.8465 14.9241C21.8849 15.001 21.9234 15.0395 22.0003 15.078C22.0772 15.1164 22.1926 15.1164 22.3849 15.1549C22.5003 15.1549 22.6157 15.1933 22.6541 15.1933C22.6926 15.2318 22.731 15.2318 22.7695 15.2702C22.808 15.3087 22.808 15.3471 22.808 15.424C22.808 15.5394 22.7695 15.6163 22.6926 15.6932C22.6157 15.7701 22.5003 15.8086 22.3849 15.8086C22.308 15.8086 22.2695 15.8086 22.1926 15.7701C22.1541 15.7701 22.0772 15.7317 22.0388 15.6932C22.0003 15.6548 22.0003 15.6548 22.0003 15.6548C22.0003 15.6548 22.0003 15.6163 22.0003 15.501V15.424H21.8465V15.4625C21.8465 15.6163 21.8465 15.7317 21.808 15.8471V15.8855H21.8465C21.9234 15.924 22.0003 15.924 22.0772 15.9624C22.1541 15.9624 22.2311 16.0009 22.308 16.0009C22.5387 16.0009 22.731 15.924 22.8464 15.8086C23.0003 15.6932 23.0387 15.5394 23.0387 15.3471C23.0387 15.2702 23.0387 15.1933 23.0003 15.1164C22.9618 15.001 22.9233 14.9626 22.8464 14.9241Z" fill="white"/>
<path d="M25.2675 14.8857C25.3445 14.8472 25.4214 14.8088 25.4598 14.7319C25.5368 14.6549 25.5368 14.578 25.5368 14.4627C25.5368 14.3473 25.4983 14.2319 25.3829 14.155C25.306 14.1166 25.1906 14.0781 25.0752 14.0781H24.9214C24.7676 14.0781 24.6906 14.0781 24.6137 14.0781C24.5753 14.0781 24.5368 14.0781 24.4983 14.0781H24.383H24.2676V14.2319H24.383C24.4214 14.2319 24.4599 14.2319 24.4983 14.2704C24.4983 14.2704 24.4983 14.3473 24.4983 14.6165V15.3856C24.4983 15.501 24.4983 15.6163 24.4983 15.7317C24.4983 15.7701 24.4983 15.7701 24.4983 15.7701C24.4983 15.7701 24.4983 15.7701 24.4214 15.8086V15.924H24.5368C24.5753 15.924 24.6522 15.924 24.6906 15.924C24.7291 15.924 24.806 15.924 24.8829 15.924H24.9599C25.1522 15.924 25.306 15.8471 25.4598 15.7317C25.5752 15.6163 25.6521 15.4625 25.6521 15.3087C25.6521 15.1933 25.6137 15.078 25.5368 15.001C25.4598 14.9241 25.3829 14.8857 25.2675 14.8857ZM24.7676 14.6934C24.7676 14.5011 24.7676 14.3473 24.7676 14.2704C24.9599 14.2319 25.1137 14.2704 25.1522 14.3089C25.1906 14.3473 25.2291 14.4242 25.2291 14.5011C25.2291 14.6165 25.1906 14.6934 25.1522 14.7319C25.0752 14.7703 24.9983 14.8088 24.8445 14.8088C24.806 14.8088 24.806 14.8088 24.7676 14.8088V14.6934ZM25.2291 15.6548C25.1522 15.7317 25.0752 15.7701 24.9214 15.7701C24.8829 15.7701 24.8445 15.7701 24.7676 15.7701C24.7676 15.7317 24.7676 15.7317 24.7676 15.7317C24.7676 15.6932 24.7676 15.6548 24.7676 15.6163V15.0395C24.806 15.0395 24.8445 15.0395 24.8829 15.0395C24.9983 15.0395 25.1137 15.0395 25.1522 15.078C25.1906 15.1164 25.2675 15.1549 25.2675 15.1933C25.306 15.2318 25.306 15.3087 25.306 15.3856C25.3445 15.4625 25.306 15.5779 25.2291 15.6548Z" fill="white"/>
<path d="M27.2686 15.4553C27.2686 15.5707 27.2301 15.6476 27.2301 15.7245C27.1917 15.7245 27.1532 15.7629 27.1147 15.7629C27.0378 15.7629 26.9994 15.7629 26.884 15.7629C26.7686 15.7629 26.6532 15.7629 26.5378 15.7629C26.5378 15.7245 26.5378 15.6476 26.5378 15.5322V15.0707C26.6148 15.0707 26.6532 15.0707 26.7301 15.0707C26.9609 15.0707 26.9994 15.0707 27.0378 15.1092C27.0378 15.1092 27.0763 15.1477 27.0763 15.2246V15.3399H27.2301V15.3015C27.2301 15.1861 27.2301 15.1092 27.2301 15.0323C27.2301 14.9554 27.2301 14.8785 27.2301 14.7247V14.6862H27.0763V14.8016C27.0763 14.8785 27.0763 14.9169 27.0378 14.9169C27.0378 14.9169 26.9994 14.9169 26.7301 14.9169C26.6917 14.9169 26.6148 14.9169 26.5378 14.9169V14.4939C26.5378 14.417 26.5378 14.3401 26.5378 14.3016C26.6532 14.3016 26.7301 14.3016 26.8455 14.3016C26.9609 14.3016 27.0763 14.3016 27.1532 14.3401C27.1532 14.3786 27.1532 14.4555 27.1532 14.5324V14.5708H27.307V14.5324C27.307 14.3786 27.3455 14.2632 27.3455 14.1478V14.1094H27.307C27.2301 14.1094 27.1917 14.1094 27.1147 14.1094H26.4225C26.384 14.1094 26.3455 14.1094 26.2686 14.1094H26.1532H25.9994V14.2247H26.1148C26.1917 14.2247 26.1917 14.2247 26.1917 14.2247C26.1917 14.2247 26.1917 14.2247 26.1917 14.2632C26.1917 14.2632 26.1917 14.3017 26.1917 14.3786C26.1917 14.4555 26.1917 14.5324 26.1917 14.6477V15.3399C26.1917 15.5322 26.1917 15.6476 26.1917 15.686C26.1917 15.7629 26.1532 15.7629 26.1532 15.7629C26.1532 15.7629 26.1148 15.7629 26.0379 15.7629H25.9609V15.9168H25.9994C26.1532 15.9168 26.2686 15.9168 26.3455 15.9168C26.4225 15.9168 26.5763 15.9168 26.8071 15.9168H26.9994C27.0763 15.9168 27.1917 15.9168 27.2686 15.9168H27.307V15.8398C27.307 15.7629 27.307 15.6476 27.3455 15.4938V15.4553H27.2686Z" fill="white"/>
<path d="M28.8093 14.9241C28.7324 14.8857 28.6555 14.8857 28.4632 14.8472C28.3093 14.8472 28.1939 14.8088 28.1555 14.8088C28.117 14.8088 28.0786 14.7703 28.0401 14.7319C28.0016 14.6934 28.0016 14.655 28.0016 14.578C28.0016 14.4627 28.0401 14.3858 28.117 14.3473C28.1939 14.2704 28.2709 14.2704 28.3862 14.2704C28.4632 14.2704 28.5401 14.2704 28.5785 14.3089C28.6555 14.3473 28.6939 14.3473 28.6939 14.3858C28.6939 14.3858 28.7324 14.4242 28.7324 14.5011V14.6165H28.8478V14.578C28.8478 14.4242 28.8478 14.3089 28.8862 14.2319V14.1935H28.8478C28.7708 14.155 28.6939 14.1166 28.617 14.1166C28.5401 14.1166 28.4632 14.0781 28.3862 14.0781C28.1939 14.0781 28.0401 14.1166 27.9247 14.2319C27.8093 14.3473 27.7324 14.4627 27.7324 14.6549C27.7324 14.7703 27.7324 14.8472 27.7709 14.9241C27.8093 15.001 27.8478 15.0395 27.9247 15.078C28.0016 15.1164 28.117 15.1164 28.3093 15.1549C28.4247 15.1549 28.5401 15.1933 28.5785 15.1933C28.617 15.2318 28.6555 15.2318 28.6939 15.2702C28.7324 15.3087 28.7324 15.3471 28.7324 15.424C28.7324 15.5394 28.6939 15.6163 28.617 15.6932C28.5401 15.7701 28.4247 15.8086 28.3093 15.8086C28.2324 15.8086 28.1939 15.8086 28.117 15.7701C28.0786 15.7701 28.0016 15.7317 27.9632 15.6932C27.9247 15.6548 27.9247 15.6548 27.9247 15.6548C27.9247 15.6548 27.9247 15.6163 27.9247 15.501V15.424H27.7709V15.4625C27.7709 15.6163 27.7709 15.7317 27.7324 15.8471V15.8855H27.7709C27.8478 15.924 27.9247 15.924 28.0016 15.9624C28.0786 15.9624 28.1555 16.0009 28.2324 16.0009C28.4632 16.0009 28.6555 15.924 28.7708 15.8086C28.9247 15.6932 28.9631 15.5394 28.9631 15.3471C28.9631 15.2702 28.9631 15.1933 28.9247 15.1164C28.8862 15.001 28.8478 14.9626 28.8093 14.9241Z" fill="white"/>
<path d="M29.3062 14.1166C29.2677 14.2704 29.3062 14.3473 29.3062 14.3858V14.578H29.4215L29.46 14.3858C29.46 14.3089 29.4985 14.3089 29.4985 14.3089C29.4985 14.3089 29.5369 14.3089 29.8061 14.3089H29.8831C29.8831 14.4242 29.8831 14.5396 29.8831 14.6549V15.3471C29.8831 15.501 29.8831 15.6163 29.8831 15.7317C29.8831 15.7701 29.8831 15.8086 29.8446 15.8086C29.8446 15.8086 29.8061 15.8086 29.7677 15.8086H29.6523V15.9624H29.6908C29.8446 15.9624 29.96 15.9624 30.0369 15.9624C30.1138 15.9624 30.2677 15.9624 30.383 15.9624H30.4215V15.7701H30.3061C30.2292 15.7701 30.1907 15.7317 30.1907 15.7317C30.1907 15.7317 30.1907 15.6548 30.1907 15.3087V14.6165C30.1907 14.5011 30.1907 14.3858 30.1907 14.2704H30.2677C30.383 14.2704 30.46 14.2704 30.5753 14.2704C30.6138 14.2704 30.6138 14.2704 30.6138 14.2704C30.6138 14.2704 30.6138 14.2704 30.6138 14.3473V14.5396H30.7292V14.5011C30.7292 14.3858 30.7292 14.2319 30.7676 14.1166V14.0781H30.0754C29.9984 14.1166 29.7677 14.1166 29.3062 14.1166Z" fill="white"/>
<path d="M33.5384 15.6163C33.4615 15.6548 33.3846 15.6932 33.3076 15.7317C33.1923 15.7701 33.1153 15.7701 33 15.7701C32.8846 15.7701 32.7692 15.7317 32.6538 15.6548C32.5384 15.5779 32.4615 15.501 32.3846 15.3856C32.3077 15.2702 32.3077 15.1164 32.3077 14.9626C32.3077 14.7319 32.3846 14.578 32.5 14.4242C32.6154 14.3089 32.7692 14.2319 33 14.2319C33.0769 14.2319 33.1538 14.2319 33.2307 14.2704C33.3076 14.3089 33.3846 14.3089 33.423 14.3858V14.6165H33.5384V14.578C33.5384 14.4242 33.5769 14.3089 33.6153 14.2319V14.1935H33.5769C33.5384 14.1935 33.4615 14.155 33.3846 14.155C33.2307 14.1166 33.1153 14.0781 33 14.0781C32.7692 14.0781 32.6154 14.1166 32.4615 14.1935C32.3077 14.2704 32.1923 14.3858 32.1154 14.5396C32.0385 14.6934 32 14.8472 32 15.001C32 15.1933 32.0385 15.3471 32.1154 15.4625C32.1923 15.6163 32.3077 15.7317 32.4615 15.8086C32.6154 15.8855 32.7692 15.924 33 15.924C33.0769 15.924 33.1923 15.924 33.2692 15.8855C33.3461 15.8471 33.4615 15.8086 33.5384 15.7701C33.5384 15.7317 33.5769 15.6932 33.5769 15.6548L33.5384 15.6163Z" fill="white"/>
<path d="M35.4622 15.7701C35.4622 15.7701 35.4622 15.7701 35.3853 15.6932L35.1546 15.3856C35.0392 15.2318 34.9622 15.1164 34.8853 15.001C35.0392 14.9626 35.1161 14.8857 35.193 14.8088C35.2699 14.7319 35.3084 14.6165 35.3084 14.5011C35.3084 14.4242 35.2699 14.3473 35.2315 14.2704C35.193 14.1935 35.1161 14.155 35.0776 14.1166C35.0007 14.0781 34.8853 14.0781 34.77 14.0781C34.7315 14.0781 34.6546 14.0781 34.5392 14.0781C34.4238 14.0781 34.3853 14.0781 34.3084 14.0781C34.2315 14.0781 34.1161 14.0781 33.9623 14.0781H33.9238V14.2319H34.0008C34.0777 14.2319 34.1161 14.2704 34.1161 14.2704C34.1161 14.2704 34.1161 14.3473 34.1161 14.6934V15.2702C34.1161 15.6548 34.1161 15.7317 34.1161 15.7317C34.1161 15.7317 34.0777 15.7701 34.0392 15.7701H33.9238V15.924H33.9623C34.1546 15.924 34.27 15.924 34.3084 15.924C34.3853 15.924 34.5007 15.924 34.6161 15.924H34.6546V15.7701H34.5392C34.5007 15.7701 34.4623 15.7701 34.4238 15.7317C34.4238 15.7317 34.4238 15.6548 34.4238 15.2702V14.6934C34.4238 14.5396 34.4238 14.4242 34.4238 14.3089C34.5007 14.2704 34.5776 14.2704 34.6546 14.2704C34.77 14.2704 34.8469 14.3089 34.9238 14.3473C34.9623 14.3858 35.0007 14.4627 35.0007 14.578C35.0007 14.6934 34.9622 14.7703 34.8853 14.8472C34.8084 14.9241 34.7315 14.9626 34.6161 14.9626C34.5777 14.9626 34.5776 14.9626 34.5007 14.9626H34.4623L34.5007 15.001C34.5776 15.1164 34.6546 15.1933 34.7315 15.3087L35.1546 15.924C35.193 15.924 35.2315 15.924 35.3084 15.924C35.3469 15.924 35.4238 15.924 35.4622 15.924H35.5007V15.7701H35.4622Z" fill="white"/>
<path d="M37.3444 14.1166C37.306 14.1166 37.1906 14.1166 37.0368 14.1166H36.9983V14.2319H37.0752C37.1906 14.2319 37.1906 14.2704 37.1906 14.2704C37.1906 14.2704 37.2291 14.3473 37.2291 14.6165V15.078C37.2291 15.2702 37.2291 15.424 37.1906 15.501C37.1521 15.5779 37.1137 15.6163 37.0752 15.6548C36.9983 15.6932 36.8829 15.7317 36.7675 15.7317C36.6522 15.7317 36.5368 15.6932 36.4599 15.6548C36.3829 15.6163 36.3445 15.5394 36.3445 15.501C36.3445 15.424 36.306 15.3087 36.306 15.1549V14.6549C36.306 14.3473 36.306 14.2704 36.306 14.2704C36.306 14.2704 36.3445 14.2319 36.4214 14.2319H36.5368V14.0781H36.4983C36.3445 14.0781 36.2291 14.0781 36.1522 14.0781C36.0753 14.0781 35.9599 14.0781 35.806 14.0781H35.7676V14.2319H35.883C35.9599 14.2319 35.9599 14.2704 35.9983 14.2704C35.9983 14.2704 35.9983 14.3473 35.9983 14.6549V15.0395V15.2702C35.9983 15.424 35.9983 15.5394 36.0368 15.6163C36.0753 15.6932 36.1137 15.7317 36.1522 15.8086C36.1906 15.8471 36.2676 15.8855 36.3829 15.924C36.4599 15.9624 36.5752 15.9624 36.7291 15.9624C36.8445 15.9624 36.9598 15.9624 37.0368 15.924C37.1137 15.8855 37.1906 15.8471 37.2675 15.7701C37.306 15.6932 37.3444 15.6548 37.3829 15.5779C37.4214 15.501 37.4214 15.3471 37.4214 15.1549V14.6165C37.4214 14.3473 37.4214 14.2704 37.4598 14.2704C37.4598 14.2319 37.4983 14.2319 37.5367 14.2319H37.6521V14.0781H37.6137C37.5367 14.1166 37.4214 14.1166 37.3444 14.1166Z" fill="white"/>
<path d="M39.0345 14.9241C38.9576 14.8857 38.8807 14.8857 38.6884 14.8472C38.5345 14.8472 38.4192 14.8088 38.3807 14.8088C38.3422 14.8088 38.3038 14.7703 38.2653 14.7319C38.2269 14.6934 38.2269 14.655 38.2269 14.578C38.2269 14.4627 38.2653 14.3858 38.3422 14.3473C38.4192 14.2704 38.4961 14.2704 38.6115 14.2704C38.6884 14.2704 38.7653 14.2704 38.8038 14.3089C38.8807 14.3473 38.9191 14.3473 38.9191 14.3858C38.9191 14.3858 38.9576 14.4242 38.9576 14.5011V14.6165H39.1114V14.578C39.1114 14.4242 39.1114 14.3089 39.1499 14.2319V14.1935H39.1114C39.0345 14.155 38.9576 14.1166 38.8807 14.1166C38.8038 14.1166 38.7268 14.0781 38.6499 14.0781C38.4576 14.0781 38.3038 14.1166 38.1884 14.2319C38.073 14.3473 37.9961 14.4627 37.9961 14.6549C37.9961 14.7703 37.9961 14.8472 38.0346 14.9241C38.073 15.001 38.1115 15.0395 38.1884 15.078C38.2653 15.1164 38.3807 15.1164 38.573 15.1549C38.6884 15.1549 38.8038 15.1933 38.8422 15.1933C38.8807 15.2318 38.9191 15.2318 38.9576 15.2702C38.9961 15.3087 38.9961 15.3471 38.9961 15.424C38.9961 15.5394 38.9576 15.6163 38.8807 15.6932C38.8038 15.7701 38.6884 15.8086 38.573 15.8086C38.4961 15.8086 38.4576 15.8086 38.3807 15.7701C38.3422 15.7701 38.2653 15.7317 38.2269 15.6932C38.1884 15.6548 38.1884 15.6548 38.1884 15.6548C38.1884 15.6548 38.1884 15.6163 38.1884 15.501V15.424H38.0346V15.4625C38.0346 15.6163 38.0346 15.7317 37.9961 15.8471V15.8855H38.0346C38.1115 15.924 38.1884 15.924 38.2653 15.9624C38.3422 15.9624 38.4192 16.0009 38.4961 16.0009C38.7268 16.0009 38.9191 15.924 39.0345 15.8086C39.1884 15.6932 39.2268 15.5394 39.2268 15.3471C39.2268 15.2702 39.2268 15.1933 39.1884 15.1164C39.1114 15.001 39.073 14.9626 39.0345 14.9241Z" fill="white"/>
<path d="M39.5366 14.1166C39.4982 14.2704 39.5366 14.3473 39.5366 14.3858V14.578H39.652V14.3858C39.652 14.3089 39.6905 14.3089 39.6905 14.3089C39.6905 14.3089 39.7289 14.3089 39.9981 14.3089H40.0751C40.0751 14.4242 40.0751 14.5396 40.0751 14.6549V15.3471C40.0751 15.501 40.0751 15.6163 40.0751 15.7317C40.0751 15.7701 40.0751 15.8086 40.0366 15.8086C40.0366 15.8086 39.9981 15.8086 39.9597 15.8086H39.8443V15.9624H39.8828C40.0366 15.9624 40.152 15.9624 40.2289 15.9624C40.3058 15.9624 40.4597 15.9624 40.575 15.9624H40.6135V15.7701H40.4981C40.4212 15.7701 40.3827 15.7317 40.3827 15.7317C40.3827 15.7317 40.3827 15.6548 40.3827 15.3087V14.6165C40.3827 14.5011 40.3827 14.3858 40.3827 14.2704H40.4597C40.575 14.2704 40.652 14.2704 40.7673 14.2704C40.8058 14.2704 40.8058 14.2704 40.8058 14.2704C40.8058 14.2704 40.8058 14.2704 40.8058 14.3473V14.5396H40.9212V14.5011C40.9212 14.3858 40.9212 14.2319 40.9596 14.1166V14.0781H40.2674C40.2289 14.1166 39.9981 14.1166 39.5366 14.1166Z" fill="white"/>
<path d="M42.9989 15.7629C42.9604 15.7245 42.9604 15.7629 42.9989 15.7629C42.9604 15.7245 42.922 15.6476 42.8835 15.5707L42.2681 14.1094H42.1528V14.1478C42.1143 14.2247 42.0758 14.3786 41.9605 14.5708L41.6528 15.3399C41.6143 15.4553 41.5374 15.6091 41.4989 15.7245C41.4605 15.7629 41.4605 15.8014 41.4605 15.8014C41.4605 15.8014 41.422 15.8014 41.3836 15.8014H41.3066V15.9552H41.3451C41.422 15.9552 41.5374 15.9552 41.6528 15.9552C41.7297 15.9552 41.8451 15.9552 41.922 15.9552H41.9605V15.7629H41.8066C41.7682 15.7629 41.7297 15.7629 41.7297 15.7629C41.7297 15.7629 41.7297 15.686 41.8066 15.5322L41.8835 15.3399H42.5374L42.6527 15.6476C42.6912 15.7245 42.6912 15.7629 42.6912 15.7629C42.6912 15.7629 42.6912 15.7629 42.6143 15.7629H42.4604V15.8783H42.4989C42.6527 15.8783 42.7681 15.8783 42.845 15.8783C42.922 15.8783 43.0373 15.8783 43.1527 15.8783H43.1912V15.7629H43.1527C43.0373 15.7629 42.9989 15.7629 42.9989 15.7629ZM41.922 15.1477L42.1912 14.4939L42.4604 15.1477H41.922Z" fill="white"/>
<path d="M45.0384 15.6163C44.9615 15.6548 44.8846 15.6932 44.8076 15.7317C44.6923 15.7701 44.6153 15.7701 44.5 15.7701C44.3846 15.7701 44.2692 15.7317 44.1538 15.6548C44.0384 15.5779 43.9615 15.501 43.8846 15.3856C43.8077 15.2702 43.8077 15.1164 43.8077 14.9626C43.8077 14.7319 43.8846 14.578 44 14.4242C44.1154 14.3089 44.2692 14.2319 44.5 14.2319C44.5769 14.2319 44.6538 14.2319 44.7307 14.2704C44.8076 14.3089 44.8846 14.3089 44.923 14.3858V14.6165H45.0384V14.578C45.0384 14.4242 45.0769 14.3089 45.1153 14.2319V14.1935H45.0769C45.0384 14.1935 44.9615 14.155 44.8846 14.155C44.7307 14.1166 44.6153 14.0781 44.5 14.0781C44.2692 14.0781 44.1154 14.1166 43.9615 14.1935C43.8077 14.2704 43.6923 14.3858 43.6154 14.5396C43.5385 14.6934 43.5 14.8472 43.5 15.001C43.5 15.1933 43.5385 15.3471 43.6154 15.4625C43.6923 15.6163 43.8077 15.7317 43.9615 15.8086C44.1154 15.8855 44.2692 15.924 44.5 15.924C44.5769 15.924 44.6923 15.924 44.7692 15.8855C44.8461 15.8471 44.9615 15.8086 45.0384 15.7701C45.0384 15.7317 45.0769 15.6932 45.0769 15.6548L45.0384 15.6163Z" fill="white"/>
<path d="M46.6905 15.4553C46.652 15.5707 46.652 15.6476 46.652 15.7245C46.6135 15.7245 46.5751 15.7629 46.5366 15.7629C46.4597 15.7629 46.4212 15.7629 46.3059 15.7629C46.1905 15.7629 46.0751 15.7629 45.9597 15.7629C45.9597 15.7245 45.9597 15.6476 45.9597 15.5322V15.0707C46.0366 15.0707 46.0751 15.0707 46.152 15.0707C46.3828 15.0707 46.4212 15.0707 46.4597 15.1092C46.4597 15.1092 46.4982 15.1477 46.4982 15.2246V15.3399H46.652V15.3015C46.652 15.1861 46.652 15.1092 46.652 15.0323C46.652 14.9554 46.652 14.8785 46.652 14.7247V14.6862H46.4982V14.8016C46.4982 14.8785 46.4982 14.9169 46.4597 14.9169C46.4597 14.9169 46.4212 14.9169 46.152 14.9169C46.1136 14.9169 46.0366 14.9169 45.9597 14.9169V14.4939C45.9597 14.417 45.9597 14.3401 45.9597 14.3016C46.0751 14.3016 46.152 14.3016 46.2674 14.3016C46.3828 14.3016 46.4982 14.3016 46.5751 14.3401C46.5751 14.3786 46.5751 14.4555 46.5751 14.5324V14.5708H46.7289V14.5324C46.7289 14.3786 46.7289 14.2632 46.7674 14.1478V14.1094H46.7289C46.652 14.1094 46.6135 14.1094 46.5366 14.1094H45.8443C45.8059 14.1094 45.7674 14.1094 45.6905 14.1094H45.5751H45.4213V14.2247H45.5367C45.6136 14.2247 45.6136 14.2247 45.6136 14.2247C45.6136 14.2247 45.6136 14.2247 45.6136 14.2632C45.6136 14.2632 45.6136 14.3017 45.6136 14.3786C45.6136 14.4555 45.6136 14.5324 45.6136 14.6477V15.3399C45.6136 15.5322 45.6136 15.6476 45.6136 15.686C45.6136 15.7629 45.5751 15.7629 45.5751 15.7629C45.5751 15.7629 45.5367 15.7629 45.4597 15.7629H45.3828V15.9168H45.4213C45.5751 15.9168 45.6905 15.9168 45.7674 15.9168C45.8443 15.9168 45.9982 15.9168 46.2289 15.9168H46.4212C46.4982 15.9168 46.6135 15.9168 46.6905 15.9168H46.7289V15.8398C46.7289 15.7629 46.7289 15.6476 46.7674 15.4938V15.4553H46.6905Z" fill="white"/>
<path d="M48.8817 15.7629C48.8432 15.7245 48.8048 15.6476 48.7663 15.5707L48.151 14.1094H48.0356V14.1478C47.9971 14.2247 47.9587 14.3786 47.8433 14.5708L47.5356 15.3399C47.4971 15.4553 47.4202 15.6091 47.3818 15.7245C47.3433 15.7629 47.3433 15.8014 47.3433 15.8014C47.3433 15.8014 47.3048 15.8014 47.2664 15.8014H47.1895V15.9552H47.2279C47.3048 15.9552 47.4202 15.9552 47.5356 15.9552C47.6125 15.9552 47.7279 15.9552 47.8048 15.9552H47.8433V15.7629H47.6894C47.651 15.7629 47.6125 15.7629 47.6125 15.7629C47.6125 15.7629 47.6125 15.686 47.6894 15.5322L47.7664 15.3399H48.4202L48.5356 15.6476C48.574 15.7245 48.574 15.7629 48.574 15.7629C48.574 15.7629 48.574 15.7629 48.4971 15.7629H48.3433V15.8783H48.3817C48.5356 15.8783 48.6509 15.8783 48.7279 15.8783C48.8048 15.8783 48.9202 15.8783 49.0355 15.8783H49.074V15.7629H49.0355C48.9202 15.7629 48.8817 15.7629 48.8817 15.7629ZM47.8048 15.1477L48.074 14.4939L48.3433 15.1477H47.8048Z" fill="white"/>
<path d="M50.9989 14.1094C50.922 14.1094 50.845 14.1094 50.6912 14.1094H50.6527V14.2247H50.7681C50.845 14.2247 50.8835 14.2632 50.8835 14.2632C50.8835 14.2632 50.8835 14.3401 50.8835 14.8016V15.5322C50.8066 15.4553 50.7297 15.3399 50.6143 15.1861L50.2297 14.6862C50.1528 14.5708 50.0758 14.4939 49.9989 14.417C49.922 14.3401 49.8451 14.2247 49.7682 14.1094C49.6912 14.1094 49.6528 14.1094 49.5759 14.1094C49.5374 14.1094 49.4605 14.1094 49.3451 14.1094H49.3066V14.2247H49.422C49.4605 14.2247 49.4605 14.2247 49.4989 14.2247L49.5374 14.2632C49.5374 14.2632 49.5374 14.3016 49.5374 14.3401C49.5374 14.4555 49.5374 14.5708 49.5374 14.6862V15.3015C49.5374 15.4553 49.5374 15.5707 49.5374 15.686C49.5374 15.7245 49.5374 15.7629 49.4989 15.7629C49.4989 15.7629 49.4605 15.7629 49.422 15.7629H49.3066V15.9168H49.3451C49.5374 15.9168 49.6143 15.9168 49.6912 15.9168C49.7682 15.9168 49.8451 15.9168 49.922 15.9168H49.9605V15.7629H49.8451C49.7682 15.7629 49.7682 15.7629 49.7682 15.7245C49.7682 15.7245 49.7682 15.7245 49.7297 15.6476C49.7297 15.5707 49.7297 15.4168 49.7297 15.263V14.4939L50.5374 15.5322C50.6143 15.6476 50.7297 15.7629 50.8066 15.8783C50.8066 15.9168 50.845 15.9168 50.8835 15.9168C50.8835 15.9168 50.922 15.9168 51.0758 15.9552H51.1143V15.9168C51.1143 15.7245 51.1143 15.5322 51.1143 15.3784V14.84C51.1143 14.4555 51.1143 14.3401 51.1143 14.3016C51.1143 14.3016 51.1143 14.2632 51.2296 14.2632H51.345V14.1094H51.3066C51.1527 14.1094 51.0758 14.1094 50.9989 14.1094Z" fill="white"/>
<path d="M53.998 14.2704C53.9211 14.1935 53.8057 14.155 53.6903 14.1166C53.5749 14.0781 53.498 14.0781 53.3826 14.0781H52.8057C52.7673 14.0781 52.6903 14.0781 52.5365 14.0781H52.498V14.2319H52.6134C52.6903 14.2319 52.6903 14.2319 52.6903 14.2319C52.6903 14.2319 52.6903 14.2319 52.6903 14.3089C52.6903 14.4242 52.6903 14.5396 52.6903 14.6934V15.0395C52.6903 15.3471 52.6903 15.5779 52.6903 15.6932L52.575 15.7701V15.8855H52.6134C52.7288 15.8855 52.8057 15.8855 52.8442 15.8855C52.8826 15.8855 52.9596 15.8855 53.1134 15.8855H53.2672C53.5749 15.8855 53.8057 15.8086 53.998 15.6163C54.1903 15.424 54.2672 15.1933 54.2672 14.9241C54.2672 14.7703 54.2287 14.6549 54.1903 14.5396C54.1903 14.4627 54.1134 14.3473 53.998 14.2704ZM53.7672 15.5779C53.6518 15.6932 53.498 15.7317 53.2672 15.7317C53.1903 15.7317 53.1134 15.7317 52.998 15.6932C52.998 15.5779 52.998 15.424 52.998 15.3087V14.5011C52.998 14.4242 52.998 14.3473 52.998 14.2704C53.1134 14.2704 53.1903 14.2319 53.2672 14.2319C53.498 14.2319 53.6518 14.3089 53.7672 14.4242C53.8826 14.5396 53.9595 14.7319 53.9595 14.9626C53.998 15.2318 53.9211 15.4625 53.7672 15.5779Z" fill="white"/>
<path d="M54.7287 14.1094L54.6902 14.2632H54.8056C54.844 14.2632 54.8825 14.2632 54.8825 14.3016C54.8825 14.3016 54.8825 14.417 54.8825 14.84V15.263C54.8825 15.686 54.8825 15.7629 54.844 15.8014C54.844 15.8398 54.7671 15.8398 54.7287 15.8398H54.6133V15.9937H54.6517C54.7671 15.9937 54.8825 15.9937 54.9979 15.9937C55.1133 15.9937 55.2286 15.9937 55.3056 15.9937H55.344V15.7629H55.2286C55.1902 15.7629 55.1517 15.7629 55.1133 15.7245C55.1133 15.7245 55.1133 15.6476 55.1133 15.2246V14.8016C55.1133 14.5708 55.1133 14.417 55.1133 14.3401C55.1133 14.2632 55.1133 14.2632 55.1133 14.2632C55.1133 14.2632 55.1133 14.2632 55.1902 14.2632H55.3056V14.1094H55.2671C55.1902 14.1094 54.9594 14.1094 54.7287 14.1094Z" fill="white"/>
<path d="M57.3836 14.1094C57.3067 14.1094 57.2298 14.1094 57.076 14.1094H57.0375V14.2247H57.1529C57.2298 14.2247 57.2683 14.2632 57.2683 14.2632C57.2683 14.2632 57.2683 14.3786 57.2683 14.8016V15.5322C57.1913 15.4553 57.1144 15.3399 56.999 15.1861L56.6144 14.6862C56.5375 14.5708 56.4606 14.4939 56.3837 14.417C56.3068 14.3401 56.2298 14.2247 56.1529 14.1094C56.076 14.1094 56.0375 14.1094 55.9606 14.1094C55.9222 14.1094 55.8452 14.1094 55.7299 14.1094H55.6914V14.2247H55.8068C55.8452 14.2247 55.8452 14.2247 55.8837 14.2247L55.9222 14.2632C55.9222 14.2632 55.9222 14.3016 55.9222 14.3401C55.9222 14.4555 55.9222 14.5708 55.9222 14.6862V15.3015C55.9222 15.4553 55.9222 15.5707 55.9222 15.686C55.9222 15.7245 55.9222 15.7629 55.8837 15.7629C55.8837 15.7629 55.8452 15.7629 55.8068 15.7629H55.7683V15.9168H55.8068C55.9991 15.9168 56.076 15.9168 56.1529 15.9168C56.2298 15.9168 56.3068 15.9168 56.3837 15.9168H56.4221V15.7629H56.3068C56.2298 15.7629 56.2298 15.7629 56.2298 15.7245C56.2298 15.7245 56.2298 15.7245 56.2298 15.6476C56.2298 15.5707 56.2298 15.4553 56.2298 15.263V14.4939L57.0375 15.5322C57.1144 15.6476 57.2298 15.7629 57.3067 15.8783C57.3067 15.9168 57.3452 15.9168 57.3836 15.9168C57.3836 15.9168 57.4221 15.9168 57.5759 15.9552H57.6144V15.9168C57.6144 15.7245 57.6144 15.5322 57.6144 15.3784V14.84C57.6144 14.4555 57.6144 14.3401 57.6144 14.3016C57.6144 14.3016 57.6144 14.2632 57.7298 14.2632H57.8452V14.1094H57.8067C57.5759 14.1094 57.4606 14.1094 57.3836 14.1094Z" fill="white"/>
<path d="M58.0742 14.1094V14.2247H58.1896C58.2281 14.2247 58.2665 14.2247 58.2665 14.2632C58.2665 14.2632 58.2665 14.3786 58.2665 14.8016V15.2246C58.2665 15.6476 58.2665 15.7245 58.2281 15.7629C58.2281 15.8014 58.1511 15.8014 58.1127 15.8014H58.0742V15.9552H58.1127C58.2281 15.9552 58.3434 15.9552 58.4588 15.9552C58.5742 15.9552 58.6896 15.9552 58.7665 15.9552H58.805V15.7629H58.6896C58.6127 15.7629 58.6127 15.7629 58.5742 15.7245C58.5742 15.7245 58.5742 15.6091 58.5742 15.2246V14.8016C58.5742 14.5708 58.5742 14.417 58.5742 14.3401C58.5742 14.2632 58.5742 14.2632 58.5742 14.2632C58.5742 14.2632 58.5742 14.2632 58.6511 14.2632H58.7665V14.1094H58.728C58.5742 14.1094 58.3434 14.1094 58.0742 14.1094Z" fill="white"/>
<path d="M60.7665 14.1094C60.6895 14.1094 60.6126 14.1094 60.4588 14.1094H60.4203V14.2247H60.5357C60.6126 14.2247 60.6511 14.2632 60.6511 14.2632C60.6511 14.2632 60.6511 14.3401 60.6511 14.8016V15.5322C60.5742 15.4553 60.4972 15.3399 60.3819 15.1861L59.9973 14.6862C59.9203 14.6093 59.8434 14.4939 59.7665 14.417C59.6896 14.3401 59.6127 14.2247 59.5357 14.1094C59.4588 14.1094 59.4204 14.1094 59.3434 14.1094C59.305 14.1094 59.2281 14.1094 59.1127 14.1094H59.0742V14.2247H59.1896C59.2281 14.2247 59.2281 14.2247 59.2665 14.2247L59.305 14.2632C59.305 14.2632 59.305 14.3016 59.305 14.3401C59.305 14.4555 59.305 14.5708 59.305 14.6862V15.3015C59.305 15.4553 59.305 15.5707 59.305 15.686C59.305 15.7245 59.305 15.7629 59.2665 15.7629C59.2665 15.7629 59.2281 15.7629 59.1896 15.7629H59.0742V15.9168H59.1127C59.305 15.9168 59.3819 15.9168 59.4588 15.9168C59.5357 15.9168 59.6127 15.9168 59.6896 15.9168H59.728V15.7629H59.6127C59.5357 15.7629 59.5357 15.7629 59.5357 15.7245C59.5357 15.7245 59.5357 15.7245 59.5357 15.6476C59.5357 15.5707 59.5357 15.4553 59.5357 15.263V14.4939L60.3434 15.5322C60.4588 15.6476 60.5357 15.7629 60.6126 15.8783C60.6126 15.9168 60.6511 15.9168 60.6895 15.9168C60.6895 15.9168 60.728 15.9168 60.8818 15.9552H60.9203V15.9168C60.9203 15.7245 60.9203 15.5322 60.9203 15.3784V14.84C60.9203 14.4555 60.9203 14.3401 60.9203 14.3016C60.9203 14.3016 60.9203 14.2632 61.0357 14.2632H61.1511V14.1094H61.1126C60.9588 14.1094 60.8434 14.1094 60.7665 14.1094Z" fill="white"/>
<path d="M63.1918 15.2702V15.1549H63.1533C63.1149 15.1549 63.0379 15.1549 62.961 15.1549C62.8841 15.1549 62.7303 15.1549 62.5764 15.1549H62.538V15.2702H62.6918C62.7687 15.2702 62.8072 15.2702 62.8072 15.2702C62.8072 15.2702 62.8072 15.3087 62.8072 15.424C62.8072 15.501 62.8072 15.5779 62.8072 15.6163C62.6533 15.6548 62.538 15.6932 62.4226 15.6932C62.1918 15.6932 61.9995 15.6163 61.8841 15.424C61.7688 15.2702 61.6918 15.078 61.6918 14.8857C61.6918 14.655 61.7688 14.4627 61.8841 14.3473C61.9995 14.2319 62.1534 14.155 62.3841 14.155C62.4995 14.155 62.6149 14.155 62.7303 14.1935C62.8456 14.2319 62.8841 14.2704 62.9226 14.2704C62.9226 14.2704 62.9226 14.3089 62.9226 14.3858V14.6165H63.0379V14.578C63.0379 14.4242 63.0764 14.3089 63.0764 14.2319V14.1935L62.961 14.155C62.8456 14.1166 62.7303 14.0781 62.6533 14.0781C62.5764 14.0781 62.4995 14.0781 62.3841 14.0781C62.1534 14.0781 61.9611 14.1166 61.8072 14.1935C61.6534 14.2704 61.538 14.3858 61.4611 14.5396C61.3842 14.6934 61.3457 14.8472 61.3457 15.0395C61.3457 15.2318 61.3842 15.3856 61.4611 15.501C61.538 15.6548 61.6534 15.7701 61.8072 15.8471C61.9611 15.924 62.1149 15.9624 62.3072 15.9624C62.4226 15.9624 62.538 15.9624 62.6918 15.924C62.8072 15.8855 62.961 15.8471 63.0379 15.8086H63.0764V15.7701C63.0764 15.6932 63.0764 15.5779 63.0764 15.501C63.0764 15.424 63.0764 15.3856 63.0764 15.3087L63.1918 15.2702Z" fill="white"/>
</svg>
