<svg width="148" height="43" viewBox="0 0 148 43" fill="none" xmlns="http://www.w3.org/2000/svg">
<path d="M9.7 37.6023C9.7 37.2023 9.6 37.1023 9.1 37.1023H8.4V41.6023C8.4 41.9023 8.5 42.0023 8.8 42.0023H9.4V42.5023H6.2V42.0023H6.8C7.1 42.0023 7.2 41.9023 7.2 41.6023V37.1023H6.5C6 37.1023 5.9 37.2023 5.9 37.6023V38.3023H5V36.4023H10.6V38.3023H9.7V37.6023Z" fill="white"/>
<path d="M15.6 36.5H18.6V37H18C17.7 37 17.6 37.1 17.6 37.4V41.6C17.6 41.9 17.7 42 18 42H18.6V42.5H15.6V42H16.1C16.4 42 16.5 41.9 16.5 41.6V39.7H14.2V41.6C14.2 41.9 14.3 42 14.6 42H15V42.5H12V42H12.6C12.9 42 13 41.9 13 41.6V37.4C13 37.1 12.9 37 12.6 37H12V36.5H15V37H14.5C14.2 37 14.1 37.1 14.1 37.4V39.1H16.4V37.4C16.4 37.1 16.3 37 16 37H15.5V36.5H15.6Z" fill="white"/>
<path d="M20.0996 36.5H25.2996V38H24.4996C24.4996 37.1 24.3996 37.1 23.7996 37.1H22.1996V39.1H22.9996C23.3996 39.1 23.4996 39 23.4996 38.3H24.1996V40.5H23.4996C23.4996 39.8 23.3996 39.7 22.9996 39.7H22.1996V41.9H23.7996C24.5996 41.9 24.5996 41.9 24.6996 40.9H25.4996V42.5H20.1996V42H20.7996C21.0996 42 21.1996 41.9 21.1996 41.6V37.4C20.9996 37 20.9996 37 20.6996 37H20.0996V36.5Z" fill="white"/>
<path d="M33.9004 39.8008H36.7004V40.3008H36.4004C36.1004 40.3008 36.0004 40.4008 36.0004 40.7008V42.2008C35.4004 42.4008 34.5004 42.6008 33.9004 42.6008C32.0004 42.6008 30.9004 41.7008 30.9004 39.6008C30.9004 37.7008 31.8004 36.3008 34.1004 36.3008C34.8004 36.3008 35.4004 36.4008 36.0004 36.6008V38.2008H35.0004C35.0004 37.2008 34.8004 36.9008 34.0004 36.9008C32.8004 36.9008 32.1004 37.5008 32.1004 39.6008C32.1004 41.5008 32.8004 42.0008 34.0004 42.0008C34.3004 42.0008 34.6004 41.9008 34.9004 41.8008V40.7008C34.9004 40.4008 34.8004 40.3008 34.5004 40.3008H33.9004V39.8008Z" fill="white"/>
<path d="M38 36.5H41C42.3 36.5 43 37 43 38C43 38.9 42.4 39.3 41.6 39.5C42.4 39.6 42.6 39.9 42.9 40.9C43.3 42 43.4 42.1 43.7 42.1H44V42.6H42.4C41.5 39.9 41.3 39.9 40.5 39.9H40.1V41.7C40.1 42 40.2 42.1 40.5 42.1H41V42.6H38V42.1H38.6C38.9 42.1 39 42 39 41.7V37.5C39 37.2 38.9 37.1 38.6 37.1H38V36.5ZM40.1 39.1H40.4C41.2 39.1 41.8 38.7 41.8 38C41.8 37.4 41.3 37.1 40.8 37.1H40.1V39.1Z" fill="white"/>
<path d="M45.5 36.5H50.7V38H49.9C49.9 37.1 49.8 37.1 49.2 37.1H47.6V39.1H48.4C48.8 39.1 48.9 39 48.9 38.3H49.6V40.5H48.9C48.9 39.8 48.8 39.7 48.4 39.7H47.6V41.9H49.2C50 41.9 50 41.9 50.1 40.9H50.9V42.5H45.6V42H46.2C46.5 42 46.6 41.9 46.6 41.6V37.4C46.6 37.1 46.5 37 46.2 37H45.6V36.5H45.5Z" fill="white"/>
<path d="M56.0004 41.9023H56.4004C56.7004 41.9023 56.9004 41.9023 56.9004 41.7023C56.9004 41.6023 56.9004 41.5023 56.5004 40.6023H54.3004C54.0004 41.6023 53.9004 41.7023 53.9004 41.8023C53.9004 41.9023 54.0004 41.9023 54.1004 41.9023H54.6004V42.4023H52.4004V41.9023C52.8004 41.9023 52.9004 41.8023 53.0004 41.6023L54.9004 36.4023H56.1004L57.9004 41.4023C58.1004 41.8023 58.2004 41.9023 58.7004 41.9023V42.4023H56.0004V41.9023ZM55.4004 37.3023L54.5004 40.0023H56.3004L55.4004 37.3023Z" fill="white"/>
<path d="M63.9008 37.6023C63.9008 37.2023 63.8008 37.1023 63.3008 37.1023H62.6008V41.6023C62.6008 41.9023 62.7008 42.0023 63.0008 42.0023H63.6008V42.5023H60.5008V42.0023H61.1008C61.4008 42.0023 61.5008 41.9023 61.5008 41.6023V37.1023H60.8008C60.3008 37.1023 60.2008 37.2023 60.2008 37.6023V38.3023H59.3008V36.4023H64.9008V38.3023H64.0008V37.6023H63.9008Z" fill="white"/>
<path d="M72.9 36.5H75.3V37H75C74.8 37 74.7 37.1 74.6 37.4L72.8 42.5H71.6L69.9 37.4C69.8 37.1 69.7 37 69.4 37H69V36.5H71.8V37H71.3C71 37 70.9 37 70.9 37.1C70.9 37.2 70.9 37.3 70.9 37.4L72.2 41.4L73.5 37.5C73.5 37.4 73.6 37.3 73.6 37.2C73.6 37.1 73.5 37.1 73.4 37.1H72.8V36.5H72.9Z" fill="white"/>
<path d="M76.3008 36.5H79.4008V37H78.8008C78.5008 37 78.4008 37.1 78.4008 37.4V41.6C78.4008 41.9 78.5008 42 78.8008 42H79.4008V42.5H76.3008V42H76.9008C77.2008 42 77.3008 41.9 77.3008 41.6V37.4C77.3008 37.1 77.2008 37 76.9008 37H76.3008V36.5Z" fill="white"/>
<path d="M80.4004 36.5H83.3004V37H82.9004C82.6004 37 82.5004 37.1 82.5004 37.4V41.6C82.5004 41.9 82.6004 42 82.9004 42H83.3004V42.5H80.5004V42H81.0004C81.3004 42 81.4004 41.9 81.4004 41.6V37.4C81.4004 37.1 81.3004 37 81.0004 37H80.4004V36.5ZM84.2004 37.4C84.3004 37.3 84.4004 37.2 84.4004 37.1C84.4004 37 84.3004 37 84.2004 37H83.9004V36.5H86.3004V37H86.0004C85.7004 37 85.7004 37 85.5004 37.2L83.8004 39.1L85.7004 41.6C85.9004 41.9 86.1004 41.9 86.2004 41.9H86.6004V42.4H83.8004V41.9H84.0004C84.2004 41.9 84.3004 41.9 84.3004 41.7C84.3004 41.6 84.2004 41.5 84.1004 41.3L82.5004 39.2L84.2004 37.4Z" fill="white"/>
<path d="M87.1992 36.5H90.2992V37H89.6992C89.3992 37 89.2992 37.1 89.2992 37.4V41.6C89.2992 41.9 89.3992 42 89.6992 42H90.2992V42.5H87.1992V42H87.7992C88.0992 42 88.1992 41.9 88.1992 41.6V37.4C88.1992 37.1 88.0992 37 87.7992 37H87.1992V36.5Z" fill="white"/>
<path d="M96.5992 37.3023C96.5992 37.0023 96.4992 36.9023 96.1992 36.9023H95.5992V36.4023H98.2992V37.0023H97.7992C97.4992 37.0023 97.3992 37.1023 97.3992 37.4023V42.5023H96.1992L93.3992 37.4023V41.6023C93.3992 41.9023 93.4992 42.0023 93.7992 42.0023H94.3992V42.5023H91.6992V42.0023H92.2992C92.5992 42.0023 92.6992 41.9023 92.6992 41.6023V37.4023C92.6992 37.1023 92.5992 37.0023 92.2992 37.0023H91.6992V36.5023H94.2992L96.6992 41.0023V37.3023H96.5992Z" fill="white"/>
<path d="M102.9 39.8008H105.7V40.3008H105.4C105.1 40.3008 105 40.4008 105 40.7008V42.2008C104.4 42.4008 103.5 42.6008 102.9 42.6008C101 42.6008 99.9004 41.7008 99.9004 39.6008C99.9004 37.7008 100.8 36.3008 103.1 36.3008C103.8 36.3008 104.4 36.4008 105 36.6008V38.2008H104C104 37.2008 103.8 36.9008 103 36.9008C101.8 36.9008 101.1 37.5008 101.1 39.6008C101.1 41.5008 101.8 42.0008 103 42.0008C103.3 42.0008 103.6 41.9008 103.9 41.8008V40.7008C103.9 40.4008 103.8 40.3008 103.5 40.3008H102.9V39.8008Z" fill="white"/>
<path d="M113.799 41.9023H114.199C114.499 41.9023 114.699 41.9023 114.699 41.7023C114.699 41.6023 114.699 41.5023 114.299 40.6023H112.099C111.799 41.6023 111.699 41.7023 111.699 41.8023C111.699 41.9023 111.799 41.9023 111.899 41.9023H112.399V42.4023H110.199V41.9023C110.599 41.9023 110.699 41.8023 110.799 41.6023L112.699 36.4023H113.899L115.699 41.4023C115.899 41.8023 115.999 41.9023 116.499 41.9023V42.4023H113.799V41.9023ZM113.199 37.3023L112.299 40.0023H114.099L113.199 37.3023Z" fill="white"/>
<path d="M120.6 39.8008H123.4V40.3008H123C122.7 40.3008 122.6 40.4008 122.6 40.7008V42.2008C122 42.4008 121.1 42.6008 120.5 42.6008C118.6 42.6008 117.5 41.7008 117.5 39.6008C117.5 37.7008 118.4 36.3008 120.7 36.3008C121.4 36.3008 122 36.4008 122.6 36.6008V38.2008H121.7C121.7 37.2008 121.5 36.9008 120.7 36.9008C119.5 36.9008 118.8 37.5008 118.8 39.6008C118.8 41.5008 119.5 42.0008 120.7 42.0008C121 42.0008 121.3 41.9008 121.6 41.8008V40.7008C121.6 40.4008 121.5 40.3008 121.2 40.3008H120.6V39.8008Z" fill="white"/>
<path d="M127.901 41.9023H128.301C128.601 41.9023 128.801 41.9023 128.801 41.7023C128.801 41.6023 128.801 41.5023 128.401 40.6023H126.201C125.901 41.6023 125.801 41.7023 125.801 41.8023C125.801 41.9023 125.901 41.9023 126.001 41.9023H126.501V42.4023H124.301V41.9023C124.701 41.9023 124.801 41.8023 124.901 41.6023L126.801 36.4023H128.001L129.801 41.4023C130.001 41.8023 130.101 41.9023 130.601 41.9023V42.4023H127.901V41.9023ZM127.301 37.3023L126.401 40.0023H128.201L127.301 37.3023Z" fill="white"/>
<path d="M131.801 36.5H134.901V37H134.301C134.001 37 133.901 37.1 133.901 37.4V41.6C133.901 41.9 134.001 42 134.301 42H134.901V42.5H131.801V42H132.401C132.701 42 132.801 41.9 132.801 41.6V37.4C132.801 37.1 132.701 37 132.401 37H131.801V36.5Z" fill="white"/>
<path d="M141.4 37.3023C141.4 37.0023 141.3 36.9023 141 36.9023H140.4V36.4023H143.1V37.0023H142.6C142.3 37.0023 142.2 37.1023 142.2 37.4023V42.5023H141L138.2 37.4023V41.6023C138.2 41.9023 138.3 42.0023 138.6 42.0023H139.2V42.5023H136.5V42.0023H137.1C137.4 42.0023 137.5 41.9023 137.5 41.6023V37.4023C137.5 37.1023 137.4 37.0023 137.1 37.0023H136.5V36.5023H139.1L141.5 41.0023V37.3023H141.4Z" fill="white"/>
<path d="M146.8 41.1008C147.3 41.1008 147.5 41.4008 147.5 41.9008C147.5 42.3008 147.3 42.7008 146.8 42.7008C146.3 42.7008 146.1 42.4008 146.1 41.9008C146.1 41.4008 146.4 41.1008 146.8 41.1008ZM146.4 40.6008C146.3 38.8008 146.2 37.5008 146.2 36.9008C146.2 36.5008 146.3 36.3008 146.8 36.3008C147.3 36.3008 147.4 36.5008 147.4 36.9008C147.4 37.5008 147.3 38.9008 147.2 40.6008H146.4Z" fill="white"/>
<path d="M33.0996 0.703125H41.9996V30.6031H33.0996V0.703125Z" fill="white"/>
<path d="M21.4 0.703125L15.4 21.6031L9.3 0.703125H0L10 30.6031H12H18.7H20.8L30.8 0.703125H21.4Z" fill="white"/>
<path d="M77.8008 0.703125H86.7008V30.6031H77.8008V0.703125Z" fill="white"/>
<path d="M92 0.703125H101.1L109.5 16.7031H109.6V0.703125H118V30.6031H109.4L100.6 14.3031H100.5V30.6031H92V0.703125Z" fill="white"/>
<path d="M76.6992 30.6031L63.7992 13.9031L74.9992 0.703125H64.0992L56.0992 10.7031V0.703125H47.1992V30.6031H56.0992V17.8031L65.7992 30.6031H76.6992Z" fill="white"/>
<path d="M136.299 20.6016H140.199C139.699 23.1016 136.899 24.3016 134.399 23.8016C130.199 23.0016 129.099 19.1016 129.099 15.7016C129.099 11.1016 130.699 7.50163 134.699 7.50163C137.099 7.50163 138.699 8.80163 139.099 11.2016L147.799 10.6016C146.699 4.40164 142.199 -0.0983658 134.499 0.00163418C125.499 0.00163418 120.199 7.00163 120.199 15.7016C120.199 24.0016 125.299 31.4016 134.299 31.4016C137.299 31.4016 139.799 30.2016 141.599 28.5016V30.7016H147.999V14.2016H136.199V20.6016H136.299Z" fill="white"/>
</svg>
