<svg width="54" height="16" viewBox="0 0 54 16" fill="none" xmlns="http://www.w3.org/2000/svg">
<path d="M1.83984 15.6627V15.5666C1.88789 15.5666 1.88789 15.5666 1.93594 15.5666C1.93594 15.5666 1.98399 15.5666 1.98399 15.5185L2.03204 15.4704C2.03204 15.4704 2.03204 15.4224 2.03204 15.3743V14.3172C1.98399 14.2692 1.98399 14.2692 1.93594 14.2692C1.88789 14.2692 1.88789 14.2692 1.83984 14.2211V14.125H2.27228L3.0891 15.1821V14.4133C3.0891 14.3653 3.0891 14.3653 3.0891 14.3172C3.0891 14.3172 3.0891 14.2692 3.04105 14.2692C3.04105 14.2692 2.993 14.2692 2.993 14.2211C2.993 14.2211 2.94495 14.2211 2.8969 14.2211V14.125H3.42544V14.2211C3.37739 14.2211 3.37739 14.2211 3.32934 14.2211C3.28129 14.2211 3.28129 14.2211 3.28129 14.2692L3.23324 14.3172C3.23324 14.3172 3.23324 14.3653 3.23324 14.4133V15.7107H3.13715L2.17618 14.5094V15.4224C2.17618 15.4704 2.17618 15.4705 2.17618 15.5185C2.17618 15.5185 2.17618 15.5666 2.22423 15.5666L2.27228 15.6146C2.32033 15.6146 2.32033 15.6146 2.36837 15.6146V15.7107H1.83984V15.6627Z" fill="white"/>
<path d="M5.77895 14.8938C5.77895 15.038 5.77895 15.1341 5.7309 15.2302C5.68285 15.3263 5.63481 15.4224 5.53871 15.4704C5.44261 15.5185 5.39457 15.6146 5.29847 15.6146C5.20237 15.6627 5.10628 15.6627 4.96213 15.6627C4.86603 15.6627 4.72189 15.6627 4.62579 15.6146C4.5297 15.5666 4.4336 15.5185 4.38555 15.4704C4.3375 15.4224 4.28946 15.3263 4.24141 15.2302C4.19336 15.1341 4.19336 15.038 4.19336 14.8938C4.19336 14.7497 4.19336 14.6536 4.24141 14.5575C4.28946 14.4614 4.3375 14.3653 4.38555 14.3172C4.48165 14.2692 4.5297 14.1731 4.62579 14.1731C4.72189 14.125 4.81799 14.125 4.96213 14.125C5.05823 14.125 5.20237 14.125 5.29847 14.1731C5.39457 14.2211 5.49066 14.2692 5.53871 14.3172C5.63481 14.3653 5.68285 14.4614 5.7309 14.5575C5.77895 14.6536 5.77895 14.7977 5.77895 14.8938ZM5.44261 14.8938C5.44261 14.7977 5.44261 14.7016 5.39457 14.6055C5.39457 14.5094 5.34652 14.4614 5.29847 14.4133C5.25042 14.3653 5.20237 14.3172 5.15432 14.2692C5.10628 14.2211 5.05823 14.2211 4.96213 14.2211C4.91408 14.2211 4.81799 14.2211 4.76994 14.2692C4.72189 14.3172 4.67384 14.3172 4.62579 14.4133C4.57775 14.4614 4.5297 14.5575 4.5297 14.6055C4.48165 14.7016 4.48165 14.7977 4.48165 14.8938C4.48165 14.9899 4.48165 15.086 4.5297 15.1821C4.57775 15.2782 4.57775 15.3263 4.62579 15.3743C4.67384 15.4224 4.72189 15.4705 4.76994 15.5185C4.81799 15.5666 4.86603 15.5666 4.96213 15.5666C5.01018 15.5666 5.10628 15.5666 5.15432 15.5185C5.20237 15.4705 5.25042 15.4224 5.29847 15.3743C5.34652 15.3263 5.39457 15.2302 5.39457 15.1821C5.44261 15.1341 5.44261 14.9899 5.44261 14.8938Z" fill="white"/>
<path d="M7.55706 15.6638L7.12463 14.9911H7.02853V15.3755C7.02853 15.4236 7.02853 15.4236 7.02853 15.4716C7.02853 15.4716 7.02853 15.5197 7.07658 15.5197L7.12463 15.5677C7.17268 15.5677 7.17268 15.5677 7.22072 15.5677V15.6638H6.5V15.5677C6.54805 15.5677 6.54805 15.5677 6.5961 15.5677C6.5961 15.5677 6.64414 15.5677 6.64414 15.5197L6.69219 15.4716C6.69219 15.4716 6.69219 15.4236 6.69219 15.3755V14.3664C6.69219 14.3184 6.69219 14.3184 6.69219 14.2703C6.69219 14.2703 6.69219 14.2223 6.64414 14.2223C6.64414 14.2223 6.5961 14.2223 6.5961 14.1742C6.5961 14.1742 6.54805 14.1742 6.5 14.1742V14.0781H7.31682C7.41292 14.0781 7.46096 14.0781 7.55706 14.1262C7.60511 14.1262 7.70121 14.1742 7.74925 14.2223C7.7973 14.2703 7.84535 14.3184 7.84535 14.3664C7.84535 14.4145 7.8934 14.4625 7.8934 14.5586C7.8934 14.6547 7.84535 14.7508 7.7973 14.847C7.74925 14.9431 7.65316 14.9911 7.50901 14.9911L7.7973 15.4716C7.7973 15.5197 7.84535 15.5197 7.8934 15.5677C7.94145 15.5677 7.94145 15.6158 7.9895 15.6158V15.7119H7.55706V15.6638ZM7.50901 14.5586C7.50901 14.4625 7.46096 14.3664 7.41292 14.3184C7.36487 14.2703 7.31682 14.2223 7.22072 14.2223H7.02853V14.847H7.22072C7.31682 14.847 7.36487 14.7989 7.41292 14.7508C7.46096 14.7508 7.50901 14.6547 7.50901 14.5586Z" fill="white"/>
<path d="M8.99884 15.6615V15.5654C9.04689 15.5654 9.04689 15.5654 9.09494 15.5654C9.09494 15.5654 9.14299 15.5654 9.14299 15.5173L9.19103 15.4693C9.19103 15.4693 9.19103 15.4212 9.19103 15.3732V15.0368L8.80665 14.4121C8.7586 14.3641 8.7586 14.316 8.71055 14.316C8.6625 14.268 8.61445 14.268 8.56641 14.268V14.1719H9.28713V14.268C9.23908 14.268 9.19103 14.268 9.19103 14.316C9.19103 14.316 9.19103 14.3641 9.23908 14.4121L9.52737 14.8927L9.86371 14.4121C9.91176 14.3641 9.91176 14.3641 9.86371 14.316C9.86371 14.316 9.81566 14.268 9.71956 14.268V14.1719H10.3442V14.268C10.2961 14.268 10.2481 14.268 10.2 14.268C10.152 14.268 10.152 14.268 10.104 14.268C10.0559 14.268 10.0559 14.268 10.0559 14.316L10.0079 14.3641L9.57542 14.9888V15.3732C9.57542 15.4212 9.57542 15.4212 9.57542 15.4693C9.57542 15.4693 9.57542 15.5173 9.62347 15.5173L9.67152 15.5654C9.67152 15.5654 9.71956 15.5654 9.76761 15.5654V15.6615H8.99884Z" fill="white"/>
<path d="M11.1602 15.2314L11.0641 15.4236C11.0641 15.4716 11.0641 15.5197 11.0641 15.5197C11.1121 15.5197 11.1602 15.5677 11.2082 15.5677V15.6638H10.6797V15.5677H10.7277C10.7277 15.5677 10.7758 15.5677 10.7758 15.5197L10.8238 15.4716C10.8238 15.4716 10.8719 15.4236 10.8719 15.3755L11.3524 14.0781H11.5926L12.0731 15.3755C12.0731 15.4236 12.1211 15.4716 12.1692 15.5197C12.2172 15.5677 12.2653 15.5677 12.3133 15.5677V15.6638H11.6407V15.5677C11.6887 15.5677 11.7367 15.5197 11.7848 15.5197C11.7848 15.4716 11.7848 15.4716 11.7848 15.4236L11.7367 15.2794H11.1602V15.2314ZM11.6887 15.0872L11.4485 14.4625L11.2082 15.1353H11.6887V15.0872Z" fill="white"/>
<path d="M13.0352 15.6627V15.5666C13.0832 15.5666 13.0832 15.5666 13.1313 15.5666C13.1793 15.5666 13.1793 15.5666 13.1793 15.5185L13.2273 15.4704C13.2273 15.4704 13.2273 15.4224 13.2273 15.3743V14.3172C13.1793 14.2692 13.1793 14.2692 13.1313 14.2692C13.0832 14.2692 13.0832 14.2692 13.0352 14.2211V14.125H13.4676L14.2844 15.1821V14.4133C14.2844 14.3653 14.2844 14.3653 14.2844 14.3172C14.2844 14.3172 14.2844 14.2692 14.2364 14.2692C14.2364 14.2692 14.1883 14.2692 14.1883 14.2211C14.1403 14.2211 14.1403 14.2211 14.0922 14.2211V14.125H14.6207V14.2211C14.5727 14.2211 14.5727 14.2211 14.5247 14.2211C14.5247 14.2211 14.4766 14.2211 14.4766 14.2692L14.4286 14.3172C14.4286 14.3172 14.4286 14.3653 14.4286 14.4133V15.7107H14.2844L13.3234 14.5094V15.4224C13.3234 15.4704 13.3234 15.4705 13.3234 15.5185C13.3234 15.5185 13.3234 15.5666 13.3715 15.5666L13.4195 15.6146C13.4195 15.6146 13.4676 15.6146 13.5156 15.6146V15.7107H13.0352V15.6627Z" fill="white"/>
<path d="M16.8301 15.0368C16.7821 15.0849 16.7821 15.0849 16.7821 15.1329C16.7821 15.1329 16.7821 15.181 16.7821 15.229V15.5654C16.734 15.6134 16.686 15.6134 16.6379 15.6615C16.5899 15.6615 16.5418 15.7095 16.4938 15.7095C16.4457 15.7095 16.3977 15.7576 16.3016 15.7576C16.2535 15.7576 16.1574 15.7576 16.1094 15.7576C16.0133 15.7576 15.9172 15.7576 15.8211 15.7095C15.725 15.6615 15.6289 15.6134 15.5809 15.5173C15.5328 15.4212 15.4848 15.3732 15.4367 15.2771C15.3887 15.181 15.3887 15.0849 15.3887 14.9407C15.3887 14.8446 15.3887 14.7004 15.4367 14.6043C15.4848 14.5082 15.5328 14.4121 15.5809 14.3641C15.6289 14.316 15.725 14.2199 15.8211 14.2199C15.9172 14.1719 16.0133 14.1719 16.1094 14.1719C16.1574 14.1719 16.2055 14.1719 16.2535 14.1719C16.3016 14.1719 16.3496 14.2199 16.3496 14.2199C16.3977 14.2199 16.3977 14.268 16.4457 14.268C16.4938 14.268 16.4938 14.268 16.4938 14.268H16.5418C16.5418 14.268 16.5899 14.2199 16.5899 14.1719H16.686V14.7004H16.5899C16.5899 14.6524 16.5418 14.6043 16.4938 14.5563C16.4457 14.5082 16.4457 14.4602 16.3977 14.4121C16.3496 14.3641 16.3016 14.3641 16.2535 14.316C16.2055 14.316 16.1574 14.268 16.0613 14.268C16.0133 14.268 15.9653 14.268 15.8692 14.316C15.8211 14.3641 15.7731 14.4121 15.725 14.4602C15.677 14.5082 15.677 14.6043 15.6289 14.6524C15.6289 14.7485 15.5809 14.8446 15.5809 14.9407C15.5809 15.1329 15.6289 15.3251 15.677 15.4212C15.7731 15.5173 15.8692 15.6134 16.0133 15.6134C16.0613 15.6134 16.1094 15.6134 16.2055 15.6134C16.2535 15.6134 16.3016 15.6134 16.3496 15.5654V15.229C16.3496 15.181 16.3496 15.181 16.3496 15.1329C16.3496 15.1329 16.3496 15.0849 16.3016 15.0849C16.3016 15.0849 16.2535 15.0849 16.2535 15.0368C16.2535 15.0368 16.2055 15.0368 16.1574 15.0368V14.9407H16.8301V15.0368C16.8782 15.0368 16.8782 15.0368 16.8301 15.0368Z" fill="white"/>
<path d="M18.3199 14.2692C18.3199 14.2692 18.2719 14.2692 18.2719 14.3172L18.2239 14.3653C18.2239 14.3653 18.2239 14.4133 18.2239 14.4614V15.4224C18.2239 15.5185 18.2238 15.5666 18.1758 15.6627C18.1278 15.7107 18.0797 15.8068 18.0317 15.8549C17.9836 15.9029 17.8875 15.951 17.7914 15.951C17.6953 15.999 17.5992 15.999 17.5031 15.999L17.4551 15.8549C17.5992 15.8549 17.6953 15.8068 17.7434 15.7107C17.7914 15.6146 17.8395 15.5185 17.8395 15.4224V14.4133C17.8395 14.3653 17.8395 14.3653 17.8395 14.3172C17.8395 14.3172 17.8395 14.2692 17.7914 14.2692C17.7914 14.2692 17.7434 14.2692 17.7434 14.2211C17.7434 14.2211 17.6953 14.2211 17.6473 14.2211V14.125H18.368V14.2211C18.368 14.2211 18.368 14.2211 18.3199 14.2692Z" fill="white"/>
<path d="M19.0898 15.6638V15.5677C19.1379 15.5677 19.1379 15.5677 19.1859 15.5677C19.1859 15.5677 19.234 15.5677 19.234 15.5197L19.282 15.4716C19.282 15.4716 19.282 15.4236 19.282 15.3755V14.3664C19.282 14.3184 19.282 14.3184 19.282 14.2703C19.282 14.2703 19.282 14.2223 19.234 14.2223C19.234 14.2223 19.1859 14.2223 19.1859 14.1742C19.1379 14.1742 19.1379 14.1742 19.0898 14.1742V14.0781H19.8106V14.1742C19.7625 14.1742 19.7625 14.1742 19.7145 14.1742C19.7145 14.1742 19.6664 14.1742 19.6664 14.2223L19.6184 14.2703C19.6184 14.2703 19.6184 14.3184 19.6184 14.3664V15.3755C19.6184 15.4236 19.6184 15.4236 19.6184 15.4716C19.6184 15.4716 19.6184 15.5197 19.6664 15.5197L19.7145 15.5677C19.7145 15.5677 19.7625 15.5677 19.8106 15.5677V15.6638H19.0898Z" fill="white"/>
<path d="M20.4824 15.6627V15.5666C20.5305 15.5666 20.5305 15.5666 20.5785 15.5666C20.6266 15.5666 20.6266 15.5666 20.6266 15.5185L20.6746 15.4704C20.6746 15.4704 20.6746 15.4224 20.6746 15.3743V14.3172C20.6266 14.2692 20.6266 14.2692 20.5785 14.2692C20.5305 14.2692 20.5305 14.2692 20.4824 14.2211V14.125H20.9149L21.7317 15.1821V14.4133C21.7317 14.3653 21.7317 14.3653 21.7317 14.3172C21.7317 14.3172 21.7317 14.2692 21.6836 14.2692C21.6836 14.2692 21.6356 14.2692 21.6356 14.2211C21.5875 14.2211 21.5875 14.2211 21.5395 14.2211V14.125H22.1161V14.2211C22.068 14.2211 22.068 14.2211 22.02 14.2211C21.9719 14.2211 21.9719 14.2211 21.9719 14.2692L21.9239 14.3172C21.9239 14.3172 21.9239 14.3653 21.9239 14.4133V15.7107H21.7797L20.8188 14.5094V15.4224C20.8188 15.4704 20.8188 15.4705 20.8188 15.5185C20.8188 15.5185 20.8188 15.5666 20.8668 15.5666L20.9149 15.6146C20.9629 15.6146 20.9629 15.6146 21.011 15.6146V15.7107H20.4824V15.6627Z" fill="white"/>
<path d="M25.5282 14.8938C25.5282 15.038 25.5282 15.1341 25.4801 15.2302C25.4321 15.3263 25.384 15.4224 25.2879 15.4704C25.1918 15.5185 25.1438 15.6146 25.0477 15.6146C24.9516 15.6627 24.8555 15.6627 24.7114 15.6627C24.6153 15.6627 24.4711 15.6627 24.375 15.6146C24.2789 15.5666 24.1828 15.5185 24.1348 15.4704C24.0867 15.3743 23.9906 15.3263 23.9426 15.2302C23.8945 15.1341 23.8945 15.038 23.8945 14.8938C23.8945 14.7497 23.8945 14.6536 23.9426 14.5575C23.9906 14.4614 24.0387 14.3653 24.1348 14.3172C24.1828 14.2692 24.2789 14.1731 24.375 14.1731C24.4711 14.125 24.5672 14.125 24.7114 14.125C24.8074 14.125 24.9516 14.125 25.0477 14.1731C25.1438 14.2211 25.2399 14.2692 25.2879 14.3172C25.336 14.3653 25.4321 14.4614 25.4801 14.5575C25.4801 14.6536 25.5282 14.7977 25.5282 14.8938ZM25.1918 14.8938C25.1918 14.7977 25.1918 14.7016 25.1438 14.6055C25.1438 14.5094 25.0957 14.4614 25.0477 14.4133C24.9996 14.3653 24.9516 14.3172 24.9035 14.2692C24.8555 14.2211 24.8074 14.2211 24.7114 14.2211C24.6633 14.2211 24.5672 14.2211 24.5192 14.2692C24.4711 14.3172 24.4231 14.3172 24.375 14.4133C24.327 14.4614 24.2789 14.5575 24.2789 14.6055C24.2789 14.7016 24.2309 14.7977 24.2309 14.8938C24.2309 14.9899 24.2309 15.086 24.2789 15.1821C24.327 15.2782 24.327 15.3263 24.375 15.3743C24.4231 15.4224 24.4711 15.4705 24.5192 15.5185C24.5672 15.5666 24.6153 15.5666 24.7114 15.5666C24.7594 15.5666 24.8555 15.5666 24.9035 15.5185C24.9516 15.4705 24.9996 15.4224 25.0477 15.3743C25.0957 15.3263 25.1438 15.2302 25.1438 15.1821C25.1438 15.1341 25.1918 14.9899 25.1918 14.8938Z" fill="white"/>
<path d="M27.5465 15.6627V15.5666C27.5946 15.5666 27.5946 15.5666 27.6426 15.5666C27.6426 15.5666 27.6907 15.5666 27.6907 15.5185L27.7387 15.4704C27.7387 15.4704 27.7387 15.4224 27.7387 15.3743V14.4133L27.3063 15.6146H27.1141L26.5375 14.4614V15.4224C26.5375 15.4704 26.5375 15.4705 26.5375 15.5185C26.5375 15.5185 26.5375 15.5666 26.5856 15.5666L26.6336 15.6146C26.6817 15.6146 26.6817 15.6146 26.7297 15.6146V15.7107H26.2012V15.6146C26.2492 15.6146 26.2492 15.6146 26.2973 15.6146C26.2973 15.6146 26.3453 15.6146 26.3453 15.5666L26.3934 15.5185C26.3934 15.5185 26.3934 15.4704 26.3934 15.4224V14.4133C26.3934 14.3653 26.3934 14.3653 26.3934 14.3172C26.3934 14.3172 26.3934 14.2692 26.3453 14.2692C26.3453 14.2692 26.2973 14.2692 26.2973 14.2211C26.2973 14.2211 26.2492 14.2211 26.2012 14.2211V14.125H26.7297L27.2582 15.3263L27.6907 14.125H28.2672V14.2211C28.2192 14.2211 28.2192 14.2211 28.1711 14.2211C28.1231 14.2211 28.1231 14.2211 28.1231 14.2692L28.0751 14.3172C28.0751 14.3172 28.0751 14.3653 28.0751 14.4133V15.4224C28.0751 15.4704 28.0751 15.4705 28.0751 15.5185C28.0751 15.5185 28.0751 15.5666 28.1231 15.5666L28.1711 15.6146C28.2192 15.6146 28.2192 15.6146 28.2672 15.6146V15.7107H27.5465V15.6627Z" fill="white"/>
<path d="M29.3223 15.2314L29.2262 15.4236C29.2262 15.4716 29.2262 15.5197 29.2262 15.5197C29.2742 15.5197 29.3223 15.5677 29.3703 15.5677V15.6638H28.8418V15.5677H28.8898C28.8898 15.5677 28.9379 15.5677 28.9379 15.5197L28.9859 15.4716C28.9859 15.4716 29.034 15.4236 29.034 15.3755L29.5145 14.0781H29.8028L30.2832 15.3755C30.2832 15.4236 30.3313 15.4716 30.3793 15.5197C30.4274 15.5677 30.4754 15.5677 30.5235 15.5677V15.6638H29.8028V15.5677C29.8508 15.5677 29.8989 15.5197 29.9469 15.5197C29.9469 15.4716 29.9469 15.4716 29.9469 15.4236L29.8989 15.2794H29.3223V15.2314ZM29.8508 15.0872L29.6106 14.4625L29.3703 15.1353H29.8508V15.0872Z" fill="white"/>
<path d="M31.1973 15.6638V15.5677C31.2453 15.5677 31.2453 15.5677 31.2934 15.5677C31.3414 15.5677 31.3414 15.5677 31.3414 15.5197L31.3895 15.4716C31.3895 15.4716 31.3895 15.4236 31.3895 15.3755V14.3664C31.3895 14.3184 31.3895 14.3184 31.3895 14.2703C31.3895 14.2703 31.3895 14.2223 31.3414 14.2223C31.3414 14.2223 31.2934 14.2223 31.2934 14.1742C31.2934 14.1742 31.2453 14.1742 31.1973 14.1742V14.0781H31.918V14.1742C31.8699 14.1742 31.8699 14.1742 31.8219 14.1742C31.7738 14.1742 31.7738 14.1742 31.7738 14.2223L31.7258 14.2703C31.7258 14.2703 31.7258 14.3184 31.7258 14.3664V14.9431L32.3024 14.3664C32.3024 14.3664 32.3024 14.3184 32.3504 14.3184V14.2703C32.3504 14.2703 32.3504 14.2703 32.3024 14.2223C32.3024 14.2223 32.2543 14.2223 32.2063 14.2223V14.1262H32.8309V14.2223C32.7348 14.2223 32.6868 14.2223 32.6387 14.2703C32.5907 14.2703 32.5426 14.3184 32.4946 14.3664L32.1102 14.7508L32.5907 15.3755C32.6387 15.4236 32.6868 15.4716 32.6868 15.4716C32.7348 15.5197 32.7829 15.5197 32.8309 15.5197V15.6158H32.1102V15.5197C32.1582 15.5197 32.2063 15.5197 32.2063 15.4716C32.2063 15.4716 32.2063 15.4236 32.1582 15.3755L31.8219 14.9431L31.7258 15.0872V15.3755C31.7258 15.4236 31.7258 15.4236 31.7258 15.4716C31.7258 15.4716 31.7258 15.5197 31.7738 15.5197L31.8219 15.5677C31.8699 15.5677 31.8699 15.5677 31.918 15.5677V15.6638H31.1973Z" fill="white"/>
<path d="M33.8399 15.2314L33.7438 15.4236C33.7438 15.4716 33.7438 15.5197 33.7438 15.5197C33.7918 15.5197 33.8399 15.5677 33.8879 15.5677V15.6638H33.3594V15.5677H33.4074C33.4074 15.5677 33.4555 15.5677 33.4555 15.5197L33.5035 15.4716C33.5035 15.4716 33.5516 15.4236 33.5516 15.3755L34.0321 14.0781H34.2723L34.7528 15.3755C34.7528 15.4236 34.8008 15.4716 34.8489 15.5197C34.8969 15.5677 34.945 15.5677 34.993 15.5677V15.6638H34.3203V15.5677C34.3684 15.5677 34.4164 15.5197 34.4645 15.5197C34.4645 15.4716 34.4645 15.4716 34.4645 15.4236L34.4164 15.2794H33.8399V15.2314ZM34.3684 15.0872L34.1281 14.4625L33.8879 15.1353H34.3684V15.0872Z" fill="white"/>
<path d="M36.9637 15.2302C36.9637 15.2782 36.9637 15.3743 36.9157 15.4224C36.8676 15.4704 36.8676 15.5185 36.8196 15.5666C36.7715 15.6146 36.7235 15.6627 36.6274 15.6627C36.5313 15.7107 36.4832 15.7107 36.3871 15.7107C36.3391 15.7107 36.291 15.7107 36.243 15.7107C36.1949 15.7107 36.1469 15.6627 36.1469 15.6627C36.0988 15.6627 36.0988 15.6146 36.0508 15.6146H36.0027H35.9547C35.9547 15.6146 35.9066 15.6627 35.9066 15.7107H35.8105V15.1821H35.9066C35.9066 15.2302 35.9547 15.2782 35.9547 15.3263C36.0027 15.3743 36.0027 15.4224 36.0508 15.4704C36.0988 15.5185 36.1469 15.5185 36.1949 15.5666C36.243 15.6146 36.291 15.6146 36.3871 15.6146C36.4832 15.6146 36.5313 15.6146 36.5793 15.5666C36.6274 15.5185 36.6754 15.4704 36.6754 15.4224C36.6754 15.3743 36.6754 15.3263 36.6754 15.3263C36.6754 15.2782 36.6274 15.2782 36.6274 15.2302C36.5793 15.1821 36.5793 15.1821 36.5313 15.1341C36.4832 15.086 36.4352 15.086 36.3391 15.086C36.1949 15.038 36.0988 14.9899 36.0027 14.8938C35.9066 14.7977 35.9066 14.7016 35.9066 14.6055C35.9066 14.5575 35.9066 14.5094 35.9547 14.4133C35.9547 14.3653 36.0027 14.3172 36.0508 14.2692C36.0988 14.2211 36.1469 14.1731 36.1949 14.1731C36.243 14.125 36.3391 14.125 36.4352 14.125C36.4832 14.125 36.5313 14.125 36.5793 14.125C36.6274 14.125 36.6754 14.1731 36.6754 14.1731C36.7235 14.1731 36.7235 14.2211 36.7715 14.2211H36.8196H36.8676C36.8676 14.2211 36.9157 14.1731 36.9157 14.125H37.0118V14.6055H36.9157C36.9157 14.5575 36.8676 14.5094 36.8196 14.4614C36.7715 14.4133 36.7715 14.3653 36.7235 14.3172C36.6754 14.2692 36.6274 14.2692 36.5793 14.2211C36.5313 14.2211 36.4832 14.1731 36.3871 14.1731C36.3391 14.1731 36.291 14.1731 36.243 14.2211C36.1949 14.2692 36.1949 14.3172 36.1949 14.3653C36.1949 14.4133 36.1949 14.4133 36.1949 14.4614C36.1949 14.5094 36.243 14.5094 36.243 14.5575C36.291 14.6055 36.291 14.6055 36.3391 14.6055C36.3871 14.6055 36.4352 14.6536 36.5313 14.6536C36.6754 14.7016 36.8196 14.7497 36.9157 14.8458C36.9157 14.9899 36.9637 15.086 36.9637 15.2302Z" fill="white"/>
<path d="M37.6348 15.6638V15.5677C37.6828 15.5677 37.6828 15.5677 37.7309 15.5677C37.7789 15.5677 37.7789 15.5677 37.7789 15.5197L37.827 15.4716C37.827 15.4716 37.827 15.4236 37.827 15.3755V14.3664C37.827 14.3184 37.827 14.3184 37.827 14.2703C37.827 14.2703 37.827 14.2223 37.7789 14.2223C37.7789 14.2223 37.7309 14.2223 37.7309 14.1742C37.7309 14.1742 37.6828 14.1742 37.6348 14.1742V14.0781H38.9321V14.4625H38.836C38.836 14.4145 38.836 14.4145 38.836 14.3664C38.836 14.3184 38.836 14.3184 38.7879 14.3184L38.7399 14.2703C38.7399 14.2703 38.6918 14.2703 38.6438 14.2703H38.1633V14.847H38.4996C38.5477 14.847 38.5477 14.847 38.5957 14.847C38.5957 14.847 38.6438 14.847 38.6438 14.7989L38.6918 14.7508C38.6918 14.7508 38.6918 14.7028 38.6918 14.6547H38.7879V15.1353H38.6918C38.6918 15.0872 38.6918 15.0872 38.6918 15.0392C38.6918 15.0392 38.6918 14.9911 38.6438 14.9911C38.6438 14.9911 38.5957 14.9911 38.5957 14.9431C38.5957 14.9431 38.5477 14.9431 38.4996 14.9431H38.1633V15.4236C38.1633 15.4716 38.1633 15.4716 38.2113 15.5197C38.2113 15.5197 38.2594 15.5677 38.3074 15.5677H38.6918C38.7399 15.5677 38.7399 15.5677 38.7879 15.5677C38.7879 15.5677 38.836 15.5677 38.836 15.5197C38.836 15.5197 38.836 15.4716 38.884 15.4716C38.884 15.4236 38.884 15.4236 38.884 15.3755H38.9801V15.7119H37.6348V15.6638Z" fill="white"/>
<path d="M42.2973 14.895C42.2973 15.0392 42.2973 15.1353 42.2493 15.2314C42.2012 15.3275 42.1532 15.4236 42.1051 15.4716C42.0571 15.5197 41.961 15.6158 41.8649 15.6158C41.7688 15.6638 41.6727 15.6638 41.5285 15.6638H40.7598V15.5677C40.8078 15.5677 40.8078 15.5677 40.8559 15.5677C40.8559 15.5677 40.9039 15.5677 40.9039 15.5197L40.952 15.4716C40.952 15.4716 40.952 15.4236 40.952 15.3755V14.3664C40.952 14.3184 40.952 14.3184 40.952 14.2703C40.952 14.2703 40.952 14.2223 40.9039 14.2223C40.9039 14.2223 40.8559 14.2223 40.8559 14.1742C40.8078 14.1742 40.8078 14.1742 40.7598 14.1742V14.0781H41.5285C41.6246 14.0781 41.7688 14.0781 41.8649 14.1262C41.961 14.1742 42.0571 14.2223 42.1051 14.2703C42.1532 14.3184 42.2012 14.4145 42.2493 14.5106C42.2493 14.6547 42.2973 14.7989 42.2973 14.895ZM41.9129 14.895C41.9129 14.7989 41.9129 14.7508 41.9129 14.6547C41.9129 14.5586 41.8649 14.5106 41.8168 14.4625C41.7688 14.4145 41.7207 14.3664 41.6727 14.3184C41.6246 14.2703 41.5285 14.2703 41.4805 14.2703H41.2883V15.5677H41.4805C41.5766 15.5677 41.6246 15.5677 41.6727 15.5197C41.7207 15.4716 41.7688 15.4236 41.8168 15.3755C41.8649 15.3275 41.8649 15.2314 41.9129 15.1833C41.9129 15.0392 41.9129 14.9911 41.9129 14.895Z" fill="white"/>
<path d="M43.0176 15.6638V15.5677C43.0656 15.5677 43.0656 15.5677 43.1137 15.5677C43.1137 15.5677 43.1617 15.5677 43.1617 15.5197L43.2098 15.4716C43.2098 15.4716 43.2098 15.4236 43.2098 15.3755V14.3664C43.2098 14.3184 43.2098 14.3184 43.2098 14.2703C43.2098 14.2703 43.2098 14.2223 43.1617 14.2223C43.1617 14.2223 43.1137 14.2223 43.1137 14.1742C43.1137 14.1742 43.0656 14.1742 43.0176 14.1742V14.0781H43.7383V14.1742C43.6903 14.1742 43.6903 14.1742 43.6422 14.1742C43.6422 14.1742 43.5942 14.1742 43.5942 14.2223L43.5461 14.2703C43.5461 14.2703 43.5461 14.3184 43.5461 14.3664V15.3755C43.5461 15.4236 43.5461 15.4236 43.5461 15.4716C43.5461 15.4716 43.5461 15.5197 43.5942 15.5197L43.6422 15.5677C43.6422 15.5677 43.6903 15.5677 43.7383 15.5677V15.6638H43.0176Z" fill="white"/>
<path d="M44.4102 15.6627V15.5666C44.4582 15.5666 44.4582 15.5666 44.5063 15.5666C44.5543 15.5666 44.5543 15.5666 44.5543 15.5185L44.6023 15.4704C44.6023 15.4704 44.6023 15.4224 44.6023 15.3743V14.3172C44.5543 14.2692 44.5543 14.2692 44.5063 14.2692C44.4582 14.2692 44.4582 14.2692 44.4102 14.2211V14.125H44.8426L45.6594 15.1821V14.4133C45.6594 14.3653 45.6594 14.3653 45.6594 14.3172C45.6594 14.3172 45.6594 14.2692 45.6114 14.2692C45.6114 14.2692 45.5633 14.2692 45.5633 14.2211C45.5153 14.2211 45.5153 14.2211 45.4672 14.2211V14.125H45.9957V14.2211C45.9477 14.2211 45.9477 14.2211 45.8997 14.2211C45.8997 14.2211 45.8516 14.2211 45.8516 14.2692L45.8036 14.3172C45.8036 14.3172 45.8036 14.3653 45.8036 14.4133V15.7107H45.6594L44.6984 14.5094V15.4224C44.6984 15.4704 44.6984 15.4705 44.6984 15.5185C44.6984 15.5185 44.6984 15.5666 44.7465 15.5666L44.7945 15.6146C44.7945 15.6146 44.8426 15.6146 44.8906 15.6146V15.7107H44.4102V15.6627Z" fill="white"/>
<path d="M46.668 15.6638V15.5677C46.716 15.5677 46.716 15.5677 46.7641 15.5677C46.7641 15.5677 46.8121 15.5677 46.8121 15.5197L46.8602 15.4716C46.8602 15.4716 46.8602 15.4236 46.8602 15.3755V14.3664C46.8602 14.3184 46.8602 14.3184 46.8602 14.2703C46.8602 14.2703 46.8602 14.2223 46.8121 14.2223C46.8121 14.2223 46.7641 14.2223 46.7641 14.1742C46.716 14.1742 46.716 14.1742 46.668 14.1742V14.0781H47.3887V14.1742C47.3406 14.1742 47.3406 14.1742 47.2926 14.1742C47.2926 14.1742 47.2445 14.1742 47.2445 14.2223L47.1965 14.2703C47.1965 14.2703 47.1965 14.3184 47.1965 14.3664V15.3755C47.1965 15.4236 47.1965 15.4236 47.1965 15.4716C47.1965 15.4716 47.1965 15.5197 47.2445 15.5197L47.2926 15.5677C47.3406 15.5677 47.3406 15.5677 47.3887 15.5677V15.6638H46.668Z" fill="white"/>
<path d="M48.1094 15.6627V15.5666C48.1574 15.5666 48.1574 15.5666 48.2055 15.5666C48.2535 15.5666 48.2535 15.5666 48.2535 15.5185L48.3016 15.4704C48.3016 15.4704 48.3016 15.4224 48.3016 15.3743V14.3172C48.2535 14.2692 48.2535 14.2692 48.2055 14.2692C48.1574 14.2692 48.1574 14.2692 48.1094 14.2211V14.125H48.5418L49.3586 15.1821V14.4133C49.3586 14.3653 49.3586 14.3653 49.3586 14.3172C49.3586 14.3172 49.3586 14.2692 49.3106 14.2692C49.3106 14.2692 49.2625 14.2692 49.2625 14.2211C49.2625 14.2211 49.2145 14.2211 49.1664 14.2211V14.125H49.695V14.2211C49.6469 14.2211 49.6469 14.2211 49.5989 14.2211C49.5508 14.2211 49.5508 14.2211 49.5508 14.2692L49.5028 14.3172C49.5028 14.3172 49.5028 14.3653 49.5028 14.4133V15.7107H49.3586L48.3977 14.5094V15.4224C48.3977 15.4704 48.3977 15.4705 48.3977 15.5185C48.3977 15.5185 48.3977 15.5666 48.4457 15.5666L48.4938 15.6146C48.5418 15.6146 48.5418 15.6146 48.5899 15.6146V15.7107H48.1094V15.6627Z" fill="white"/>
<path d="M51.9063 15.0368C51.8582 15.0849 51.8582 15.0849 51.8582 15.1329C51.8582 15.1329 51.8582 15.181 51.8582 15.229V15.5654C51.8102 15.6134 51.7621 15.6134 51.7141 15.6615C51.666 15.6615 51.618 15.7095 51.57 15.7095C51.5219 15.7095 51.4739 15.7576 51.3778 15.7576C51.3297 15.7576 51.2336 15.7576 51.1856 15.7576C51.0895 15.7576 50.9934 15.7576 50.8973 15.7095C50.8012 15.6615 50.7051 15.6134 50.657 15.5173C50.609 15.4212 50.5129 15.3732 50.5129 15.2771C50.4648 15.181 50.4648 15.0849 50.4648 14.9407C50.4648 14.8446 50.4648 14.7004 50.5129 14.6043C50.5609 14.5082 50.609 14.4121 50.657 14.3641C50.7051 14.316 50.8012 14.2199 50.8973 14.2199C50.9934 14.1719 51.0895 14.1719 51.1856 14.1719C51.2336 14.1719 51.2817 14.1719 51.3297 14.1719C51.3778 14.1719 51.4258 14.2199 51.4258 14.2199C51.4739 14.2199 51.4739 14.268 51.5219 14.268H51.57H51.618C51.618 14.268 51.666 14.2199 51.666 14.1719H51.7621V14.7004H51.666C51.666 14.6524 51.618 14.6043 51.57 14.5563C51.5219 14.5082 51.5219 14.4602 51.4739 14.4121C51.4258 14.3641 51.3778 14.3641 51.3297 14.316C51.2817 14.316 51.2336 14.268 51.1375 14.268C51.0895 14.268 51.0414 14.268 50.9453 14.316C50.8973 14.3641 50.8492 14.4121 50.8012 14.4602C50.7531 14.5082 50.7531 14.6043 50.7051 14.6524C50.7051 14.7485 50.657 14.8446 50.657 14.9407C50.657 15.1329 50.7051 15.3251 50.7531 15.4212C50.8492 15.5173 50.9453 15.6134 51.0895 15.6134C51.1375 15.6134 51.1856 15.6134 51.2817 15.6134C51.3297 15.6134 51.3778 15.6134 51.4258 15.5654V15.229C51.4258 15.181 51.4258 15.181 51.4258 15.1329C51.4258 15.1329 51.4258 15.0849 51.3778 15.0849C51.3778 15.0849 51.3297 15.0849 51.3297 15.0368C51.3297 15.0368 51.2817 15.0368 51.2336 15.0368V14.9407H51.9063V15.0368C51.9543 15.0368 51.9543 15.0368 51.9063 15.0368Z" fill="white"/>
<path d="M39.0302 1.82422C38.5016 2.01643 37.877 2.25668 37.3004 2.44889C36.7239 2.6411 36.0992 2.83331 35.4746 2.92941C35.5227 3.12162 35.5227 3.26577 35.5707 3.40993C35.6188 3.60213 35.6668 3.79434 35.7149 3.9385C35.8109 4.0346 35.907 4.08265 36.0031 4.1307C36.2434 4.0346 36.4836 3.9385 36.6758 3.84239C36.868 3.74629 37.0122 3.65019 37.2524 3.50603L37.4446 3.40993V11.1943C37.5887 11.1943 37.7329 11.1463 37.9251 11.0982C38.1173 11.0502 38.3575 11.0021 38.5016 10.906C38.886 10.5696 39.0782 10.1372 39.1743 9.6086V3.60213L39.3665 2.25668C39.3665 2.16058 39.3185 2.06448 39.2224 1.96837C39.1743 1.96837 39.0782 1.87227 39.0302 1.82422Z" fill="white"/>
<path d="M52.8192 1.63281C52.2907 1.82502 51.6661 2.06528 51.0895 2.25749C50.4649 2.44969 49.8883 2.6419 49.2637 2.738C49.3117 2.93021 49.3117 3.07437 49.3598 3.21852C49.4078 3.41073 49.4559 3.60293 49.5039 3.74709C49.6 3.84319 49.6961 3.89125 49.7922 3.9393C50.0324 3.84319 50.2727 3.74709 50.4649 3.65099C50.6571 3.55488 50.7051 3.55488 50.9454 3.41073L51.1856 3.31462V11.0029C51.3297 11.0029 51.4739 10.9549 51.6661 10.9068C51.8583 10.8588 52.0985 10.8107 52.2427 10.7146C52.627 10.3782 52.8192 9.94577 52.9153 9.4172V3.41073L53.1075 2.06528C53.0595 1.96917 53.0595 1.87307 52.9634 1.77697C52.9634 1.77697 52.8673 1.68086 52.8192 1.63281Z" fill="white"/>
<path d="M48.1596 4.7077C47.9674 4.13108 47.7271 3.65056 47.4388 3.2181C47.1506 2.83368 46.7662 2.49732 46.3818 2.25706C45.9974 2.06485 45.565 1.96875 45.1325 1.96875C44.7482 1.96875 44.2677 2.11291 43.8352 2.40122C43.3547 2.68953 42.9223 3.07394 42.5379 3.50641C42.1535 3.93887 41.8172 4.46744 41.5289 4.99601C41.2887 5.52458 41.1445 6.05315 41.1445 6.53367C41.1445 7.25444 41.2406 7.87912 41.3848 8.45574C41.577 9.03236 41.7692 9.51288 42.1055 9.94534C42.3938 10.3298 42.7782 10.6661 43.1626 10.9064C43.5469 11.1466 43.9794 11.2427 44.4599 11.2427C44.8442 11.2427 45.6611 11.0986 46.0935 10.8103C46.574 10.522 47.0064 10.1376 47.3908 9.70508C47.7271 9.32067 47.9674 8.8882 48.1115 8.40769C48.2557 7.83107 48.4479 7.20639 48.4479 6.72587C48.3998 5.95705 48.3518 5.28432 48.1596 4.7077ZM45.2767 10.1376C44.9403 10.0414 44.604 9.89729 44.3157 9.65703C44.0274 9.41677 43.7872 9.17651 43.595 8.84015C43.4028 8.50379 43.2587 8.11938 43.1626 7.68691C43.0665 7.25444 43.0184 6.77393 43.0184 6.29341C43.0184 5.95705 43.0665 5.62068 43.1145 5.33237C43.1626 4.99601 43.2587 4.7077 43.3547 4.41939C43.4508 4.13108 43.595 3.89082 43.7391 3.65056C43.8352 3.50641 43.8833 3.36225 44.0274 3.26615C44.1235 3.2181 44.2196 3.12199 44.3638 3.12199C44.4599 3.07394 44.604 3.12199 44.7001 3.17004C44.8923 3.26615 45.0364 3.36225 45.1806 3.45835C45.5169 3.69861 45.7572 3.98692 45.9494 4.32329C46.3337 4.99601 46.5259 5.86094 46.5259 6.82198C46.5259 7.15834 46.4779 7.4947 46.4298 7.78301C46.3818 8.11938 46.2857 8.40769 46.1896 8.696C46.0935 8.98431 45.9494 9.22457 45.8052 9.46483C45.6611 9.70508 45.5169 9.89729 45.3247 10.0414L45.2767 10.1376Z" fill="white"/>
<path d="M10.9218 8.55024C10.7296 8.40608 10.4894 8.30998 10.2972 8.26193C9.76866 8.30998 9.28818 8.30998 8.75965 8.35803C8.23111 8.40608 7.75063 8.50219 7.3182 8.55024C7.2221 8.55024 7.17405 8.59829 7.07796 8.59829H6.88576L6.98186 8.40608C7.02991 8.35803 7.02991 8.26193 7.02991 8.21388C7.02991 8.11777 7.07796 8.06972 7.07796 7.97362C7.07796 7.87751 7.07796 7.78141 7.07796 7.68531V7.30089C7.07796 7.01258 7.07796 6.77232 7.126 6.58012V6.48401H7.2221C7.51039 6.43596 7.75063 6.38791 7.99087 6.38791L8.7116 6.33986C8.75964 6.33986 8.80769 6.33986 8.85574 6.29181C8.90379 6.24375 8.99989 6.1957 9.04793 6.14765C9.09598 6.0996 9.19208 6.05155 9.24013 5.95544C9.28818 5.90739 9.33622 5.85934 9.38427 5.81129C9.43232 5.66713 9.43232 5.52298 9.38427 5.37882C9.24013 5.23467 9.09598 5.13856 8.90379 5.04246C8.7116 4.94636 8.5194 4.85025 8.32721 4.8022C7.75063 4.89831 7.126 5.04246 6.54943 5.23467C5.9248 5.42688 5.39627 5.61908 4.86774 5.85934L4.67554 5.95544V5.85934L4.72359 3.07234C4.72359 3.02429 4.67554 2.92818 4.6275 2.88013C4.67554 2.78403 4.6275 2.73598 4.57945 2.68792C4.29116 2.59182 4.05092 2.49572 3.76263 2.44767C3.47434 2.39961 3.18605 2.35156 2.94581 2.35156C2.89776 2.35156 2.80166 2.35156 2.70557 2.39961C2.65752 2.39961 2.60947 2.39961 2.56142 2.44767C2.56142 2.49572 2.56142 2.59182 2.56142 2.63987C2.70557 2.83208 2.84971 3.02429 2.94581 3.26455V3.3126V6.43596C3.0419 6.62817 3.18605 6.82038 3.37824 6.96453C3.57044 7.10869 3.76263 7.20479 4.00287 7.25284C4.33921 7.10869 4.77164 6.96453 5.20408 6.86843L5.34822 6.82038V6.96453C5.34822 7.25284 5.34822 7.5892 5.34822 7.87751C5.34822 8.16582 5.30017 8.50219 5.25212 8.83855V8.93465H5.15603C4.29116 9.07881 3.47434 9.27102 2.60947 9.46322C1.79265 9.65543 0.975831 9.89569 0.110963 10.1359C-0.0812303 10.4723 0.0148662 10.6165 0.110963 10.8087C0.110963 10.8567 0.159011 10.8567 0.159011 10.9048C0.303156 11.2411 0.543397 11.3853 0.879734 11.3853C0.927783 11.3853 0.975831 11.3853 0.975831 11.3853C1.7446 11.0489 2.60947 10.7606 3.52239 10.4723C4.48335 10.184 5.49236 9.94374 6.54943 9.79958C7.17405 9.70348 7.84673 9.70348 8.5194 9.70348C8.56745 9.70348 8.56745 9.70348 8.6155 9.70348C9.33622 9.70348 10.0569 9.75153 10.7777 9.89569C10.8257 9.89569 10.8738 9.89569 11.066 9.75153C11.2101 9.65543 11.3542 9.51127 11.4503 9.36712C11.4984 9.22296 11.4984 9.07881 11.4503 8.93465C11.3062 8.7905 11.114 8.64634 10.9218 8.55024Z" fill="white"/>
<path d="M16.7837 6.82203C16.9759 6.72592 17.4084 6.53372 17.5525 6.38956C17.6486 6.29346 17.7447 6.24541 17.8408 6.19735C17.9369 6.1493 18.033 6.10125 18.1291 6.00515C18.3213 5.66878 18.4174 5.28437 18.3213 4.80385C18.2252 4.89996 18.1291 4.94801 18.033 5.04411C17.7927 5.23632 17.6486 5.33242 17.5044 5.47658C17.3123 5.62073 17.1681 5.71684 16.9759 5.81294C16.7837 5.90904 16.6396 6.00515 16.4954 6.0532C16.3513 6.10125 16.2071 6.1493 16.015 6.19735C15.8228 6.24541 15.6786 6.29346 15.4864 6.34151C15.2942 6.38956 15.102 6.43761 14.9579 6.43761C14.8618 6.48566 14.7177 6.48566 14.6216 6.48566L14.3333 6.53372V5.38047H14.4294C14.7177 5.33242 15.054 5.28437 15.3423 5.18827C15.6306 5.14022 15.8708 5.04411 16.1591 4.94801C16.2071 4.89996 16.2552 4.89996 16.2552 4.8519C16.3032 4.80385 16.3032 4.80385 16.3513 4.7558C16.3993 4.61165 16.3993 4.51554 16.3993 4.41944V4.37139L16.3513 4.27528C16.3993 4.22723 16.4954 4.17918 16.5915 4.08308C16.6876 3.98697 16.7837 3.89087 16.8798 3.79477C16.9759 3.69866 17.072 3.55451 17.1681 3.4584C17.2642 3.31425 17.3123 3.21814 17.4084 3.12204C17.4084 3.07399 17.4084 2.97789 17.4084 2.88178C17.4084 2.78568 17.4084 2.68958 17.3603 2.59347C17.1681 2.35321 16.9759 2.11295 16.7357 1.92075C16.4954 1.72854 16.2552 1.58438 16.015 1.48828C15.7267 1.53633 15.3903 1.58438 15.054 1.63244C14.7177 1.68049 14.3333 1.77659 13.9969 1.82464C13.6125 1.92075 13.2762 2.01685 12.9399 2.11295C12.6516 2.20906 12.3633 2.30516 12.123 2.40126C12.2191 2.64152 12.3633 2.88178 12.5074 3.12204C12.6996 3.3623 12.9399 3.55451 13.1801 3.65061C13.5164 3.60256 13.9008 3.50646 14.3333 3.41035C14.7657 3.31425 15.102 3.17009 15.4384 3.07399L15.5345 2.92983L15.4384 4.03502H15.3423C15.054 4.08308 14.7657 4.17918 14.4774 4.27528C14.1411 4.37139 13.8528 4.46749 13.5645 4.56359H13.5164H13.4684C13.2282 4.51554 12.9879 4.51554 12.7957 4.51554C12.7477 4.51554 12.6996 4.51554 12.6035 4.56359C12.5555 4.56359 12.4594 4.61165 12.4113 4.61165C12.4113 4.6597 12.4113 4.7558 12.4113 4.80385C12.5074 4.99606 12.6035 5.23632 12.6516 5.42853V6.91813C12.6516 7.01423 12.6996 7.06229 12.7477 7.20644C12.8438 7.30254 12.9399 7.4467 13.036 7.5428C13.1321 7.63891 13.2762 7.73501 13.3723 7.78306C13.4684 7.83111 13.5164 7.83111 13.5645 7.83111H13.6125C13.8528 7.78306 14.093 7.68696 14.3813 7.63891C14.6216 7.5428 14.9098 7.49475 15.1981 7.39865C15.4384 7.30254 15.7267 7.20644 15.9669 7.11034C16.2071 7.01423 16.3993 6.91813 16.5915 6.82203C16.6876 6.82203 16.7357 6.82203 16.7837 6.82203Z" fill="white"/>
<path d="M22.5494 5.81464C22.4053 5.71854 22.2131 5.62243 22.069 5.57438C21.8768 5.62243 21.6846 5.67048 21.4443 5.76659C21.2041 5.86269 20.9638 5.95879 20.7236 6.10295L20.5314 6.19905V6.00685C20.5314 5.76659 20.5314 5.52633 20.5314 5.23802C20.5314 4.99776 20.5314 4.70945 20.5314 4.42114V4.32503H20.6275C20.9158 4.27698 21.2521 4.27698 21.5885 4.27698C21.8287 4.27698 22.069 4.27698 22.2611 4.32503C22.2611 4.32503 22.2612 4.32503 22.3092 4.32503C22.3572 4.32503 22.4533 4.27698 22.5014 4.22893C22.5975 4.13283 22.6936 4.03672 22.7897 3.89257C22.8377 3.74841 22.8377 3.60426 22.7897 3.4601C22.6936 3.364 22.5494 3.21984 22.4053 3.12374C22.2611 3.02764 22.069 2.93153 21.9248 2.88348C21.6365 2.88348 21.2521 3.12374 20.8197 3.41205L20.6275 3.55621V3.31595C20.6275 3.12374 20.6275 2.93153 20.6275 2.78738C20.6275 2.59517 20.6275 2.45102 20.6275 2.30686C20.6275 2.16271 20.6275 2.01855 20.6275 1.82634C20.6275 1.63414 20.6756 1.48998 20.6756 1.34583C20.6756 1.20167 20.6275 1.05751 20.5314 0.913359C20.4353 0.817256 20.2912 0.769204 20.147 0.673101C20.0029 0.576997 19.8587 0.528945 19.7146 0.432842C19.5704 0.38479 19.4263 0.288687 19.2822 0.240635C19.138 0.192583 19.0419 0.144531 18.9458 0.144531C18.8978 0.144531 18.8017 0.192583 18.7056 0.192583C18.6095 0.192583 18.5614 0.240635 18.5134 0.288687C18.5134 0.336738 18.5134 0.432842 18.5134 0.480894C18.7056 0.673101 18.8017 0.913359 18.8978 1.10557V1.15362L18.9939 6.19905C18.9939 6.29516 18.9939 6.43931 18.9939 6.63152C18.9939 6.77567 18.9939 6.96788 18.9939 7.11204C18.9939 7.25619 18.9939 7.4484 18.9458 7.59255C18.9458 7.73671 18.8978 7.88086 18.8978 7.97697C18.8978 8.07307 18.8497 8.16918 18.8497 8.26528C18.8497 8.36138 18.8017 8.40943 18.8017 8.50554L18.7536 8.60164C18.6095 8.55359 18.4653 8.55359 18.2731 8.60164H18.129V8.36138H18.177C18.177 8.31333 18.177 8.26528 18.177 8.21723C18.177 8.16918 18.177 8.12112 18.177 8.07307C18.0329 7.97697 17.8888 7.88086 17.6966 7.78476C17.5044 7.68866 17.3122 7.59255 17.12 7.5445C16.9758 7.5445 16.8317 7.49645 16.6876 7.5445C16.6876 7.59255 16.6395 7.59255 16.6395 7.64061C16.6395 7.68866 16.5915 7.68866 16.5915 7.73671V8.16917V8.21723C16.3512 8.40943 16.111 8.55359 15.8707 8.7458C15.6305 8.938 15.4383 9.13021 15.2942 9.32242C15.102 9.51462 15.0059 9.70683 14.9098 9.89904C14.8137 10.0912 14.7656 10.2354 14.7656 10.4276C14.7656 10.6679 14.8617 10.9081 15.0059 11.1484C15.1981 11.3886 15.3903 11.5808 15.6785 11.725C15.9668 11.8692 16.2551 12.0133 16.5915 12.1094C16.9278 12.2055 17.2641 12.2055 17.6005 12.2055C17.9368 12.2055 18.2251 12.1094 18.5614 11.9653C18.8497 11.8211 19.138 11.6289 19.3783 11.4367C19.6185 11.2445 19.8107 11.0042 19.9548 10.764C20.099 10.5237 20.147 10.2835 20.147 10.0432C20.147 9.80293 20.0509 9.61073 19.9068 9.41852C19.7626 9.22631 19.5224 9.03411 19.3302 8.938L19.138 8.8419L19.4263 8.69774C19.4744 8.69774 19.5224 8.64969 19.6185 8.55359C19.6665 8.50554 19.7626 8.40943 19.8587 8.31333C19.9548 8.21723 20.0029 8.12112 20.099 8.02502C20.147 7.92892 20.2431 7.83281 20.2912 7.73671C20.3873 7.49645 20.4834 7.25619 20.5795 7.01593L20.6275 6.91983H20.7236C21.0119 6.91983 21.3002 6.96788 21.6365 6.96788C21.9729 7.01593 22.2612 7.06398 22.5494 7.11204C22.5975 7.11204 22.6936 7.06398 22.7416 7.01593C22.8377 6.91983 22.9338 6.82373 23.0299 6.67957C23.078 6.53542 23.078 6.39126 23.0299 6.2471C22.8377 6.0549 22.7416 5.91074 22.5494 5.81464ZM18.5614 10.3315C18.5134 10.4276 18.4173 10.5718 18.3212 10.6679C18.2251 10.764 18.129 10.8601 17.9849 10.9562C17.8407 11.0523 17.7446 11.1003 17.6005 11.1003C17.5524 11.1003 17.5524 11.1003 17.5044 11.1003C17.4083 11.1003 17.3122 11.1003 17.168 11.0523C17.0239 11.0042 16.9278 10.9562 16.8317 10.9081C16.7356 10.8601 16.6395 10.764 16.5434 10.6679C16.4473 10.5718 16.3993 10.4757 16.3993 10.3796C16.3993 10.1873 16.4954 9.99514 16.7356 9.75488C16.9278 9.56268 17.168 9.37047 17.4083 9.13021L17.8407 8.7458L17.8888 8.88995C17.9368 8.98605 18.0329 9.13021 18.177 9.27437C18.2731 9.37047 18.3692 9.46657 18.4653 9.56268C18.5614 9.70683 18.6095 9.80293 18.6095 9.94709C18.6575 10.0912 18.6095 10.1873 18.5614 10.3315Z" fill="white"/>
<path d="M27.4021 5.76409L27.4982 5.90824C27.6903 6.19655 27.8825 6.43681 28.1228 6.67707C28.363 6.91733 28.6033 7.10954 28.8435 7.30174C28.9876 7.3498 29.1318 7.3498 29.2759 7.30174C29.4681 7.30174 29.6123 7.25369 29.7084 7.20564C29.8525 7.10954 29.9486 6.91733 30.0447 6.72512C29.9967 6.58097 29.9486 6.43681 29.8525 6.29266C29.8045 6.1485 29.7084 6.00435 29.5642 5.86019C29.324 5.76409 29.0357 5.71604 28.7955 5.61993C28.5072 5.57188 28.2189 5.52383 27.9306 5.47578H27.6903L27.8345 5.28357C28.0267 5.04331 28.2669 4.80305 28.4111 4.51474C28.4591 4.37059 28.4591 4.22643 28.4111 4.03422C28.315 3.93812 28.2189 3.84202 28.1228 3.79396C28.0267 3.69786 27.8825 3.64981 27.7864 3.55371L27.4982 3.3615L27.8345 3.31345C28.315 3.2654 28.7474 3.21734 29.1318 3.16929C29.1798 3.16929 29.2759 3.16929 29.4201 2.97708C29.5642 2.88098 29.7084 2.73683 29.8045 2.59267C29.8045 2.54462 29.8045 2.49657 29.8045 2.40046C29.8045 2.35241 29.8045 2.25631 29.7564 2.20826C29.6603 2.16021 29.5162 2.0641 29.324 1.968C29.1318 1.87189 28.9877 1.77579 28.7955 1.67969C28.5072 1.72774 28.1228 1.77579 27.7864 1.82384C27.4021 1.87189 27.0177 1.968 26.5852 2.0641C26.1528 2.1602 25.7684 2.30436 25.336 2.40046C24.9516 2.49657 24.6153 2.64072 24.327 2.78488C24.4231 3.02514 24.5672 3.2654 24.7114 3.4576C24.9036 3.64981 25.0957 3.79397 25.336 3.93812C25.5282 3.89007 25.7204 3.79396 25.9126 3.74591C26.1048 3.69786 26.345 3.64981 26.5852 3.60176L26.7294 3.55371V4.08228V4.13033C26.5852 4.41864 26.393 4.70695 26.2009 4.99526C26.0087 5.28357 25.7684 5.57188 25.5762 5.86019C25.336 6.1485 25.0957 6.43681 24.8555 6.72512C24.6153 7.01343 24.327 7.25369 24.0867 7.49395C24.0387 7.59005 23.9426 7.68616 23.8465 7.78226C23.7984 7.87837 23.7023 7.97447 23.6543 8.02252C23.7023 8.11862 23.7504 8.21473 23.8465 8.26278C23.9426 8.26278 23.9906 8.21473 24.0867 8.21473C24.2309 8.16668 24.327 8.11862 24.4711 8.11862C24.6153 8.07057 24.7594 8.02252 24.8555 7.97447C24.9996 7.92642 25.1438 7.83031 25.2399 7.78226C25.6243 7.49395 25.9606 7.20564 26.345 6.86928C26.7294 6.53291 27.0657 6.19655 27.354 5.86019L27.4021 5.76409Z" fill="white"/>
<path d="M31.0543 1.00909L31.1504 6.72725C31.1504 6.8714 31.1504 6.96751 31.1504 7.15971C31.1504 7.30387 31.1504 7.44802 31.1504 7.64023C31.1504 7.78439 31.1504 7.97659 31.1024 8.12075C31.1024 8.2649 31.0543 8.40906 31.0543 8.50516C31.0063 8.79347 30.9582 9.08178 30.8621 9.27399C30.9582 9.27399 31.0063 9.22594 31.1024 9.22594C31.2945 9.17789 31.4387 9.12984 31.5348 9.12984C31.5828 9.12984 31.6309 9.08178 31.727 8.98568C31.775 8.93763 31.8711 8.84153 31.9672 8.74542C32.0633 8.64932 32.1114 8.55321 32.2075 8.45711C32.3036 8.36101 32.3516 8.2649 32.3997 8.1688C32.5919 7.78439 32.736 7.39997 32.736 7.01556C32.736 6.72725 32.784 6.34283 32.784 5.91037C32.784 5.67011 32.784 5.3818 32.784 5.14154V4.56492C32.784 4.0844 32.784 3.60388 32.784 3.21947C32.784 2.83505 32.784 2.49869 32.784 2.16233C32.784 2.01817 32.784 1.87402 32.784 1.68181C32.784 1.4896 32.8321 1.34545 32.8321 1.20129C32.8321 1.05714 32.784 0.912983 32.6879 0.768828C32.5919 0.672725 32.4477 0.624673 32.3036 0.528569C32.1594 0.432466 32.0153 0.384414 31.8711 0.288311C31.727 0.240259 31.5828 0.144155 31.4387 0.0961035C31.2945 0.0480518 31.1985 0 31.1024 0C31.0543 0 30.9582 0.0480518 30.8621 0.0480518C30.8141 0.0480518 30.718 0.0961035 30.6699 0.144155C30.6699 0.192207 30.6699 0.288311 30.6699 0.336362C30.8141 0.576621 30.9582 0.768828 31.0543 1.00909Z" fill="white"/>
<path d="M32.8322 10.1838C32.64 10.0877 32.4478 9.99158 32.2556 9.94353C31.9673 9.94353 31.6791 9.99158 31.3427 10.0396C31.0544 10.0877 30.7181 10.1357 30.3818 10.1838C30.0454 10.2318 29.7571 10.3279 29.4688 10.376C29.1805 10.424 28.8923 10.5202 28.652 10.6163L28.5079 10.6643V10.5202C28.5079 10.376 28.5079 10.2318 28.5079 10.0877C28.5079 9.94353 28.5079 9.75132 28.5079 9.60717C28.5079 9.46301 28.5079 9.31886 28.5079 9.1747C28.5079 9.03055 28.5079 8.93444 28.5079 8.83834C28.5079 8.69418 28.4598 8.55003 28.3637 8.45393C28.1235 8.40587 27.8352 8.35782 27.595 8.30977C27.3067 8.26172 27.0184 8.26172 26.7781 8.26172C26.634 8.26172 26.4898 8.30977 26.3457 8.35782C26.3457 8.40587 26.3457 8.50198 26.3457 8.55003C26.3938 8.64613 26.4898 8.74224 26.5379 8.83834C26.5859 8.93444 26.634 9.0786 26.682 9.1747L26.8262 10.9046C26.9703 11.0968 27.1145 11.2409 27.3067 11.3851C27.4989 11.5292 27.7391 11.6253 27.9793 11.6734C28.3157 11.6253 28.7001 11.5773 29.0845 11.5292C29.5169 11.4812 29.9013 11.4331 30.3337 11.4331C30.7661 11.3851 31.1986 11.3851 31.583 11.3851C32.0154 11.3851 32.3998 11.3851 32.7842 11.3851C32.8322 11.3851 32.9283 11.337 33.0725 11.2409C33.2166 11.1448 33.3127 11.0487 33.3607 10.9526C33.4088 10.8085 33.4088 10.7124 33.3607 10.5682C33.1686 10.376 33.0244 10.2799 32.8322 10.1838Z" fill="white"/>
</svg>
