<svg width="96" height="16" viewBox="0 0 96 16" fill="none" xmlns="http://www.w3.org/2000/svg">
<path d="M14.8038 12.9858H14.6783C14.5215 12.9858 14.2078 12.9858 14.0196 13.0485C13.8942 13.1112 13.706 13.3935 13.6433 13.5503C13.6433 13.5817 13.6119 13.5817 13.5805 13.5817L13.4864 13.5503C13.4551 13.5503 13.4551 13.519 13.4551 13.519C13.4864 13.3621 13.6433 12.7662 13.6746 12.7035C13.6746 12.6407 13.706 12.6094 13.7374 12.6094C13.7687 12.6094 13.7687 12.6094 13.8001 12.6407C13.8942 12.7348 13.9883 12.7662 14.1137 12.7662C14.3647 12.7662 14.5528 12.7976 14.9606 12.7976H15.2115C15.682 12.7976 15.8702 12.7662 16.0897 12.7662C16.1838 12.7662 16.3406 12.7035 16.4034 12.6407C16.4347 12.6094 16.4661 12.6094 16.4661 12.6094C16.4975 12.6094 16.4975 12.6094 16.4975 12.6721C16.4975 12.7662 16.5915 13.2994 16.6229 13.519C16.6229 13.5503 16.6229 13.5503 16.5915 13.5503L16.4975 13.5817C16.4661 13.5817 16.4661 13.5817 16.4661 13.5503C16.4034 13.4249 16.2465 13.1426 16.1211 13.0485C15.9956 12.9858 15.5879 12.9858 15.4311 12.9858H15.3683V15.3381C15.3683 15.6831 15.3997 15.7772 15.5251 15.7772H15.7761C15.8074 15.7772 15.8074 15.8086 15.8074 15.8086V15.9027C15.8074 15.934 15.8074 15.934 15.7761 15.934C15.7447 15.934 15.5879 15.934 15.1174 15.934C14.6783 15.934 14.4901 15.934 14.4274 15.934C14.396 15.934 14.396 15.934 14.396 15.9027V15.8086C14.396 15.7772 14.396 15.7772 14.4274 15.7772H14.6783C14.7724 15.7772 14.8351 15.7145 14.8351 15.6518C14.8351 15.5263 14.8351 14.1776 14.8351 14.0835V12.9858H14.8038Z" fill="white"/>
<path d="M18.5057 14.9612C18.5057 14.7416 18.5057 14.4907 18.3803 14.3652C18.3175 14.3025 18.2235 14.2711 18.1294 14.2711C18.0039 14.2711 17.9098 14.3339 17.8157 14.428C17.7843 14.4593 17.7216 14.5534 17.7216 14.6475V15.6198C17.7216 15.7453 17.753 15.808 17.8157 15.808H17.9098C17.9412 15.808 17.9412 15.808 17.9412 15.8394V15.9335C17.9412 15.9648 17.9412 15.9648 17.9098 15.9648C17.8784 15.9648 17.6903 15.9648 17.4393 15.9648C17.1571 15.9648 17.0002 15.9648 16.9689 15.9648C16.9375 15.9648 16.9375 15.9648 16.9375 15.9335V15.8394C16.9375 15.808 16.9689 15.808 16.9689 15.808H17.0943C17.1571 15.808 17.2198 15.7766 17.2511 15.7453C17.2511 15.6198 17.2511 15.3689 17.2511 15.1807V13.6125C17.2511 13.3616 17.1884 13.2675 17.063 13.2047L16.9689 13.1734C16.9375 13.1734 16.9375 13.1734 16.9375 13.142V13.1106C16.9375 13.0793 16.9375 13.0793 17.0002 13.0479C17.1257 13.0165 17.4393 12.8597 17.5648 12.797C17.6275 12.797 17.6589 12.7656 17.6903 12.7656C17.7216 12.7656 17.7216 12.797 17.7216 12.8597C17.7216 12.9224 17.7216 13.832 17.7216 14.0516V14.3339H17.753C17.8784 14.1457 18.1294 14.0516 18.3175 14.0516C18.5057 14.0516 18.6312 14.1143 18.7567 14.2398C18.9448 14.428 18.9448 14.6475 18.9448 14.8984V15.1493V15.7453C18.9448 15.808 19.0389 15.808 19.1017 15.808H19.1958C19.2271 15.808 19.2271 15.808 19.2271 15.8394V15.9335C19.2271 15.9648 19.2271 15.9648 19.1958 15.9648C19.1644 15.9648 19.0389 15.9648 18.7567 15.9648C18.5057 15.9648 18.3175 15.9648 18.2862 15.9648C18.2548 15.9648 18.2548 15.9648 18.2548 15.9335V15.8394C18.2548 15.808 18.2548 15.808 18.2862 15.808H18.3489C18.4116 15.808 18.4744 15.7766 18.4744 15.7139C18.4744 15.6512 18.4744 15.4316 18.4744 15.2748V14.9612H18.5057Z" fill="white"/>
<path d="M20.0115 14.9643C20.0115 15.4034 20.3251 15.6857 20.5761 15.6857C20.8583 15.6857 21.0152 15.5602 21.1093 15.4347C21.1406 15.4034 21.1406 15.4034 21.172 15.4034L21.2347 15.4347C21.2661 15.4347 21.2661 15.4661 21.2347 15.5288C21.1406 15.6857 20.9211 15.9993 20.4192 15.9993C20.1369 15.9993 19.9488 15.9366 19.7919 15.7484C19.5724 15.5288 19.541 15.2779 19.541 15.027C19.541 14.7761 19.5724 14.6193 19.7606 14.3683C19.9488 14.1174 20.1369 14.0547 20.5447 14.0547C21.0465 14.0547 21.2033 14.5879 21.2033 14.7761C21.2033 14.8388 21.172 14.8388 21.0779 14.8388H20.0115V14.9643ZM20.5761 14.6506C20.6701 14.6506 20.7329 14.6193 20.7329 14.5879C20.7329 14.4624 20.7015 14.1801 20.4506 14.1801C20.231 14.1801 20.1056 14.337 20.0429 14.6193H20.5761V14.6506Z" fill="white"/>
<path d="M23.4309 15.9012L22.835 14.3329C22.8037 14.2389 22.7409 14.2075 22.6782 14.2075H22.5841C22.5527 14.2075 22.5527 14.2075 22.5527 14.1761V14.1134C22.5527 14.082 22.5527 14.082 22.5841 14.082C22.6468 14.082 22.7096 14.082 23.0546 14.082C23.2741 14.082 23.3682 14.082 23.4309 14.082C23.4623 14.082 23.4623 14.082 23.4623 14.1134V14.2075C23.4623 14.2389 23.4623 14.2389 23.4309 14.2389H23.3996C23.3682 14.2389 23.3369 14.2702 23.3682 14.3329L23.6819 15.368H23.7132L24.0582 14.4898C24.0896 14.427 24.0582 14.3329 24.0269 14.3016C23.9955 14.2702 23.9641 14.2702 23.9014 14.2702H23.8387C23.8073 14.2702 23.8073 14.2702 23.8073 14.2389V14.1448C23.8073 14.1134 23.8073 14.1134 23.8387 14.1134C23.8701 14.1134 23.9955 14.1134 24.2778 14.1134C24.4973 14.1134 24.5914 14.1134 24.6228 14.1134C24.6542 14.1134 24.6542 14.1134 24.6542 14.1448V14.2389C24.6542 14.2702 24.6542 14.2702 24.6228 14.2702H24.5601C24.5287 14.2702 24.4973 14.3016 24.4973 14.3643L24.811 15.3053H24.8424L25.1246 14.5211C25.1874 14.3329 25.1246 14.2389 25.0305 14.2389H24.9678C24.9365 14.2389 24.9365 14.2389 24.9365 14.2075V14.1134C24.9365 14.082 24.9365 14.082 24.9678 14.082C24.9992 14.082 25.1246 14.082 25.3442 14.082C25.5324 14.082 25.6265 14.082 25.6578 14.082C25.6892 14.082 25.6892 14.082 25.6892 14.1134V14.2075C25.6892 14.2389 25.6892 14.2389 25.6578 14.2389H25.5951C25.5324 14.2389 25.4383 14.2702 25.4383 14.3016C25.4069 14.3957 24.8424 15.7757 24.7483 15.9325C24.7796 15.9953 24.7483 15.9953 24.7169 15.9953C24.6855 15.9953 24.6542 15.9639 24.6228 15.9012L24.1837 14.7093H24.1523L23.6505 15.9325C23.6191 15.9953 23.5878 15.9953 23.525 15.9953C23.4937 15.9953 23.4623 15.9639 23.4309 15.9012Z" fill="white"/>
<path d="M27.5374 14.3057C27.757 14.5253 27.8511 14.7448 27.8511 14.9957C27.8511 15.2467 27.757 15.4976 27.5688 15.6544C27.3806 15.874 27.1297 15.968 26.8161 15.968C26.5338 15.968 26.2829 15.874 26.0947 15.6544C25.9065 15.4348 25.8438 15.2467 25.8438 14.9644C25.8438 14.7448 25.9378 14.4312 26.2201 14.243C26.4397 14.0548 26.6592 14.0234 26.8474 14.0234C27.1611 14.0548 27.3806 14.1489 27.5374 14.3057ZM27.3179 14.9957C27.3179 14.4939 27.067 14.2116 26.8474 14.2116C26.722 14.2116 26.6592 14.243 26.5651 14.3371C26.4397 14.4939 26.3769 14.6821 26.3769 14.9957C26.3769 15.2467 26.4083 15.4348 26.5024 15.623C26.5651 15.7485 26.6592 15.8112 26.8474 15.8112C27.1611 15.8112 27.3179 15.4348 27.3179 14.9957Z" fill="white"/>
<path d="M28.5111 14.8076C28.5111 14.6194 28.4798 14.5253 28.3543 14.4625L28.2916 14.4312C28.2602 14.4312 28.2602 14.3998 28.2602 14.3998V14.3684C28.2602 14.3371 28.2602 14.3371 28.2916 14.3371L28.8248 14.0862C28.8562 14.0862 28.8875 14.0548 28.8875 14.0548C28.9189 14.0548 28.9189 14.0862 28.9189 14.1175L28.9502 14.4312C29.1071 14.1803 29.2953 14.0234 29.4834 14.0234C29.6403 14.0234 29.703 14.1175 29.703 14.243C29.703 14.3684 29.5775 14.4939 29.4521 14.4939C29.3894 14.4939 29.3266 14.4625 29.2953 14.4625C29.2639 14.4312 29.2012 14.4312 29.1698 14.4312C29.1071 14.4312 29.0443 14.4625 28.9816 14.5566C28.9502 14.6194 28.9189 14.7135 28.9189 14.7762V15.623C28.9189 15.7485 28.9502 15.8112 29.0443 15.8112H29.2325C29.2639 15.8112 29.2639 15.8112 29.2639 15.8426V15.9367C29.2639 15.968 29.2639 15.968 29.2325 15.968C29.2012 15.968 29.013 15.968 28.6993 15.968C28.3857 15.968 28.2289 15.968 28.1661 15.968C28.1348 15.968 28.1348 15.968 28.1348 15.9367V15.8426C28.1348 15.8112 28.1348 15.8112 28.1661 15.8112H28.323C28.3857 15.8112 28.4484 15.7799 28.4484 15.6858V14.8076H28.5111Z" fill="white"/>
<path d="M30.2983 14.2399C30.2983 13.9262 30.2983 13.5499 30.2669 13.4244C30.2669 13.2676 30.1728 13.2048 30.0473 13.1735L29.9532 13.1421C29.9219 13.1421 29.9219 13.1108 29.9219 13.1108V13.048C29.9219 13.048 29.9219 13.0167 29.9532 13.0167C30.1414 12.9539 30.4864 12.8598 30.6119 12.7657C30.6746 12.7344 30.706 12.7344 30.706 12.7344C30.7374 12.7344 30.7374 12.7657 30.7374 12.8285C30.7374 13.0794 30.706 13.989 30.706 14.2399V14.8672C30.706 15.0554 30.706 15.5258 30.706 15.6513C30.706 15.7454 30.7374 15.7768 30.8315 15.7768H31.051C31.0824 15.7768 31.1137 15.7768 31.1137 15.8081V15.9022C31.1137 15.9336 31.1137 15.9336 31.0824 15.9336C31.051 15.9336 30.8628 15.9336 30.5492 15.9336C30.2042 15.9336 30.0473 15.9336 29.9846 15.9336C29.9532 15.9336 29.9532 15.9022 29.9532 15.9022V15.8081C29.9532 15.7768 29.9532 15.7768 30.016 15.7768H30.1728C30.2042 15.7768 30.2669 15.7454 30.2669 15.6199V14.4281V14.2399H30.2983Z" fill="white"/>
<path d="M33.1846 15.2122C33.1846 15.369 33.1846 15.5572 33.216 15.5886C33.2473 15.6513 33.3414 15.6513 33.4042 15.6827C33.4669 15.6827 33.4669 15.6827 33.4983 15.714V15.7768C33.4983 15.8081 33.4983 15.8081 33.4669 15.8395L32.871 15.9963C32.8396 15.9963 32.8082 15.9963 32.8082 15.9649L32.7455 15.7454C32.5887 15.9022 32.3378 15.9963 32.1182 15.9963C31.93 15.9963 31.7418 15.9336 31.585 15.7768C31.3968 15.5886 31.3027 15.4004 31.3027 15.1181C31.3027 14.8044 31.3968 14.5535 31.6164 14.334C31.8046 14.1458 31.9928 14.0517 32.275 14.0517C32.4319 14.0517 32.5887 14.0831 32.6828 14.1144V13.2676C32.6828 13.1108 32.6514 13.048 32.4005 13.0167C32.3691 13.0167 32.3691 12.9853 32.3691 12.9853V12.8598C32.3691 12.8285 32.3691 12.8285 32.4005 12.8285C32.6201 12.7971 32.9023 12.7657 33.0278 12.7657C33.0905 12.7657 33.1219 12.7344 33.1532 12.7344C33.1846 12.7344 33.1846 12.7657 33.1846 12.8285C33.1533 13.048 33.1532 13.6753 33.1532 14.2712V15.2122H33.1846ZM32.7141 14.6476C32.7141 14.5849 32.7141 14.4908 32.6828 14.4281C32.62 14.3026 32.4946 14.2085 32.3064 14.2085C32.2123 14.2085 32.0869 14.2399 31.9928 14.334C31.8673 14.4908 31.8046 14.679 31.8046 14.8672C31.8046 15.369 32.0869 15.7454 32.3378 15.7454C32.526 15.7454 32.62 15.6513 32.6828 15.5886C32.7141 15.5258 32.7141 15.4945 32.7141 15.4004V14.6476Z" fill="white"/>
<path d="M34.1883 13.2362C34.1569 13.2048 33.9688 13.1735 33.9688 12.9539C33.9688 12.8285 34.0628 12.7344 34.2197 12.7344C34.4079 12.7344 34.596 12.8912 34.596 13.1735C34.596 13.6126 34.1883 13.8949 34.1256 13.9262C34.0942 13.9576 34.0628 13.9576 34.0315 13.9576C34.0001 13.9576 34.0001 13.9262 34.0001 13.9262C34.0001 13.8949 34.0001 13.8949 34.0315 13.8635C34.0942 13.8008 34.2824 13.5812 34.2824 13.3617C34.251 13.3303 34.2197 13.2676 34.1883 13.2362Z" fill="white"/>
<path d="M34.6895 15.3683C34.6895 15.337 34.6895 15.337 34.6895 15.337L34.7835 15.3056C34.8149 15.3056 34.8149 15.3056 34.8149 15.3056L34.9717 15.5565C35.0345 15.682 35.1286 15.8074 35.3481 15.8074C35.5363 15.8074 35.6618 15.7133 35.6618 15.5252C35.6618 15.337 35.5363 15.2742 35.254 15.1801C34.9404 15.086 34.7208 14.9292 34.7208 14.6156C34.7208 14.4274 34.7835 14.2706 34.9404 14.1451C35.0972 14.051 35.2227 13.9883 35.4108 13.9883C35.6304 13.9883 35.7559 14.051 35.8499 14.0824C35.9127 14.1137 35.944 14.1451 35.944 14.1765L36.0068 14.4901C36.0068 14.5215 36.0068 14.5215 36.0068 14.5528L35.9127 14.5842C35.9127 14.5842 35.8813 14.5842 35.8813 14.5528L35.6618 14.3019C35.599 14.2392 35.5363 14.1765 35.3795 14.1765C35.2227 14.1765 35.0658 14.2706 35.0658 14.4274C35.0658 14.6156 35.1913 14.6469 35.4736 14.741C35.6931 14.8038 35.7872 14.8351 35.9127 14.9606C36.0068 15.0547 36.0381 15.1801 36.0381 15.3056C36.0381 15.682 35.7245 15.9329 35.3167 15.9329C35.0658 15.9329 34.8776 15.8702 34.8463 15.8074C34.8149 15.7761 34.8149 15.7761 34.8149 15.7447L34.6895 15.3683Z" fill="white"/>
<path d="M37.8884 15.9651C37.8571 15.9651 37.8571 15.9651 37.8257 15.9651L37.763 15.9337C37.7316 15.9337 37.7316 15.9023 37.7316 15.9023C37.7316 15.8396 37.7316 15.4632 37.7316 15.1496V13.55C37.7316 13.2363 37.6689 13.205 37.5434 13.1422L37.4807 13.1109C37.418 13.1109 37.418 13.0795 37.418 13.0795V13.0481C37.418 13.0481 37.418 13.0168 37.4493 13.0168C37.6375 12.954 37.8884 12.8286 38.0139 12.7659C38.0766 12.7345 38.108 12.7031 38.1394 12.7031C38.1707 12.7031 38.2021 12.7345 38.1707 12.7659C38.1707 12.7972 38.1394 13.2991 38.1394 13.6754V14.2086C38.2962 14.0518 38.5157 13.9891 38.7353 13.9891C39.0176 13.9891 39.2371 14.1459 39.3939 14.3655C39.4567 14.4909 39.5194 14.6791 39.5194 14.93C39.5194 15.4005 39.0803 15.9651 38.5471 15.9651C38.2962 15.9651 38.108 15.9023 37.9825 15.8396L37.8884 15.9651ZM38.2335 14.9927C38.2335 15.3691 38.2334 15.4946 38.2962 15.6514C38.3589 15.7455 38.4844 15.8396 38.6098 15.8396C38.7353 15.8396 38.9235 15.7769 39.0176 15.62C39.1117 15.4632 39.143 15.3064 39.143 15.1182C39.143 14.6164 38.9235 14.3027 38.5785 14.3027C38.453 14.3027 38.3275 14.3341 38.2335 14.4282V14.9927Z" fill="white"/>
<path d="M40.5232 14.9643C40.5232 15.4034 40.8369 15.6857 41.0878 15.6857C41.3701 15.6857 41.5269 15.5602 41.621 15.4347C41.6523 15.4034 41.6523 15.4034 41.6837 15.4034L41.7464 15.4347C41.7778 15.4347 41.7778 15.4661 41.7464 15.5288C41.6523 15.6857 41.4328 15.9993 40.9309 15.9993C40.6487 15.9993 40.4605 15.9366 40.3037 15.7484C40.0841 15.5288 40.0527 15.2779 40.0527 15.027C40.0527 14.7761 40.0841 14.6193 40.2723 14.3683C40.4605 14.1174 40.6487 14.0547 41.0564 14.0547C41.5582 14.0547 41.7151 14.5879 41.7151 14.7761C41.7151 14.8388 41.6837 14.8388 41.5896 14.8388H40.5232V14.9643ZM41.0564 14.6506C41.1505 14.6506 41.2132 14.6193 41.2132 14.5879C41.2132 14.4624 41.1819 14.1801 40.9309 14.1801C40.7114 14.1801 40.5859 14.337 40.5232 14.6193H41.0564V14.6506Z" fill="white"/>
<path d="M42.123 15.3683C42.123 15.337 42.123 15.337 42.123 15.337L42.2171 15.3056C42.2485 15.3056 42.2485 15.3056 42.2485 15.3056L42.4053 15.5565C42.4681 15.682 42.5621 15.8074 42.7817 15.8074C42.9699 15.8074 43.0953 15.7133 43.0953 15.5252C43.0953 15.337 42.9699 15.2742 42.6562 15.1801C42.3426 15.086 42.123 14.9292 42.123 14.6156C42.123 14.4274 42.1858 14.2706 42.3426 14.1451C42.4994 14.051 42.6249 13.9883 42.8131 13.9883C43.0326 13.9883 43.1581 14.051 43.2522 14.0824C43.3149 14.1137 43.3463 14.1451 43.3463 14.1765L43.409 14.4901C43.409 14.5215 43.409 14.5215 43.409 14.5528L43.3149 14.5842C43.3149 14.5842 43.2835 14.5842 43.2835 14.5528L43.064 14.3019C43.0013 14.2392 42.9385 14.1765 42.7817 14.1765C42.6249 14.1765 42.4681 14.2706 42.4681 14.4274C42.4681 14.6156 42.5935 14.6469 42.8758 14.741C43.0954 14.8038 43.1894 14.8351 43.3149 14.9606C43.409 15.0547 43.4404 15.1801 43.4404 15.3056C43.4404 15.682 43.1267 15.9329 42.6876 15.9329C42.4681 15.9329 42.2485 15.8702 42.2171 15.8074C42.1858 15.7761 42.1858 15.7761 42.1858 15.7447L42.123 15.3683Z" fill="white"/>
<path d="M43.8479 14.3348C43.8165 14.3348 43.7852 14.3034 43.7852 14.2721C43.7852 14.2407 43.8165 14.2093 43.8792 14.178C44.0047 14.1466 44.3811 13.8016 44.4752 13.6134C44.4752 13.582 44.5065 13.582 44.5379 13.582C44.5693 13.582 44.6006 13.6134 44.6006 13.6448V14.0839H45.1966C45.2279 14.0839 45.2279 14.1152 45.2279 14.1152L45.1966 14.3034C45.1966 14.3348 45.1966 14.3348 45.1652 14.3348H44.632C44.632 14.523 44.632 14.7425 44.632 14.9307V15.3385C44.632 15.6835 44.7888 15.7462 44.8829 15.7462C44.977 15.7462 45.0711 15.7148 45.1338 15.6835C45.1652 15.6835 45.1652 15.6835 45.1966 15.6835L45.2279 15.7462C45.2279 15.7776 45.2279 15.7776 45.1966 15.8089C45.1338 15.8403 44.9456 15.9971 44.632 15.9971C44.3811 15.9971 44.1615 15.7776 44.1615 15.5894C44.1615 15.4325 44.1615 15.0875 44.1615 14.8993V14.3348H43.8479Z" fill="white"/>
<path d="M46.6699 15.3683C46.6699 15.337 46.6699 15.337 46.6699 15.337L46.764 15.3056C46.7954 15.3056 46.7954 15.3056 46.7954 15.3056L46.9522 15.5565C47.0463 15.682 47.109 15.8074 47.3286 15.8074C47.4854 15.8074 47.6422 15.7133 47.6422 15.5252C47.6422 15.337 47.5168 15.2742 47.2031 15.1801C46.8895 15.086 46.6699 14.9292 46.6699 14.6156C46.6699 14.4274 46.7327 14.2706 46.8895 14.1451C47.0463 14.051 47.1718 13.9883 47.3599 13.9883C47.5795 13.9883 47.705 14.051 47.799 14.0824C47.8618 14.1137 47.8931 14.1451 47.8931 14.1765L47.9559 14.4901C47.9559 14.5215 47.9559 14.5215 47.9559 14.5528L47.8618 14.5842C47.8618 14.5842 47.8304 14.5842 47.8304 14.5528L47.6109 14.3019C47.5481 14.2392 47.4854 14.1765 47.3286 14.1765C47.1718 14.1765 47.0149 14.2706 47.0149 14.4274C47.0149 14.6156 47.1404 14.6469 47.4227 14.741C47.6422 14.8038 47.7363 14.8351 47.8618 14.9606C47.9559 15.0547 47.9872 15.1801 47.9872 15.3056C47.9872 15.682 47.6736 15.9329 47.2345 15.9329C47.0149 15.9329 46.7954 15.8702 46.764 15.8074C46.7327 15.7761 46.7327 15.7761 46.7327 15.7447L46.6699 15.3683Z" fill="white"/>
<path d="M48.867 14.9643C48.867 15.4034 49.1806 15.6857 49.4315 15.6857C49.7138 15.6857 49.8706 15.5602 49.9647 15.4347C49.9647 15.4034 49.9961 15.4034 50.0274 15.4034L50.0902 15.4347C50.1215 15.4347 50.1215 15.4661 50.0902 15.5288C49.9961 15.6857 49.7765 15.9993 49.2747 15.9993C48.9924 15.9993 48.8042 15.9366 48.6474 15.7484C48.4279 15.5288 48.3965 15.2779 48.3965 15.027C48.3965 14.7761 48.4278 14.6193 48.616 14.3683C48.8042 14.1174 48.9924 14.0547 49.4002 14.0547C49.902 14.0547 50.0588 14.5879 50.0588 14.7761C50.0588 14.8388 50.0274 14.8388 49.9334 14.8388H48.867V14.9643ZM49.4002 14.6506C49.4942 14.6506 49.557 14.6193 49.557 14.5879C49.557 14.4624 49.5256 14.1801 49.2747 14.1801C49.0551 14.1801 48.9297 14.337 48.867 14.6193H49.4002V14.6506Z" fill="white"/>
<path d="M51.4705 15.717C51.3764 15.8111 51.2509 15.9052 51.0941 15.9679C51 15.9993 50.9059 15.9993 50.8118 15.9993C50.655 15.9993 50.4982 15.8738 50.4982 15.6229C50.4982 15.4347 50.5923 15.2152 50.9059 15.0897C51.1882 14.9643 51.345 14.9015 51.4391 14.8074V14.5879C51.4391 14.4938 51.4077 14.3997 51.3764 14.337C51.345 14.2742 51.2509 14.2742 51.1568 14.2742C51.0941 14.2742 50.9686 14.3056 50.9059 14.3683C50.8432 14.3997 50.8745 14.4938 50.8745 14.5879C50.8745 14.7447 50.7804 14.8388 50.6236 14.8388C50.5295 14.8388 50.4668 14.7761 50.4668 14.682C50.4668 14.5565 50.5295 14.3997 50.655 14.3056C50.8432 14.1488 51.0941 14.0547 51.3764 14.0547C51.6273 14.0547 51.69 14.1174 51.7841 14.1801C51.8782 14.2742 51.8782 14.3997 51.8782 14.5252V15.2152V15.4347C51.8782 15.6857 51.9096 15.7484 52.0037 15.7484C52.0664 15.7484 52.1291 15.717 52.1605 15.6857C52.1919 15.6543 52.1919 15.6543 52.1919 15.6543L52.2546 15.6857C52.286 15.6857 52.286 15.717 52.2546 15.7484C52.2232 15.8425 52.0978 15.9993 51.8468 15.9993C51.69 15.9993 51.5332 15.9052 51.4705 15.717ZM51.4391 14.9643C51.2509 15.0897 50.9373 15.1525 50.9373 15.4975C50.9373 15.6857 51.0314 15.7797 51.1255 15.7797C51.2509 15.7797 51.4077 15.6543 51.4077 15.5602V14.9643H51.4391Z" fill="white"/>
<path d="M53.2569 14.7104C53.2569 15.0554 53.2569 15.5572 53.2569 15.6827C53.2569 15.7768 53.2883 15.8081 53.3823 15.8081H53.6019C53.6333 15.8081 53.6333 15.8081 53.6333 15.8395V15.9336C53.6333 15.9649 53.6333 15.9649 53.6019 15.9649C53.5705 15.9649 53.4137 15.9649 53.006 15.9649C52.7551 15.9649 52.5041 15.9649 52.4728 15.9649C52.4414 15.9649 52.4414 15.9649 52.4414 15.9336V15.8395C52.4414 15.8081 52.4414 15.8081 52.4728 15.8081H52.661C52.7551 15.8081 52.7864 15.7454 52.7864 15.6513V14.334H52.4728C52.4728 14.334 52.4414 14.334 52.4414 14.2712L52.4728 14.1144C52.4728 14.0831 52.5041 14.0831 52.5355 14.0831H52.7864V13.989C52.7864 13.5499 52.9119 13.2362 53.1314 13.048C53.3823 12.8285 53.6019 12.7344 53.8842 12.7344C54.1351 12.7344 54.3233 12.8285 54.3233 13.0167C54.3233 13.1421 54.1978 13.2362 54.1037 13.2362C54.041 13.2362 54.0096 13.2362 53.9783 13.2048C53.9155 13.1735 53.8842 13.1421 53.8528 13.0794C53.7901 13.0167 53.7274 12.9539 53.6646 12.9539C53.5705 12.9539 53.4764 12.9853 53.3823 13.0794C53.2569 13.2362 53.2883 13.5812 53.2883 13.9262V14.0831H53.8215C53.8528 14.0831 53.8528 14.1144 53.8528 14.1144L53.8215 14.2712C53.8215 14.3026 53.7901 14.3026 53.7587 14.3026H53.2883V14.7104H53.2569Z" fill="white"/>
<path d="M55.7347 14.3057C55.9543 14.5253 56.0484 14.7448 56.0484 14.9957C56.0484 15.2467 55.9543 15.4976 55.7661 15.6544C55.5779 15.874 55.327 15.968 55.0133 15.968C54.731 15.968 54.5115 15.874 54.2919 15.6544C54.1037 15.4348 54.041 15.2467 54.041 14.9644C54.041 14.7448 54.1351 14.4312 54.4174 14.243C54.6369 14.0548 54.8565 14.0234 55.0447 14.0234C55.3583 14.0548 55.5779 14.1489 55.7347 14.3057ZM55.5152 14.9957C55.5152 14.4939 55.2642 14.2116 55.0447 14.2116C54.9192 14.2116 54.8565 14.243 54.7624 14.3371C54.6369 14.4939 54.5742 14.6821 54.5742 14.9957C54.5742 15.2467 54.6056 15.4348 54.6997 15.623C54.7624 15.7485 54.8879 15.8112 55.0447 15.8112C55.3583 15.8112 55.5152 15.4348 55.5152 14.9957Z" fill="white"/>
<path d="M58.1488 14.3057C58.3683 14.5253 58.4624 14.7448 58.4624 14.9957C58.4624 15.2467 58.3683 15.4976 58.1801 15.6544C57.9919 15.874 57.741 15.968 57.4274 15.968C57.1451 15.968 56.9255 15.874 56.706 15.6544C56.5178 15.4348 56.4551 15.2467 56.4551 14.9644C56.4551 14.7448 56.5492 14.4312 56.8315 14.243C57.051 14.0548 57.2706 14.0234 57.4587 14.0234C57.7724 14.0548 57.9919 14.1489 58.1488 14.3057ZM57.8979 14.9957C57.8979 14.4939 57.6469 14.2116 57.4274 14.2116C57.3019 14.2116 57.2392 14.243 57.1451 14.3371C57.0196 14.4939 56.9569 14.6821 56.9569 14.9957C56.9569 15.2467 56.9883 15.4348 57.0824 15.623C57.1451 15.7485 57.2392 15.8112 57.4274 15.8112C57.7724 15.8112 57.8979 15.4348 57.8979 14.9957Z" fill="white"/>
<path d="M60.7217 15.2122C60.7217 15.369 60.7217 15.5572 60.7531 15.5886C60.7845 15.6513 60.8785 15.6513 60.9413 15.6827C61.004 15.6827 61.0354 15.6827 61.0354 15.714V15.7768C61.0354 15.8081 61.0354 15.8081 61.004 15.8395L60.4081 15.9963C60.3767 15.9963 60.3453 15.9963 60.3453 15.9649L60.2826 15.7454C60.1258 15.9022 59.8749 15.9963 59.6553 15.9963C59.4985 15.9963 59.2789 15.9336 59.1221 15.7768C58.9339 15.5886 58.8398 15.4004 58.8398 15.1181C58.8398 14.8044 58.9339 14.5535 59.1535 14.334C59.3417 14.1458 59.5299 14.0517 59.8121 14.0517C59.969 14.0517 60.1258 14.0831 60.2199 14.1144V13.2676C60.2199 13.1108 60.1885 13.048 59.9376 13.0167C59.9062 13.0167 59.9062 12.9853 59.9062 12.9853V12.8598C59.9062 12.8285 59.9062 12.8285 59.9376 12.8285C60.1572 12.7971 60.4394 12.7657 60.5649 12.7657C60.6276 12.7657 60.659 12.7344 60.6904 12.7344C60.7217 12.7344 60.7217 12.7657 60.7217 12.8285C60.7217 13.048 60.7217 13.6753 60.7217 14.2712V15.2122ZM60.2513 14.6476C60.2513 14.5849 60.2513 14.4908 60.2199 14.4281C60.1572 14.3026 60.0317 14.2085 59.8435 14.2085C59.7494 14.2085 59.624 14.2399 59.5299 14.334C59.4044 14.4908 59.3417 14.679 59.3417 14.8672C59.3417 15.369 59.624 15.7454 59.8749 15.7454C60.0631 15.7454 60.1572 15.6513 60.2199 15.5886C60.2513 15.5258 60.2513 15.4945 60.2513 15.4004V14.6476Z" fill="white"/>
<path d="M62.6988 14.8076C62.6988 14.6194 62.6674 14.5253 62.5419 14.4625L62.4478 14.4312C62.4165 14.4312 62.4165 14.3998 62.4165 14.3998V14.3684C62.4165 14.3371 62.4165 14.3371 62.4478 14.3371L62.981 14.0862C63.0124 14.0862 63.0124 14.0548 63.0438 14.0548C63.0751 14.0548 63.0751 14.0862 63.0751 14.1175L63.1065 14.4312H63.1379C63.2947 14.1803 63.4829 14.0234 63.6711 14.0234C63.8279 14.0234 63.8906 14.1175 63.8906 14.243C63.8906 14.3684 63.7652 14.4939 63.6397 14.4939C63.577 14.4939 63.5142 14.4625 63.4829 14.4625C63.4515 14.4312 63.3888 14.4312 63.3574 14.4312C63.2947 14.4312 63.232 14.4625 63.1692 14.5566C63.1379 14.6194 63.1065 14.7135 63.1065 14.7762V15.623C63.1065 15.7485 63.1379 15.8112 63.232 15.8112H63.4201C63.4515 15.8112 63.4515 15.8112 63.4515 15.8426V15.9367C63.4515 15.968 63.4515 15.968 63.4201 15.968C63.3888 15.968 63.2006 15.968 62.8556 15.968C62.5419 15.968 62.3851 15.968 62.3224 15.968C62.291 15.968 62.291 15.968 62.291 15.9367V15.8426C62.291 15.8112 62.291 15.8112 62.3224 15.8112H62.4792C62.5419 15.8112 62.6047 15.7799 62.6047 15.6858V14.8076H62.6988Z" fill="white"/>
<path d="M64.5505 14.9643C64.5505 15.4034 64.8642 15.6857 65.1151 15.6857C65.3974 15.6857 65.5542 15.5602 65.6483 15.4347C65.6483 15.4034 65.6797 15.4034 65.711 15.4034L65.7738 15.4347C65.8051 15.4347 65.8051 15.4661 65.7738 15.5288C65.6797 15.6857 65.4601 15.9993 64.9583 15.9993C64.676 15.9993 64.4878 15.9366 64.331 15.7484C64.1428 15.5288 64.0801 15.2779 64.0801 15.027C64.0801 14.7761 64.1114 14.6193 64.2996 14.3683C64.4878 14.1174 64.676 14.0547 65.0837 14.0547C65.5856 14.0547 65.7424 14.5879 65.7424 14.7761C65.7424 14.8388 65.711 14.8388 65.6169 14.8388H64.5505V14.9643ZM65.1151 14.6506C65.2092 14.6506 65.2719 14.6193 65.2719 14.5879C65.2719 14.4624 65.2406 14.1801 64.9897 14.1801C64.7701 14.1801 64.6446 14.337 64.5819 14.6193H65.1151V14.6506Z" fill="white"/>
<path d="M66.1816 15.3683C66.1816 15.337 66.1816 15.337 66.1816 15.337L66.2757 15.3056C66.3071 15.3056 66.3071 15.3056 66.3071 15.3056L66.4639 15.5565C66.558 15.682 66.6207 15.8074 66.8403 15.8074C67.0285 15.8074 67.1539 15.7133 67.1539 15.5252C67.1539 15.337 67.0285 15.2742 66.7148 15.1801C66.4012 15.086 66.1816 14.9292 66.1816 14.6156C66.1816 14.4274 66.2444 14.2706 66.4012 14.1451C66.558 14.051 66.6835 13.9883 66.8717 13.9883C67.0912 13.9883 67.2167 14.051 67.3108 14.0824C67.3735 14.1137 67.4049 14.1451 67.4049 14.1765L67.4676 14.4901C67.4676 14.5215 67.4676 14.5215 67.4676 14.5528L67.3735 14.5842C67.3735 14.5842 67.3421 14.5842 67.3421 14.5528L67.1226 14.3019C67.0599 14.2392 66.9971 14.1765 66.8403 14.1765C66.6835 14.1765 66.5267 14.2706 66.5267 14.4274C66.5267 14.6156 66.6521 14.6469 66.9344 14.741C67.1226 14.8038 67.248 14.8351 67.3735 14.9606C67.4676 15.0547 67.499 15.1801 67.499 15.3056C67.499 15.682 67.1853 15.9329 66.7462 15.9329C66.4953 15.9329 66.3071 15.8702 66.2757 15.8074C66.2444 15.7761 66.2444 15.7761 66.2444 15.7447L66.1816 15.3683Z" fill="white"/>
<path d="M67.9065 14.3348C67.8751 14.3348 67.8438 14.3034 67.8438 14.2721C67.8438 14.2407 67.8751 14.2093 67.9378 14.178C68.0633 14.1466 68.4397 13.8016 68.5338 13.6134C68.5651 13.582 68.5651 13.582 68.5965 13.582C68.6279 13.582 68.6592 13.6134 68.6592 13.6448L68.6279 14.0839H69.2238C69.2552 14.0839 69.2552 14.1152 69.2552 14.1152L69.2238 14.3034C69.2238 14.3348 69.1924 14.3348 69.1924 14.3348H68.6592C68.6592 14.523 68.6592 14.7425 68.6592 14.9307V15.3385C68.6592 15.6835 68.8161 15.7462 68.9101 15.7462C69.0042 15.7462 69.0983 15.7148 69.1611 15.6835C69.1924 15.6835 69.1924 15.6835 69.2238 15.6835L69.2552 15.7462C69.2552 15.7776 69.2552 15.7776 69.2238 15.8089C69.1611 15.8403 68.9729 15.9971 68.6592 15.9971C68.4083 15.9971 68.1888 15.7776 68.1888 15.5894C68.1888 15.4325 68.1888 15.0875 68.1888 14.8993V14.3348H67.9065Z" fill="white"/>
<path d="M70.5408 15.717C70.4467 15.8111 70.3212 15.9052 70.1644 15.9679C70.0703 15.9993 69.9762 15.9993 69.8821 15.9993C69.7253 15.9993 69.5685 15.8738 69.5685 15.6229C69.5685 15.4347 69.6626 15.2152 69.9762 15.0897C70.2585 14.9643 70.4153 14.9015 70.5094 14.8074V14.5879C70.5094 14.4938 70.4781 14.3997 70.4467 14.337C70.4153 14.2742 70.3212 14.2742 70.2271 14.2742C70.133 14.2742 70.0389 14.3056 69.9762 14.3683C69.9135 14.3997 69.9449 14.4938 69.9449 14.5879C69.9449 14.7447 69.8508 14.8388 69.6939 14.8388C69.5998 14.8388 69.5371 14.7761 69.5371 14.682C69.5371 14.5565 69.5998 14.3997 69.7567 14.3056C69.9448 14.1488 70.1958 14.0547 70.4781 14.0547C70.729 14.0547 70.7917 14.1174 70.8858 14.1801C70.9799 14.2742 70.9799 14.3997 70.9799 14.5252V15.2152V15.4347C70.9799 15.6857 71.0113 15.7484 71.1053 15.7484C71.1681 15.7484 71.2308 15.717 71.2622 15.6857C71.2935 15.6543 71.2935 15.6543 71.2935 15.6543L71.3563 15.6857C71.3876 15.6857 71.3876 15.717 71.3563 15.7484C71.3249 15.8425 71.1994 15.9993 70.9485 15.9993C70.7603 15.9993 70.6035 15.9052 70.5408 15.717ZM70.5094 14.9643C70.3212 15.0897 70.0076 15.1525 70.0076 15.4975C70.0076 15.6857 70.1017 15.7797 70.1958 15.7797C70.3212 15.7797 70.4781 15.6543 70.4781 15.5602V14.9643H70.5094Z" fill="white"/>
<path d="M72.9877 15.6855C72.8622 15.8424 72.6113 15.9992 72.3918 15.9992C72.2349 15.9992 72.0781 15.9992 71.9527 15.811C71.7958 15.5914 71.7958 15.4346 71.7958 15.1837C71.7958 14.9641 71.7958 14.8073 71.7958 14.7132C71.7958 14.6191 71.7958 14.4309 71.7958 14.3996C71.7958 14.2741 71.7331 14.2428 71.639 14.2428C71.5763 14.2428 71.5449 14.2428 71.5449 14.2114V14.1173C71.5449 14.0859 71.5449 14.0859 71.6077 14.0859H72.1408C72.1722 14.0859 72.2036 14.0859 72.2036 14.0859H72.2349C72.2663 14.0859 72.2663 14.1173 72.2663 14.1487C72.2663 14.18 72.2349 14.3996 72.2349 14.7132V14.9955C72.2349 15.1837 72.2036 15.466 72.329 15.6542C72.4231 15.7796 72.5172 15.7796 72.6113 15.7796C72.7054 15.7796 72.8622 15.7169 72.925 15.6228C72.9563 15.5914 72.9877 15.5287 72.9877 15.466V14.4309C72.9877 14.3055 72.8936 14.2741 72.7995 14.2741C72.7368 14.2741 72.7054 14.2428 72.7054 14.2428V14.1173C72.7054 14.0859 72.7054 14.0859 72.7681 14.0859H73.3327C73.3641 14.0859 73.3954 14.0859 73.3954 14.0859C73.4268 14.0859 73.4268 14.0859 73.4582 14.0859C73.4895 14.0859 73.4895 14.1173 73.4895 14.1173C73.4895 14.1487 73.4582 14.2741 73.4582 14.7132V15.0269C73.4582 15.2464 73.4582 15.4346 73.4582 15.5287C73.4895 15.6542 73.5209 15.6855 73.5523 15.6855C73.5836 15.6855 73.6464 15.6855 73.7091 15.6855C73.7404 15.6855 73.7404 15.6855 73.7718 15.7169V15.7796C73.7718 15.811 73.7718 15.811 73.7405 15.811L73.1759 15.9678C73.1445 15.9678 73.1132 15.9992 73.0818 15.9992C73.0504 15.9992 73.0191 15.9678 73.0191 15.9365L72.9877 15.6855Z" fill="white"/>
<path d="M74.3041 14.8076C74.3041 14.6194 74.2727 14.5253 74.1473 14.4625L74.0532 14.4312C74.0218 14.4312 74.0218 14.3998 74.0218 14.3998V14.3684C74.0218 14.3371 74.0218 14.3371 74.0532 14.3371L74.5864 14.0862C74.6178 14.0862 74.6178 14.0548 74.6491 14.0548C74.6805 14.0548 74.6805 14.0862 74.6805 14.1175L74.7119 14.4312H74.7432C74.9 14.1803 75.0882 14.0234 75.2764 14.0234C75.4332 14.0234 75.496 14.1175 75.496 14.243C75.496 14.3684 75.3705 14.4939 75.2451 14.4939C75.1823 14.4939 75.1196 14.4625 75.0882 14.4625C75.0569 14.4312 74.9941 14.4312 74.9628 14.4312C74.9 14.4312 74.8373 14.4625 74.7746 14.5566C74.7432 14.6194 74.7119 14.7135 74.7119 14.7762V15.623C74.7119 15.7485 74.7432 15.8112 74.8373 15.8112H75.0255C75.0569 15.8112 75.0569 15.8112 75.0569 15.8426V15.9367C75.0569 15.968 75.0569 15.968 75.0255 15.968C74.9941 15.968 74.8059 15.968 74.4609 15.968C74.1473 15.968 73.9905 15.968 73.9591 15.968C73.9277 15.968 73.9277 15.968 73.9277 15.9367V15.8426C73.9277 15.8112 73.9277 15.8112 73.9591 15.8112H74.1159C74.1787 15.8112 74.2414 15.7799 74.2414 15.6858V14.8076H74.3041Z" fill="white"/>
<path d="M76.8123 15.717C76.7182 15.8111 76.5927 15.9052 76.4359 15.9679C76.3418 15.9993 76.2477 15.9993 76.1536 15.9993C75.9968 15.9993 75.84 15.8738 75.84 15.6229C75.84 15.4347 75.9341 15.2152 76.2477 15.0897C76.53 14.9643 76.6868 14.9015 76.7809 14.8074V14.5879C76.7809 14.4938 76.7495 14.3997 76.7182 14.337C76.6868 14.2742 76.5927 14.2742 76.4986 14.2742C76.4359 14.2742 76.3104 14.3056 76.2477 14.3683C76.185 14.3997 76.2163 14.4938 76.2163 14.5879C76.2163 14.7447 76.1536 14.8388 75.9654 14.8388C75.9027 14.8388 75.8086 14.7761 75.8086 14.682C75.8086 14.5565 75.8713 14.3997 76.0281 14.3056C76.2163 14.1488 76.4673 14.0547 76.7495 14.0547C77.0005 14.0547 77.0632 14.1174 77.1573 14.1801C77.2514 14.2742 77.2514 14.3997 77.2514 14.5252V15.2152V15.4347C77.2514 15.6857 77.2827 15.7484 77.3768 15.7484C77.4396 15.7484 77.5023 15.717 77.5023 15.6857C77.5337 15.6543 77.5337 15.6543 77.5337 15.6543L77.5964 15.6857C77.6277 15.6857 77.6277 15.717 77.5964 15.7484C77.565 15.8425 77.4396 15.9993 77.1886 15.9993C77.0318 15.9993 76.875 15.9052 76.8123 15.717ZM76.7809 14.9643C76.5927 15.0897 76.3104 15.1525 76.3104 15.4975C76.3104 15.6857 76.4045 15.7797 76.4986 15.7797C76.6241 15.7797 76.7809 15.6543 76.7809 15.5602V14.9643Z" fill="white"/>
<path d="M78.4119 14.0861C78.4432 14.0547 78.4746 14.0547 78.506 14.0547C78.5373 14.0547 78.5373 14.0861 78.5687 14.1174L78.6001 14.337H78.6314C78.6942 14.2742 78.7569 14.2115 78.851 14.1488C78.9451 14.0861 79.0705 14.0547 79.196 14.0547C79.3528 14.0547 79.4783 14.0861 79.5724 14.1488C79.7606 14.3056 79.8233 14.4311 79.8233 14.6193V15.2465C79.8233 15.4034 79.8233 15.5916 79.8233 15.6857C79.8233 15.7797 79.886 15.8111 79.9174 15.8111H80.0428C80.0742 15.8111 80.1056 15.8111 80.1056 15.8425V15.9366C80.1056 15.9679 80.1056 15.9679 80.0742 15.9679C80.0428 15.9679 79.9174 15.9679 79.6037 15.9679C79.3528 15.9679 79.196 15.9679 79.1646 15.9679C79.1333 15.9679 79.1333 15.9366 79.1333 15.9052V15.8425C79.1333 15.8111 79.1333 15.8111 79.196 15.8111H79.2901C79.3215 15.8111 79.3528 15.7797 79.3842 15.717C79.3842 15.5916 79.4155 15.4661 79.4155 15.3093V14.7447C79.4155 14.5565 79.4155 14.4624 79.2901 14.3683C79.196 14.2742 79.1333 14.2742 79.0078 14.2742C78.9451 14.2742 78.8196 14.3056 78.7255 14.3997C78.6628 14.4624 78.6314 14.5879 78.6314 14.7133V15.6229C78.6314 15.717 78.6628 15.7797 78.7255 15.7797H78.8196C78.851 15.7797 78.851 15.7797 78.851 15.8111V15.9052C78.851 15.9366 78.851 15.9366 78.8196 15.9366C78.7883 15.9366 78.6628 15.9366 78.4119 15.9366C78.1296 15.9366 78.0041 15.9366 77.9728 15.9366C77.9414 15.9366 77.9414 15.9052 77.9414 15.9052V15.8111C77.9414 15.7797 77.9414 15.7797 77.9728 15.7797H78.0669C78.1296 15.7797 78.1923 15.7484 78.1923 15.6857V14.682C78.1923 14.5565 78.0982 14.4624 78.0041 14.4311L77.9728 14.3997C77.9414 14.3997 77.9414 14.3683 77.9414 14.3683V14.337C77.9414 14.3056 77.9728 14.3056 77.9728 14.3056L78.4119 14.0861Z" fill="white"/>
<path d="M80.4201 14.3348C80.3888 14.3348 80.3574 14.3034 80.3574 14.2721C80.3574 14.2407 80.3888 14.2093 80.4515 14.178C80.577 14.1466 80.9533 13.8016 81.0474 13.6134C81.0788 13.582 81.0788 13.582 81.1102 13.582C81.1415 13.582 81.1729 13.6134 81.1729 13.6448L81.1415 14.0839H81.7375C81.7688 14.0839 81.7688 14.1152 81.7688 14.1152L81.7375 14.3034C81.7375 14.3348 81.7061 14.3348 81.7061 14.3348H81.1729C81.1729 14.523 81.1729 14.7425 81.1729 14.9307V15.3385C81.1729 15.6835 81.3297 15.7462 81.4238 15.7462C81.5179 15.7462 81.612 15.7148 81.6747 15.6835C81.7061 15.6835 81.7061 15.6835 81.7375 15.6835L81.7688 15.7462C81.7688 15.7776 81.7688 15.7776 81.7375 15.8089C81.6747 15.8403 81.4865 15.9971 81.1729 15.9971C80.922 15.9971 80.7024 15.7776 80.7024 15.5894C80.7024 15.4325 80.7024 15.0875 80.7024 14.8993V14.3348H80.4201Z" fill="white"/>
<path d="M3.88922 7.27995C3.95195 7.53087 4.01468 7.78179 4.07741 8.0327C4.14014 7.78179 4.20287 7.56223 4.2656 7.31131L5.52019 3.01435C5.58292 2.73207 5.64565 2.51252 5.67701 2.38706C5.70838 2.23023 5.73974 2.13614 5.73974 2.04204C5.73974 1.97932 5.73974 1.91659 5.70838 1.85386C5.67701 1.82249 5.61428 1.79113 5.55155 1.75976L5.04972 1.57157L5.08108 1.22656C5.61428 1.25793 6.08475 1.25793 6.3984 1.25793C6.71205 1.25793 7.08842 1.25793 7.52753 1.22656L7.49616 1.57157L6.9316 1.79113C6.80614 1.85386 6.71205 1.91659 6.64932 2.04204C6.58659 2.1675 6.52386 2.32433 6.42976 2.57524L3.88922 10.6673L3.29329 10.7301L1.03504 2.63797C0.940941 2.32433 0.878212 2.10477 0.784118 2.01068C0.721388 1.88522 0.627294 1.82249 0.501835 1.75976L0 1.57157L0.0313647 1.22656C0.501835 1.25793 0.972306 1.25793 1.44278 1.25793C2.07007 1.25793 2.666 1.25793 3.26193 1.22656V1.57157L2.72873 1.75976C2.666 1.79113 2.63463 1.82249 2.60327 1.85386C2.57191 1.88522 2.54054 1.94795 2.54054 2.04204C2.54054 2.13614 2.57191 2.2616 2.60327 2.38706C2.63463 2.54388 2.69736 2.73207 2.76009 2.98299L3.88922 7.27995Z" fill="white"/>
<path d="M10.4756 8.50317C10.4756 8.78546 10.4756 9.00501 10.4756 9.22456C10.4756 9.44411 10.4756 9.6323 10.4756 9.82049C10.4756 9.94595 10.5384 10.0087 10.6638 10.0714L11.2911 10.291L11.3225 10.636C10.852 10.636 10.3188 10.6046 9.72288 10.6046C9.12695 10.6046 8.56238 10.6046 8.09191 10.636L8.06055 10.291L8.78193 10.04C8.87603 10.0087 8.90739 9.94595 8.90739 9.82049C8.90739 9.6323 8.90739 9.44411 8.90739 9.22456C8.90739 9.00501 8.90739 8.75409 8.90739 8.50317V3.17117C8.90739 2.95162 8.90739 2.73207 8.90739 2.54388C8.90739 2.35569 8.90739 2.19887 8.90739 2.04204C8.90739 1.91659 8.87603 1.85386 8.78193 1.82249L8.09191 1.57157L8.12328 1.22656C8.62511 1.25793 9.15831 1.25793 9.72288 1.25793C10.3188 1.25793 10.852 1.25793 11.3538 1.22656L11.3225 1.57157L10.6325 1.82249C10.5384 1.85386 10.507 1.91659 10.507 2.01068C10.507 2.1675 10.507 2.35569 10.507 2.54388C10.507 2.73207 10.507 2.92026 10.507 3.13981V8.50317H10.4756Z" fill="white"/>
<path d="M15.1495 3.13981V8.50317C15.1495 8.78546 15.1495 9.00501 15.1495 9.22456C15.1495 9.44411 15.1495 9.6323 15.1495 9.82049C15.1495 9.94595 15.2122 10.0087 15.2749 10.0714L15.8708 10.291L15.9022 10.636C15.4631 10.636 14.9613 10.6046 14.3967 10.6046C13.8008 10.6046 13.2362 10.6046 12.7657 10.636L12.7344 10.291L13.4244 10.04C13.5185 10.0087 13.5499 9.94595 13.5812 9.82049C13.5812 9.6323 13.5812 9.44411 13.5812 9.22456C13.5812 9.00501 13.5812 8.75409 13.5812 8.50317V3.17117C13.5812 2.95162 13.5812 2.73207 13.5812 2.54388C13.5812 2.35569 13.5812 2.19887 13.5812 2.04204C13.5812 1.91659 13.5499 1.85386 13.4558 1.82249L12.7657 1.57157L12.7971 1.22656C13.2676 1.25793 13.8008 1.25793 14.3967 1.25793C14.9926 1.25793 15.5258 1.25793 15.9336 1.22656V1.57157L15.3063 1.79113C15.2122 1.82249 15.1808 1.88522 15.1808 2.01068C15.1808 2.1675 15.1808 2.35569 15.1808 2.54388C15.1495 2.73207 15.1495 2.92026 15.1495 3.13981ZM15.3376 5.93127L17.4704 2.92026C17.6273 2.66934 17.7841 2.48115 17.8782 2.32433C17.9723 2.1675 18.035 2.04204 18.035 1.94795C18.035 1.85386 18.0036 1.79113 17.9096 1.75976L17.4077 1.57157L17.4391 1.22656C17.8155 1.25793 18.2546 1.25793 18.6937 1.25793C19.1328 1.25793 19.5405 1.25793 19.9169 1.22656V1.57157L19.321 1.79113C19.1641 1.85386 19.0073 1.94795 18.8819 2.10477C18.7564 2.23023 18.6309 2.41842 18.5055 2.60661L16.7177 5.17851L19.0073 9.50684C19.1328 9.69503 19.2269 9.85186 19.2896 9.94595C19.3837 10.04 19.4778 10.1028 19.6032 10.1341L20.1051 10.3223L20.1364 10.6673C19.7601 10.6673 19.3523 10.636 18.9446 10.636C18.5682 10.636 18.0977 10.636 17.6586 10.636C17.5645 10.3537 17.2509 9.7264 16.7804 8.84819L15.3376 5.93127Z" fill="white"/>
<path d="M23.4288 8.50317C23.4288 8.78546 23.4288 9.00501 23.4288 9.22456C23.4288 9.44411 23.4288 9.6323 23.4288 9.82049C23.4288 9.94595 23.4915 10.0087 23.6169 10.0714L24.2442 10.291L24.2756 10.636C23.8051 10.636 23.2719 10.6046 22.676 10.6046C22.0801 10.6046 21.5155 10.6046 21.045 10.636L21.0137 10.291L21.7037 10.04C21.7978 10.0087 21.8292 9.94595 21.8292 9.82049C21.8292 9.6323 21.8292 9.44411 21.8292 9.22456C21.8292 9.00501 21.8292 8.75409 21.8292 8.50317V3.17117C21.8292 2.95162 21.8292 2.73207 21.8292 2.54388C21.8292 2.35569 21.8292 2.19887 21.8292 2.04204C21.8292 1.91659 21.7978 1.85386 21.7037 1.82249L21.045 1.57157L21.0764 1.22656C21.5469 1.25793 22.0801 1.25793 22.676 1.25793C23.2719 1.25793 23.8051 1.25793 24.307 1.22656L24.2756 1.57157L23.5856 1.82249C23.4915 1.85386 23.4601 1.91659 23.4601 2.01068C23.4601 2.1675 23.4601 2.35569 23.4601 2.54388C23.4601 2.73207 23.4601 2.92026 23.4601 3.13981V8.50317H23.4288Z" fill="white"/>
<path d="M27.0351 9.82049C27.0351 9.94595 27.0665 10.04 27.1606 10.0714L27.8193 10.3223L27.8506 10.6673C27.3802 10.6673 26.9411 10.636 26.6274 10.636C26.3138 10.636 25.9374 10.636 25.4669 10.6673L25.4355 10.3223L26.1256 10.0714C26.2197 10.04 26.251 9.97731 26.251 9.85186C26.251 9.47548 26.251 9.03637 26.251 8.50317V3.17117C26.251 2.73207 26.251 2.35569 26.251 2.04204C26.251 1.91659 26.2197 1.85386 26.1256 1.82249L25.4669 1.57157L25.4983 1.22656C25.9687 1.25793 26.3451 1.25793 26.596 1.25793C26.9411 1.25793 27.2547 1.25793 27.5683 1.22656L31.238 6.80948C31.3635 7.02903 31.5203 7.27995 31.6771 7.53087C31.6771 7.21722 31.6771 6.93494 31.6771 6.65266V3.13981C31.6771 2.7007 31.6771 2.32433 31.6771 2.01068C31.6771 1.91659 31.6458 1.85386 31.5517 1.82249L30.8616 1.57157L30.893 1.22656C31.3635 1.25793 31.7399 1.25793 32.0535 1.25793C32.3671 1.25793 32.8063 1.25793 33.2767 1.22656L33.2454 1.57157L32.524 1.82249C32.4612 1.85386 32.3985 1.91659 32.3985 2.04204C32.3985 2.32433 32.3985 2.7007 32.3985 3.17117V10.6046L31.7399 10.6673L27.4429 4.08075C27.3174 3.89256 27.192 3.64164 27.0351 3.35936C27.0351 3.70437 27.0351 3.98666 27.0351 4.26894V8.50317C27.0351 9.03637 27.0351 9.47548 27.0351 9.82049Z" fill="white"/>
<path d="M39.9583 3.70506L39.676 3.76779L39.4251 1.91727C39.1428 1.79182 38.8605 1.72909 38.4528 1.72909C37.6686 1.72909 37.0727 2.10546 36.6336 2.85822C36.1945 3.61097 35.9749 4.61464 35.9749 5.93196C35.9749 7.28064 36.1945 8.34704 36.6336 9.09979C37.0727 9.85254 37.6686 10.2289 38.4528 10.2289C38.6409 10.2289 38.8291 10.1976 39.0487 10.1662V8.40977C39.0487 8.19021 39.0487 7.97066 39.0487 7.81384C39.0487 7.62565 39.0487 7.46883 39.0487 7.312C39.0487 7.18654 39.0173 7.12381 38.9232 7.09245L38.2332 6.84153V6.49652C38.735 6.52789 39.2682 6.52788 39.8328 6.52788C40.4287 6.52788 40.9306 6.52789 41.3697 6.49652L41.401 6.84153L40.7737 7.06109C40.6796 7.09245 40.6483 7.15518 40.6483 7.24927C40.6483 7.43746 40.6483 7.62565 40.6483 7.78247C40.6483 7.97066 40.6483 8.15885 40.6483 8.3784V10.2916C40.6483 10.2916 40.6483 10.5426 40.4601 10.5739C40.3346 10.6053 39.2682 10.8876 38.4841 10.8562C37.2295 10.8248 36.2259 10.4485 35.4417 9.60163C34.689 8.75478 34.2812 7.62565 34.2812 6.12014C34.2812 4.55191 34.6576 3.29732 35.4417 2.38774C36.2259 1.47817 37.2609 1.03906 38.5782 1.03906C39.2055 1.03906 39.7701 1.13316 40.3974 1.32134L40.4287 1.38407L39.9583 3.70506Z" fill="white"/>
<path d="M41.8086 3.45012C42.1536 2.94828 42.2163 2.41508 42.2163 1.91325C42.2163 1.47414 42.0909 1.12913 41.8086 0.878212C41.8086 0.595929 41.84 0.376376 41.9341 0.219553C42.0281 0.0627294 42.1536 0 42.2791 0C42.4359 0 42.5613 0.0940941 42.6554 0.313647C42.7495 0.5332 42.8123 0.784118 42.8123 1.09776C42.8123 1.5996 42.7182 2.07007 42.5613 2.47781C42.3732 2.91692 42.1536 3.35602 41.84 3.76376L41.8086 3.45012Z" fill="white"/>
<path d="M47.6106 1.85052C47.3911 1.72506 47.1401 1.6937 46.8892 1.6937C46.5129 1.6937 46.1992 1.81916 45.9483 2.10144C45.6974 2.38372 45.5719 2.72874 45.5719 3.16784C45.5719 3.41876 45.6033 3.66968 45.6974 3.85786C45.7915 4.04605 45.8856 4.20288 46.0424 4.3597C46.1678 4.51652 46.3247 4.64198 46.5129 4.76744C46.701 4.8929 46.8892 4.98699 47.0774 5.11245C47.297 5.23791 47.4852 5.39474 47.7047 5.55156C47.9243 5.70838 48.1125 5.89657 48.2693 6.08476C48.4261 6.30431 48.5829 6.55523 48.677 6.83751C48.7711 7.11979 48.8338 7.49617 48.8338 7.90391C48.8338 8.81349 48.5829 9.53488 48.0497 10.0367C47.5165 10.5385 46.8265 10.8208 45.9483 10.8208C45.321 10.8208 44.6937 10.6954 44.0978 10.4445L44.0664 10.3817L44.4428 7.96664L44.7564 7.90391L45.0387 9.94262C45.2896 10.0994 45.5719 10.1622 45.8542 10.1622C46.2933 10.1622 46.6383 10.0053 46.9206 9.72306C47.2029 9.44078 47.3283 9.0644 47.3283 8.56257C47.3283 8.28029 47.297 8.06073 47.2029 7.87255C47.1088 7.68436 47.0147 7.52753 46.8579 7.37071C46.701 7.21389 46.5442 7.08843 46.3874 6.96297C46.1992 6.83751 46.011 6.74342 45.8228 6.61796C45.6033 6.4925 45.4151 6.33568 45.1955 6.21022C44.976 6.05339 44.7878 5.89657 44.631 5.67702C44.4741 5.45746 44.3173 5.20655 44.2232 4.92426C44.1291 4.64198 44.0664 4.29697 44.0664 3.85786C44.0664 3.01102 44.3173 2.32099 44.8192 1.81916C45.321 1.31732 45.9797 1.06641 46.7951 1.06641C47.297 1.06641 47.8929 1.1605 48.5516 1.38005L48.5829 1.44278L48.1438 3.60695L47.8615 3.66968L47.6106 1.85052Z" fill="white"/>
<path d="M61.2246 6.96263C61.2873 7.21354 61.3187 7.4331 61.35 7.68401C61.4128 7.4331 61.4755 7.21354 61.5382 6.99399L62.6046 2.97931C62.6673 2.72839 62.7301 2.50884 62.7614 2.38338C62.7928 2.25792 62.7928 2.13246 62.7928 2.03837C62.7928 1.97564 62.7928 1.91291 62.7301 1.85018C62.6987 1.81881 62.636 1.78745 62.5732 1.75609L62.1028 1.5679L62.1341 1.22289C62.636 1.25425 63.1064 1.25425 63.4201 1.25425C63.7337 1.25425 64.1101 1.25425 64.5492 1.22289L64.5179 1.5679L63.9533 1.78745C63.8278 1.85018 63.7337 1.91291 63.6396 2.03837C63.5769 2.16383 63.5142 2.32065 63.4515 2.57157L61.2246 10.6323L60.5973 10.695L59.28 5.36303C59.2172 5.08074 59.1859 4.7671 59.1231 4.45345C59.029 4.7671 58.9663 5.08074 58.8722 5.36303L57.4294 10.6323L56.8021 10.695L54.7634 2.66566C54.6693 2.35201 54.6066 2.13246 54.5439 2.03837C54.4812 1.91291 54.3557 1.85018 54.2302 1.78745L53.7598 1.5679L53.7911 1.22289C54.2616 1.25425 54.7321 1.25425 55.2025 1.25425C55.8298 1.25425 56.4258 1.25425 57.0217 1.22289V1.5679L56.5199 1.75609C56.4571 1.78745 56.3944 1.81881 56.363 1.85018C56.3317 1.88154 56.3003 1.94427 56.3003 2.03837C56.3003 2.13246 56.3003 2.25792 56.3317 2.38338C56.363 2.5402 56.3944 2.72839 56.4571 2.97931L57.4294 6.99399C57.4922 7.24491 57.5235 7.46446 57.5549 7.71538C57.6176 7.46446 57.6804 7.24491 57.7117 7.02535L59.28 1.22289L59.8132 1.16016L61.2246 6.96263Z" fill="white"/>
<path d="M67.4347 6.24491V8.50317C67.4347 9.03637 67.4347 9.47548 67.4347 9.82049C67.4347 9.94595 67.4661 10.0087 67.5602 10.0714L68.1561 10.291L68.1875 10.636C67.7484 10.636 67.2465 10.6046 66.6506 10.6046C66.0547 10.6046 65.5215 10.6046 65.0196 10.636L64.9883 10.291L65.6783 10.04C65.7724 10.0087 65.8038 9.94595 65.8038 9.82049C65.8038 9.44411 65.8038 9.00501 65.8038 8.47181V3.13981C65.8038 2.7007 65.8038 2.32433 65.8038 2.01068C65.8038 1.88522 65.7724 1.82249 65.6783 1.79113L65.0196 1.57157L65.051 1.22656C65.5528 1.25793 66.086 1.25793 66.682 1.25793C67.2779 1.25793 67.8111 1.25793 68.2188 1.22656L68.1875 1.57157L67.5602 1.79113C67.4661 1.82249 67.4347 1.88522 67.4347 2.01068C67.4347 2.32433 67.4347 2.7007 67.4347 3.13981V5.55489H70.7908V3.13981C70.7908 2.7007 70.7908 2.32433 70.7908 2.01068C70.7908 1.91659 70.728 1.82249 70.6653 1.79113L70.038 1.57157L70.0694 1.22656C70.5085 1.25793 71.0417 1.25793 71.6376 1.25793C72.2335 1.25793 72.7354 1.25793 73.2058 1.22656L73.1745 1.57157L72.4844 1.82249C72.3904 1.85386 72.359 1.91659 72.359 2.04204C72.359 2.32433 72.359 2.7007 72.359 3.17117V8.50317C72.359 9.03637 72.359 9.47548 72.359 9.85186C72.359 9.94595 72.4217 10.04 72.5158 10.0714L73.2058 10.3223L73.2372 10.6673C72.7354 10.6673 72.2022 10.636 71.6062 10.636C71.0103 10.636 70.5085 10.636 70.1007 10.6673L70.038 10.3223L70.6653 10.1028C70.7594 10.0714 70.7908 10.0087 70.7908 9.85186C70.7908 9.50684 70.7908 9.06774 70.7908 8.53454V6.27628H67.4347V6.24491Z" fill="white"/>
<path d="M75.9342 7.62163L75.5578 8.87622C75.495 9.12713 75.4323 9.31532 75.401 9.47215C75.3696 9.62897 75.3382 9.72306 75.3382 9.81716C75.3382 9.91125 75.3696 9.94262 75.401 10.0053C75.4323 10.0367 75.495 10.0681 75.5578 10.0994L76.0596 10.2876L76.091 10.6326C75.5891 10.6326 75.1187 10.6013 74.805 10.6013C74.46 10.6013 74.115 10.6013 73.6759 10.6326L73.6445 10.2876L74.2091 10.0681C74.3346 10.0053 74.4286 9.94262 74.4914 9.81716C74.5541 9.6917 74.6168 9.53488 74.7109 9.28396L77.2828 1.1605L77.8474 1.06641L80.0743 9.22123C80.1684 9.53487 80.2311 9.75443 80.3252 9.84852C80.3879 9.94262 80.5134 10.0367 80.6389 10.0994L81.1407 10.2876L81.1721 10.6326C80.7016 10.6326 80.2311 10.6013 79.7606 10.6013C79.1334 10.6013 78.5374 10.6013 77.9415 10.6326L77.9101 10.2876L78.412 10.0994C78.4747 10.0681 78.5374 10.0367 78.5688 10.0053C78.6002 9.97398 78.6002 9.91125 78.6002 9.81716C78.6002 9.72306 78.5688 9.5976 78.5374 9.47215C78.5061 9.31532 78.4433 9.12713 78.3806 8.90758L78.0356 7.65299H75.9342V7.62163ZM77.0633 3.79514C77.0006 4.01469 76.9378 4.26561 76.8751 4.51652L76.1537 6.93161H77.816L77.1887 4.51652C77.0946 4.26561 77.0946 4.01469 77.0633 3.79514Z" fill="white"/>
<path d="M84.1202 8.50329C84.1202 8.78557 84.1202 9.00512 84.1202 9.22468C84.1202 9.44423 84.1202 9.63242 84.1202 9.78924C84.1202 9.94606 84.1515 10.0088 84.2456 10.0402L84.7788 10.2597L84.8102 10.6047C84.4338 10.6047 83.9633 10.5734 83.3674 10.5734C82.7715 10.5734 82.2069 10.5734 81.7364 10.6047L81.7051 10.2597L82.3951 10.0088C82.4892 9.97743 82.5206 9.9147 82.5206 9.78924C82.5206 9.60105 82.5206 9.41286 82.5206 9.19331C82.5206 8.97376 82.5206 8.72284 82.5206 8.47192V3.13992C82.5206 2.92037 82.5206 2.70082 82.5206 2.51263C82.5206 2.32444 82.5206 2.16762 82.5206 2.01079C82.5206 1.88534 82.4892 1.82261 82.3951 1.79124L81.7364 1.57169L81.7051 1.22668C82.1755 1.25804 82.6774 1.25804 83.2106 1.25804C83.3047 1.25804 83.4615 1.25804 83.6183 1.25804C83.7752 1.25804 83.9633 1.22668 84.2143 1.22668C84.4338 1.22668 84.5906 1.19531 84.7475 1.19531C84.8729 1.19531 84.9984 1.19531 85.0925 1.19531C85.9707 1.19531 86.6607 1.3835 87.0998 1.75988C87.5389 2.13625 87.7585 2.70082 87.7585 3.45357C87.7585 4.11223 87.633 4.64543 87.3507 5.05317C87.0684 5.46091 86.6921 5.77456 86.1589 5.99411C86.4412 6.55868 86.6607 6.99778 86.8175 7.34279C86.9743 7.68781 87.1312 8.03282 87.288 8.34646C87.4448 8.69148 87.6016 8.97376 87.7271 9.22468C87.8526 9.47559 87.978 9.69515 88.1035 9.82061C88.1662 9.88333 88.2289 9.94606 88.2917 10.0088C88.3544 10.0715 88.4171 10.1029 88.4799 10.1343C88.5426 10.1656 88.6053 10.197 88.668 10.2283C88.7308 10.2597 88.8249 10.2911 88.919 10.2911L88.9503 10.5734C88.6053 10.6361 88.2289 10.7302 87.7898 10.7302C87.4448 10.7302 87.1939 10.6988 87.0684 10.6361C86.943 10.5734 86.8175 10.4793 86.6921 10.3852C86.5352 10.2283 86.3784 10.0088 86.253 9.75788C86.1275 9.50696 85.9707 9.22468 85.8452 8.87966C85.6884 8.56602 85.5316 8.22101 85.3748 7.84463C85.2179 7.46825 85.0611 7.12324 84.8729 6.74686C84.8102 6.65277 84.7788 6.55868 84.7475 6.49595C84.7161 6.43322 84.6847 6.37049 84.6534 6.33912C84.622 6.30776 84.5906 6.27639 84.5593 6.27639C84.5279 6.27639 84.4652 6.24503 84.4338 6.24503H84.2143V8.50329H84.1202ZM84.1202 5.68046C84.3084 5.68046 84.4652 5.71183 84.622 5.71183C85.1238 5.71183 85.4688 5.55501 85.6884 5.24136C85.908 4.92771 86.0334 4.42588 86.0334 3.73585C86.0334 3.07719 85.9079 2.60672 85.7198 2.29308C85.5002 1.97943 85.1552 1.85397 84.6847 1.85397C84.622 1.85397 84.5279 1.85397 84.4338 1.85397C84.3397 1.85397 84.2456 1.88534 84.1202 1.88534V5.68046Z" fill="white"/>
<path d="M91.9601 6.30764V8.50317C91.9601 9.03637 91.9601 9.44411 91.9601 9.78913C91.9601 9.88322 92.0229 9.97731 92.0856 10.0087L92.8383 10.291L92.8697 10.636C92.3365 10.636 91.7719 10.6046 91.176 10.6046C90.5801 10.6046 90.0469 10.6046 89.545 10.636L89.5137 10.291L90.2037 10.04C90.2978 10.0087 90.3292 9.94595 90.3605 9.82049C90.3605 9.44411 90.3605 9.00501 90.3605 8.47181V3.13981C90.3605 2.92026 90.3605 2.7007 90.3605 2.51252C90.3605 2.32433 90.3605 2.1675 90.3605 2.01068C90.3605 1.88522 90.3292 1.82249 90.2351 1.79113L89.5764 1.57157L89.6078 1.22656C90.1096 1.25793 90.5487 1.25793 90.9878 1.25793H92.3051C93.152 1.25793 94.3125 1.25793 95.2221 1.22656L95.2534 1.28929L94.6888 3.51619L94.4066 3.57891L94.3125 1.94795H91.9601V5.64899H92.2424C92.5561 5.64899 92.8697 5.64899 93.2147 5.64899C93.3088 5.64899 93.3715 5.58626 93.4029 5.4608L93.5911 4.55122L93.9361 4.51986C93.9361 5.17851 93.9047 5.64899 93.9047 5.96263C93.9047 6.27628 93.9047 6.74675 93.9361 7.40541L93.5911 7.43677L93.4029 6.49583C93.3715 6.37037 93.3402 6.30764 93.2461 6.30764C92.9011 6.30764 92.5561 6.30764 92.2424 6.30764H91.9601Z" fill="white"/>
</svg>
